<svg id="Layer_1" data-name="Layer 1" xmlns="http://www.w3.org/2000/svg" viewBox="0 0 841.89 424.48"><defs><style>.cls-1{fill:#1d1d1b;}</style></defs><title>Artboard 38</title><path class="cls-1" d="M120.51,162.78a24,24,0,0,1,2.19-5.23l8.64-1.79,14.07-2.93c1.5,7.1,2.67,14.22,3.48,21.16a4.58,4.58,0,0,0,3.74,4.19,4.79,4.79,0,0,0,1.5.24,5.27,5.27,0,0,0,2.34-.57c8.79-4.34,17.93-8.05,25.81-11.19a4.72,4.72,0,0,0,2.7-6.42,5.47,5.47,0,0,0-7.2-3.24c-5.82,2.32-12.62,5.08-19.33,8.13-1-6.69-2.24-13.32-3.75-19.73a5.23,5.23,0,0,0-1.17-2.3,4.87,4.87,0,0,0-5-1.81q-9.71,2-19.41,4-9.17,1.92-18.34,3.81a10.94,10.94,0,0,0-2,.4q-10.21,3.14-16.38,8.64a31.52,31.52,0,0,0-8.86,12.9,46.93,46.93,0,0,0-2.69,16.15q0,11.89,4.71,19.29a42.46,42.46,0,0,0,11.89,12.34,92.48,92.48,0,0,0,15.37,8.52,141.79,141.79,0,0,1,15.37,7.85A43,43,0,0,1,140,245.44q4.71,5.95,4.71,15.82a55.19,55.19,0,0,1-.45,7.63q-.45,3.14-.9,5.16a31.43,31.43,0,0,1-1.35,4l-5.16.45q-2.25.23-4.82.34t-4.82.11h-3.81a26.87,26.87,0,0,1-3.36-.22,49.49,49.49,0,0,0-3.14-15.25,38.27,38.27,0,0,0-7.4-12.11,34.41,34.41,0,0,0-11.44-8.19,39.92,39.92,0,0,0-15.48-3.25v50.25l18.84-3.59A95.48,95.48,0,0,0,111.54,289a98.43,98.43,0,0,0,17.5,1.23q25.79,0,40.15-10.88t14.36-34.21a34.26,34.26,0,0,0-3.93-16.49,45.06,45.06,0,0,0-10.09-12.67A64.31,64.31,0,0,0,156,206.86a128.26,128.26,0,0,0-14.36-6.17q-11.89-3.81-17.16-9.42t-5.27-17.5a38.88,38.88,0,0,1,.45-6.17Q120.06,164.8,120.51,162.78Z"/><path class="cls-1" d="M716.47,200.31a16.52,16.52,0,0,1,1.51-3.6l5.95-1.23,9.68-2c1,4.89,1.84,9.78,2.39,14.56a3.15,3.15,0,0,0,2.57,2.88,3.3,3.3,0,0,0,1,.16,3.62,3.62,0,0,0,1.61-.39c6-3,12.33-5.54,17.75-7.7a3.25,3.25,0,0,0,1.86-4.42,3.76,3.76,0,0,0-5-2.23c-4,1.59-8.68,3.49-13.3,5.59-.67-4.6-1.54-9.16-2.58-13.57a3.6,3.6,0,0,0-.8-1.58,3.35,3.35,0,0,0-3.46-1.24q-6.68,1.37-13.35,2.77l-12.62,2.62a7.53,7.53,0,0,0-1.38.28,30,30,0,0,0-11.26,5.94A21.68,21.68,0,0,0,691,206a32.28,32.28,0,0,0-1.85,11.11q0,8.18,3.24,13.27a29.2,29.2,0,0,0,8.18,8.49,63.61,63.61,0,0,0,10.57,5.86,97.52,97.52,0,0,1,10.57,5.4,29.55,29.55,0,0,1,8.18,7q3.24,4.09,3.24,10.88a38,38,0,0,1-.31,5.25q-.31,2.16-.62,3.55a21.62,21.62,0,0,1-.93,2.78l-3.55.31q-1.54.16-3.32.23t-3.32.08h-2.62a18.48,18.48,0,0,1-2.31-.15A34,34,0,0,0,714,269.59a26.32,26.32,0,0,0-5.09-8.33,23.67,23.67,0,0,0-7.87-5.63,27.46,27.46,0,0,0-10.65-2.24V288l13-2.47a65.67,65.67,0,0,0,6.94,1.62,67.7,67.7,0,0,0,12,.85q17.74,0,27.62-7.48t9.87-23.53a23.56,23.56,0,0,0-2.7-11.34,31,31,0,0,0-6.94-8.72,44.23,44.23,0,0,0-9.33-6.25,88.22,88.22,0,0,0-9.87-4.24q-8.18-2.62-11.8-6.48t-3.63-12a26.74,26.74,0,0,1,.31-4.24Q716.16,201.7,716.47,200.31Z"/><path class="cls-1" d="M206,175.79l35.44-9.65v20h26.92v11.22H241.42v78.29h4.71q13,0,13-19.74h11.44a98.42,98.42,0,0,1-.78,13A19.81,19.81,0,0,1,265.54,279q-3.48,4.26-10.32,6.51t-19,2.24a45.85,45.85,0,0,1-14.13-1.91,26.63,26.63,0,0,1-9.42-5,18.68,18.68,0,0,1-5.16-7A20.41,20.41,0,0,1,206,266Z"/><path class="cls-1" d="M281.8,236.8q0-14.35,2.69-24.34a34.78,34.78,0,0,1,9-16.15,37,37,0,0,1,16.15-9q9.87-2.8,24.45-2.8,14.35,0,24.34,2.8a37,37,0,0,1,16.26,9,34.81,34.81,0,0,1,9,16.15q2.69,10,2.69,24.34t-2.69,24.34a34.78,34.78,0,0,1-9,16.15,37,37,0,0,1-16.26,9q-10,2.8-24.34,2.8-14.58,0-24.45-2.8a36.9,36.9,0,0,1-16.15-9,34.75,34.75,0,0,1-9-16.15Q281.8,251.16,281.8,236.8Zm36.79,0q0,8.75.56,16.26t1.46,12.9q.89,6.51,2,11.66a11.81,11.81,0,0,0,2.92.67,40.58,40.58,0,0,0,8.52.67,42.63,42.63,0,0,0,8.53-.67,11.89,11.89,0,0,0,2.92-.67q1.12-5.16,2-11.66.67-5.38,1.35-12.9t.67-16.26q0-8.75-.67-16.15t-1.35-13q-.9-6.28-2-11.67-1.35-.22-3.14-.67-1.57-.22-3.7-.45a44.88,44.88,0,0,0-4.6-.22,46.44,46.44,0,0,0-4.93.22q-2,.23-3.59.45-1.8.45-2.92.67-1.13,5.38-2,11.67-.9,5.61-1.46,13T318.59,236.8Z"/><path class="cls-1" d="M400.92,190.14h13.24L448,183.64V198a15.71,15.71,0,0,1,1.68-2.8,19.55,19.55,0,0,1,4.71-4.49,34.75,34.75,0,0,1,8.52-4.26,39.81,39.81,0,0,1,13.35-1.91q4.93,0,7.74.22t4.37.45a9.35,9.35,0,0,1,2.24.45V229q-8.08,0-13.46-3.14a27.72,27.72,0,0,1-8.75-7.85,38.91,38.91,0,0,1-5.16-9.87,56.68,56.68,0,0,1-2.47-9.2,15.9,15.9,0,0,0-3.81,3,33.42,33.42,0,0,0-3.25,4q-1.46,2.13-2.58,4a23.78,23.78,0,0,0-1.57,3v62.36h13.24v11.44H400.92V275.39h13.24v-74H400.92Z"/><path class="cls-1" d="M500.74,187.9H514l35.44-5.38v92.87h13.24v11.44H500.74V275.39H514V199.12H500.74Zm13.24-35q0-9.42,4-14t13.68-4.6q10.09,0,13.91,4.6t3.81,14q0,9.65-4.15,14T531.7,171.3q-9.65,0-13.68-4.37T514,152.9Z"/><path class="cls-1" d="M625.92,184.53q12.33,0,20.41,2.36a28.69,28.69,0,0,1,13,7.51,29,29,0,0,1,7,13.57,90.59,90.59,0,0,1,2,20.75q0,3.82-.22,6.62t-.45,4.6q-.23,2.24-.45,3.36H611.79q.22,7.63.9,13.8T614,267.76q.89,5.38,1.8,9.42a5.2,5.2,0,0,0,2,.67,23.71,23.71,0,0,0,3.25.34q2.13.12,5.5.11a69,69,0,0,0,10.66-.79,32.43,32.43,0,0,0,8.86-2.58,13.45,13.45,0,0,0,8.07-13H666.3q0,9.42-4.15,14.81a26.9,26.9,0,0,1-10.32,8.19,41.31,41.31,0,0,1-13.35,3.48q-7.18.67-13.46.67-13.68,0-23.22-2.8a34.46,34.46,0,0,1-15.48-9,36.41,36.41,0,0,1-8.64-16.15q-2.69-10-2.69-24.34a107.74,107.74,0,0,1,2.36-24.34q2.36-10,8.19-16.15t15.59-9Q610.89,184.54,625.92,184.53ZM615.82,196q-1.13,4.94-2,10.77-.67,5.16-1.35,12t-.67,14.92h21.76q-.45-9.42-1.12-16.49t-1.57-11.78a77.92,77.92,0,0,0-2-9.42,11.49,11.49,0,0,1-1.57-.67q-.9-.22-2.13-.45a16.08,16.08,0,0,0-2.8-.22,14.15,14.15,0,0,0-2.69.22q-1.13.23-2,.45A8.55,8.55,0,0,1,615.82,196Z"/></svg>