<?xml version="1.0" encoding="utf-8"?>
<!-- Generator: Adobe Illustrator 21.0.0, SVG Export Plug-In . SVG Version: 6.00 Build 0)  -->
<svg version="1.1" id="Layer_1" xmlns="http://www.w3.org/2000/svg" xmlns:xlink="http://www.w3.org/1999/xlink" x="0px" y="0px"
	 viewBox="0 0 841.9 595.3" style="enable-background:new 0 0 841.9 595.3;" xml:space="preserve">
<style type="text/css">
	.st0{font-family:'BigshotOne-Regular';}
	.st1{font-size:366.3156px;}
	.st2{fill:#FFFFFF;}
	.st3{fill:#009FE3;}
	.st4{fill:#EB6012;}
	.st5{stroke:#000000;stroke-width:2.5;stroke-miterlimit:10;}
	.st6{stroke:#000000;stroke-width:3;stroke-miterlimit:10;}
</style>
<image style="overflow:visible;" width="1201" height="799" xlink:href="../../Captura de pantalla 2020-01-12 a la(s) 17.39.24.png"  transform="matrix(0.1614 0 0 0.1614 477.9428 61.0191)">
</image>
<text transform="matrix(1 0 0 1 411.3011 476.7793)" class="st0 st1">T</text>
<text transform="matrix(1 0 0 1 641.7898 805.2626)" class="st0 st1">k</text>
<g>
	<g>
		<path d="M273.8,337.9c4.5-7.1,8.5-14.4,12-22c1.4-2.9-3-5.4-4.3-2.5c-3.5,7.6-7.5,14.9-12,22C267.8,338.1,272.1,340.6,273.8,337.9
			L273.8,337.9z"/>
	</g>
</g>
<g>
	<g>
		<g>
			<path d="M398.7,249.3c7.2,29.6,17.5,58.4,30.5,86c1.4,2.9,5.7,0.4,4.3-2.5c-12.9-27.2-22.9-55.6-30-84.8
				C402.8,244.8,398,246.2,398.7,249.3L398.7,249.3z"/>
		</g>
	</g>
	<g>
		<g>
			<path d="M399.3,249.4c11.3,23.8,24.8,46.5,40.3,67.8c1.9,2.6,6.2,0.1,4.3-2.5c-15.5-21.3-29-44-40.3-67.8
				C402.2,244,397.9,246.5,399.3,249.4L399.3,249.4z"/>
		</g>
	</g>
	<g>
		<g>
			<path d="M402,250.8c35-6.6,71.2-3.8,104.9,7.7c3.1,1,4.4-3.8,1.3-4.8c-34.6-11.9-71.7-14.5-107.6-7.7
				C397.5,246.6,398.9,251.4,402,250.8L402,250.8z"/>
		</g>
	</g>
	<g>
		<g>
			<path d="M507.5,254.5c-27.4,26.4-52.4,55.1-74.9,85.8c1.4,0,2.9,0,4.3,0c-6.9-12.1-17.6-20.8-27.5-30.3c-2.5-2.4-5-4.9-7.3-7.6
				c-2.2-2.5-5.5-5.9-6.7-9.1c-1.4-4.1,0.9-3.7,3.7-4.6c2-0.6,4-1.2,5.9-1.7c4-1.1,8-2.1,12-3.1c31.6-7.7,64.2-12.5,93.6-27.3
				c2.7-1.4,0.7-5-1.9-4.6c-0.9,0.1-1.7,0.3-2.6,0.4c-3.2,0.6-1.8,5.4,1.3,4.8c0.9-0.1,1.7-0.3,2.6-0.4c-0.6-1.5-1.3-3-1.9-4.6
				c-32.9,16.6-70.1,20.3-105.2,30.1c-4.9,1.4-14.4,2.5-13.3,9.6c0.9,5.9,7.1,11.9,10.9,16.1c10.7,11.5,24,20.7,32,34.6
				c1,1.8,3.2,1.5,4.3,0c22.2-30.3,47-58.7,74.1-84.7C513.4,255.8,509.8,252.3,507.5,254.5L507.5,254.5z"/>
		</g>
	</g>
</g>
<g>
	<path d="M306.9,302.2c7.5,22.4,15,44.7,22.5,67.1c1.2,3.6,2.3,8,0,11c-1.4,1.9-3.8,2.7-6,3.4c-18.1,5.8-37,9.1-56,9.8
		c-5.6,0.2-12.2-0.4-14.8-5.3c-1.9-3.5-0.8-7.7,0.3-11.6c4.7-16.5,9.4-33.1,14.1-49.6c3.3,3.4,6.6,6.8,9.9,10.2
		c11.6-10.5,21.7-22.7,29.7-36.2"/>
</g>
<g>
	<g>
		<path d="M227.6,157.7c44.2-39.6,87.4-80.3,129.5-122.2c2.3-2.3-1.2-5.8-3.5-3.5c-42.1,41.8-85.3,82.6-129.5,122.2
			C221.7,156.3,225.3,159.9,227.6,157.7L227.6,157.7z"/>
	</g>
</g>
<g>
	<g>
		<path d="M223.1,155.5c4.7-9,9.4-18,14.1-27c1.5-2.8-2.8-5.4-4.3-2.5c-4.7,9-9.4,18-14.1,27C217.3,155.8,221.6,158.4,223.1,155.5
			L223.1,155.5z"/>
	</g>
</g>
<g>
	<g>
		<path d="M235.3,129.8c3.2,0,3.2-5,0-5C232.1,124.8,232.1,129.8,235.3,129.8L235.3,129.8z"/>
	</g>
</g>
<g>
	<g>
		<path d="M233.4,126.5c2.8,8.7,5.6,17.4,8.5,26.1c1,3,5.8,1.7,4.8-1.3c-2.8-8.7-5.6-17.4-8.5-26.1
			C237.2,122.1,232.4,123.4,233.4,126.5L233.4,126.5z"/>
	</g>
</g>
<g>
	<g>
		<path d="M241.7,152.2c-9.5-7.3-16.8-16.8-21.6-27.8c-1.3-2.9-5.6-0.4-4.3,2.5c5.2,11.8,13.2,21.7,23.4,29.5
			C241.8,158.5,244.3,154.2,241.7,152.2L241.7,152.2z"/>
	</g>
</g>
<g>
	<g>
		<path d="M216.5,126.1c10.9,5.8,25.5,16.2,25.6,29.9c0,3.2,5,3.2,5,0c-0.2-15.6-15.5-27.5-28.1-34.2
			C216.1,120.2,213.6,124.6,216.5,126.1L216.5,126.1z"/>
	</g>
</g>
<g>
	<g>
		<path d="M244.6,154.8c-26.7-4.5-51-18.3-68.5-39c-2.1-2.5-5.6,1.1-3.5,3.5c18,21.3,43.2,35.7,70.7,40.3
			C246.5,160.1,247.8,155.3,244.6,154.8L244.6,154.8z"/>
	</g>
</g>
<g>
	<g>
		<path d="M171.2,119.9c17.8,22.4,35.2,45,52.4,67.9c1.9,2.5,6.3,0.1,4.3-2.5c-17.4-23.2-35.1-46.2-53.2-68.9
			C172.8,113.8,169.2,117.4,171.2,119.9L171.2,119.9z"/>
	</g>
</g>
<g>
	<g>
		<path d="M227.8,191.6c41.4-53.5,84.4-105.9,128.9-156.9c2.1-2.4-1.4-6-3.5-3.5c-44.5,51-87.5,103.4-128.9,156.9
			C222.3,190.6,225.9,194.2,227.8,191.6L227.8,191.6z"/>
	</g>
</g>
<g>
	<g>
		<path d="M354.9,36.9c9.8,3.8,18.5,9.6,25.8,17.1c2.3,2.3,5.8-1.2,3.5-3.5c-8-8.2-17.4-14.3-28-18.4
			C353.2,30.9,351.9,35.8,354.9,36.9L354.9,36.9z"/>
	</g>
</g>
<g>
	<g>
		<path d="M543,152.9c23.6-18,45.9-37.6,66.8-58.7c2.3-2.3-1.3-5.8-3.5-3.5c-20.6,20.8-42.5,40.2-65.8,57.9
			C538,150.5,540.5,154.8,543,152.9L543,152.9z"/>
	</g>
</g>
<g>
	<g>
		<path d="M542.6,152.3c0.8-4.8,1.6-9.5,2.4-14.3c0.5-3.1-4.3-4.5-4.8-1.3c-0.8,4.8-1.6,9.5-2.4,14.3
			C537.2,154.1,542,155.5,542.6,152.3L542.6,152.3z"/>
	</g>
</g>
<g>
	<g>
		<path d="M540.9,139.4c1.7,2.1,3.3,4.2,5,6.3c0.8,1.1,2.7,0.9,3.5,0c1-1,0.8-2.5,0-3.5c-1.7-2.1-3.3-4.2-5-6.3
			c-0.8-1.1-2.7-0.9-3.5,0C539.9,136.9,540.1,138.3,540.9,139.4L540.9,139.4z"/>
	</g>
</g>
<g>
	<g>
		<path d="M551.2,144c0.5-5.2,0.3-10.2-0.5-15.3c-0.5-3.2-5.3-1.8-4.8,1.3c0.7,4.7,0.8,9.3,0.3,14
			C545.9,147.2,550.9,147.2,551.2,144L551.2,144z"/>
	</g>
</g>
<g>
	<g>
		<path d="M545.6,127.4c-1.7,2.8-3.3,5.6-5,8.3c-1.7,2.8,2.7,5.3,4.3,2.5c1.7-2.8,3.3-5.6,5-8.3
			C551.5,127.2,547.2,124.7,545.6,127.4L545.6,127.4z"/>
	</g>
</g>
<g>
	<g>
		<path d="M542.7,134.8c-10-2.2-19.9-4.8-29.6-8c-3.1-1-4.4,3.8-1.3,4.8c9.7,3.2,19.6,5.9,29.6,8
			C544.5,140.3,545.8,135.5,542.7,134.8L542.7,134.8z"/>
	</g>
</g>
<g>
	<g>
		<path d="M510.2,130.8c9.7,10.7,19.3,21.4,29,32.1c2.2,2.4,5.7-1.2,3.5-3.5c-9.7-10.7-19.3-21.4-29-32.1
			C511.5,124.9,508,128.5,510.2,130.8L510.2,130.8z"/>
	</g>
</g>
<g>
	<g>
		<path d="M543.5,164.2c20.7-24.1,42.5-47.3,65.3-69.4c2.3-2.2-1.2-5.8-3.5-3.5c-22.8,22.1-44.6,45.3-65.3,69.4
			C537.9,163.1,541.4,166.6,543.5,164.2L543.5,164.2z"/>
	</g>
</g>
<g>
	<g>
		<path d="M607.4,94.8c3.2,1.3,6.5,2.6,9.7,3.9c3,1.2,4.3-3.6,1.3-4.8c-3.2-1.3-6.5-2.6-9.7-3.9C605.7,88.8,604.4,93.6,607.4,94.8
			L607.4,94.8z"/>
	</g>
</g>
</svg>
