<?xml version="1.0" encoding="utf-8"?>
<!-- Generator: Adobe Illustrator 21.0.0, SVG Export Plug-In . SVG Version: 6.00 Build 0)  -->
<svg version="1.1" id="Layer_1" xmlns="http://www.w3.org/2000/svg" xmlns:xlink="http://www.w3.org/1999/xlink" x="0px" y="0px"
	 viewBox="0 0 841.9 595.3" style="enable-background:new 0 0 841.9 595.3;" xml:space="preserve">
<style type="text/css">
	.st0{fill:#FFFFFF;}
	.st1{fill:#009FE3;}
	.st2{fill:#EB6012;}
	.st3{stroke:#000000;stroke-width:2.5;stroke-miterlimit:10;}
	.st4{stroke:#000000;stroke-width:3;stroke-miterlimit:10;}
</style>
<g>
	<g>
		<g>
			<path d="M49.7,244.9c10.1,32.8,23.5,64.6,39.9,94.7c3.9,7.1,14.7,0.8,10.8-6.3c-16-29.2-28.9-59.9-38.7-91.7
				C59.4,233.9,47.3,237.1,49.7,244.9L49.7,244.9z"/>
		</g>
	</g>
	<g>
		<g>
			<path d="M50.6,245.8c17,28.9,36.8,55.9,59,81c5.3,6,14.2-2.8,8.8-8.8c-21.6-24.3-40.6-50.5-57.1-78.5
				C57.3,232.6,46.5,238.9,50.6,245.8L50.6,245.8z"/>
		</g>
	</g>
	<g>
		<g>
			<path d="M57.6,248c38-9.5,77.8-8.8,115.6,1.7c7.8,2.2,11.1-9.9,3.3-12.1c-39.8-11.1-82.1-11.7-122.2-1.7
				C46.5,237.9,49.8,249.9,57.6,248L57.6,248z"/>
		</g>
	</g>
	<g>
		<g>
			<path d="M172.2,240.3c-29,31.4-55.2,65.2-78.4,101.1c3.6,0,7.2,0,10.8,0c-8.9-13.6-21.9-22.9-34-33.5c-1.4-1.2-16.9-17-16-17.5
				c-1,2.1-0.6,2.6,1.2,1.4c1.1-0.4,2.1-0.8,3.2-1.2c2.1-0.8,4.3-1.5,6.4-2.2c4.3-1.4,8.7-2.7,13-4c34.7-10,71-16.3,102.7-34.7
				c5.1-3,3.2-12.2-3.2-11.6c-1.3,0.1-2.5,0.1-3.8,0.2c-8,0.6-8,13.2,0,12.5c1.3-0.1,2.5-0.1,3.8-0.2c-1.1-3.9-2.1-7.8-3.2-11.6
				c-26.7,15.5-57,22-86.5,29.8c-7.4,2-14.8,4-22.2,6.3c-6.4,2-15.1,3.6-20.3,7.9c-11.8,9.8,7.7,26.3,14.8,32.7
				c11.5,10.1,24.7,18.9,33.2,31.9c2.6,4,8.2,4,10.8,0c22.6-35,48.2-67.9,76.4-98.6C186.5,243.2,177.7,234.3,172.2,240.3
				L172.2,240.3z"/>
		</g>
	</g>
</g>
<path d="M174.9,237.5v21.2v49.2v133.6h-32.6v21.2H269v-21.2h-32.6V258.7h20.5c0.2,4.2,1.1,9,2.6,14.5s4.2,10.7,8.2,15.6
	c4,4.9,9.6,9.1,16.9,12.6c7.2,3.5,16.8,5.3,28.8,5.3v-69.2H174.9z"/>
<g>
	<path d="M638.3,374.5h-16.9V443h21.6v18.7H542V443h21.6V254.8H542v-18.3h21.6l57.9-10.6v128.9h25.3c11.5,0,43.8-0.1,46.5,7
		l35.9,81.7h4.4c2,0,3.9-0.1,5.9-0.4c2.2-0.2,4.5-0.5,7-0.7v17.6c-2.9,0.7-6.5,1.3-10.6,1.8c-3.4,0.5-7.8,0.9-13.2,1.1
		c-5.4,0.2-11.7,0.4-19,0.4c-5.6,0-10.4-0.5-14.3-1.5c-3.9-1-7.2-2.4-9.9-4.2c-2.7-1.8-4.9-4-6.8-6.6c-1.8-2.6-3.5-5.6-4.9-9
		L638.3,374.5z"/>
</g>
<g>
	<g>
		<path d="M670.6,348.5c3.2,0,3.2-5,0-5C667.4,343.5,667.4,348.5,670.6,348.5L670.6,348.5z"/>
	</g>
</g>
<g>
	<g>
		<path class="st0" d="M672.8,325.5c2.7,2.1,5.5,4.1,8.2,6.2"/>
		<g>
			<path d="M669.6,330.9c2.7,2.1,5.5,4.1,8.2,6.2c2.6,2,7.1,0.5,8.6-2.2c1.7-3.3,0.6-6.4-2.2-8.6c-2.7-2.1-5.5-4.1-8.2-6.2
				c-2.6-2-7.1-0.5-8.6,2.2C665.6,325.7,666.8,328.8,669.6,330.9L669.6,330.9z"/>
		</g>
	</g>
	<g>
		<g>
			<path d="M671.3,318.6c-20.3,0.7-40.5-5.5-60.8-6.9c-8-0.6-8,11.9,0,12.5c20.2,1.4,40.4,7.7,60.8,6.9
				C679.4,330.8,679.4,318.3,671.3,318.6L671.3,318.6z"/>
		</g>
	</g>
	<g>
		<g>
			<path d="M610.3,327.6c20.2,13,44,19.5,64.2,32.5c6.8,4.4,13.1-6.5,6.3-10.8c-20.2-13-44-19.5-64.2-32.5
				C609.9,312.4,603.6,323.2,610.3,327.6L610.3,327.6z"/>
		</g>
	</g>
	<g>
		<g>
			<path d="M671.6,381.8c21.4-44.1,45.4-87.2,70.8-129.1c4.2-6.9-6.6-13.2-10.8-6.3c-25.4,41.9-49.4,85-70.8,129.1
				C657.3,382.7,668,389.1,671.6,381.8L671.6,381.8z"/>
		</g>
	</g>
	<g>
		<g>
			<path d="M736,252.7c4.4,0.6,8.8,1.1,13.2,1.7c3.4,0.4,6.2-3.2,6.2-6.2c0-3.7-2.9-5.8-6.2-6.2c-4.4-0.6-8.8-1.1-13.2-1.7
				c-3.4-0.4-6.2,3.2-6.2,6.2C729.8,250.2,732.7,252.3,736,252.7L736,252.7z"/>
		</g>
	</g>
	<g>
		<g>
			<path d="M730.3,242.5c-24.8,31.7-49.6,63.4-74.4,95c-4.9,6.3,3.9,15.2,8.8,8.8c24.8-31.7,49.6-63.4,74.4-95
				C744,245.1,735.2,236.2,730.3,242.5L730.3,242.5z"/>
		</g>
	</g>
	<g>
		<g>
			<path d="M609.9,329.1c16.1,17.1,34.7,32.5,48.9,51.3c2.5,3.3,6.4,4.9,10.3,2.7c3.2-1.8,5.1-7,2.7-10.3
				c-15.1-19.9-34.2-36.2-51.3-54.3C613.9,311.5,603.3,322.1,609.9,329.1L609.9,329.1z"/>
		</g>
	</g>
</g>
<g>
	<g>
		<g>
			<path d="M392,273.7c39.2,10.6,78.4,21.2,117.6,31.8c7.8,2.1,11.1-10,3.3-12.1c-39.2-10.6-78.4-21.2-117.6-31.8
				C387.5,259.5,384.2,271.6,392,273.7L392,273.7z"/>
		</g>
	</g>
	<g>
		<g>
			<path d="M516.6,296.3c-2.3-3.7-3.6-7.9-6-11.6c-0.3,2.5-0.7,5-1,7.6c3-3.2,5.7-6.8,9.6-8.9c7-3.9,0.7-14.7-6.3-10.8
				c-4.9,2.7-8.4,6.8-12.2,10.9c-1.8,2-2.5,5.2-1,7.6c2.3,3.7,3.6,7.9,6,11.6C510.1,309.4,520.9,303.1,516.6,296.3L516.6,296.3z"/>
		</g>
	</g>
	<g>
		<g>
			<path d="M405.8,248.1c36.3,13.4,73.5,24,110.6,34.7c7.7,2.2,11.1-9.8,3.3-12.1c-37.1-10.7-74.3-21.3-110.6-34.7
				C401.6,233.3,398.3,245.4,405.8,248.1L405.8,248.1z"/>
		</g>
	</g>
	<g>
		<g>
			<path d="M392.9,270.9c40.4,1.9,80.6,5.8,120.6,11.8c3.4,0.5,6.7-0.8,7.7-4.4c0.8-2.9-1-7.2-4.4-7.7
				c-41.1-6.1-82.4-10.2-123.9-12.2C384.9,258,384.9,270.5,392.9,270.9L392.9,270.9z"/>
		</g>
	</g>
</g>
<path d="M491.7,387.6v11.3c0,9-1.4,16.7-4.2,23.2c-2.8,6.5-6.6,11.7-11.5,15.7c-4.9,4-10.7,6.9-17.3,8.8c-6.7,1.8-14.1,2.7-22.1,2.7
	c-8.5,0-14.7-0.4-18.6-1.1c-2.4-0.5-4.4-1-5.8-1.5c-2.2-8.8-4-18.3-5.5-28.5c-1.2-8.8-2.4-18.9-3.5-30.5c-1.1-11.6-1.6-24-1.6-37.4
	c0-13.1,0.5-25.6,1.6-37.3c1.1-11.7,2.2-21.9,3.5-30.7c0.4-2.8,0.8-5.5,1.3-8.2l-0.9-1.5l-1.4-36.7c-4.3,0.9-8.4,1.9-12.3,3.1
	c-13.8,4.3-25.1,11.1-34,20.6c-8.9,9.5-15.5,21.7-19.7,36.5c-4.3,14.9-6.4,32.9-6.4,54.1c0,21.2,2.1,39.3,6.2,54.2
	c4.1,15,10.5,27.2,19.2,36.7c8.6,9.5,19.4,16.4,32.3,20.6c12.9,4.3,28.1,6.4,45.7,6.4c10.2,0,19.9-1.3,29-4
	c9.1-2.7,17.2-6.9,24.3-12.6c7.1-5.7,12.7-13,16.8-21.9c4.1-8.9,6.2-19.5,6.2-32v-10.2H491.7z"/>
</svg>
