<?xml version="1.0" encoding="utf-8"?>
<!-- Generator: Adobe Illustrator 21.0.0, SVG Export Plug-In . SVG Version: 6.00 Build 0)  -->
<svg version="1.1" id="Layer_1" xmlns="http://www.w3.org/2000/svg" xmlns:xlink="http://www.w3.org/1999/xlink" x="0px" y="0px"
	 viewBox="0 0 377.8 424.5" style="enable-background:new 0 0 377.8 424.5;" xml:space="preserve">
<style type="text/css">
	.st0{fill:#FFFFFF;}
	.st1{fill:#009FE3;}
	.st2{fill:#EB6012;}
	.st3{stroke:#000000;stroke-width:2.5;stroke-miterlimit:10;}
	.st4{stroke:#000000;stroke-width:3;stroke-miterlimit:10;}
</style>
<path d="M289.4,107.1c-4.4-0.6-8.8-1.1-13.2-1.7c-0.6-0.1-1.3,0-1.8,0.2c-1.4,0-2.8,0.7-3.9,2.2c-19.9,25.4-39.7,50.7-59.6,76.1
	c-16.4,0.5-32.8-3.5-49.2-5.8V91l-57.9,10.6H82.1v18.3h21.6v188.3H82.1v18.7h101.1v-18.7h-21.6v-68.5h16.9l29.3,67.4
	c1.5,3.4,3.1,6.4,4.9,9c1.8,2.6,4.1,4.8,6.8,6.6c2.7,1.8,6,3.2,9.9,4.2c3.9,1,8.7,1.5,14.3,1.5c7.3,0,13.7-0.1,19-0.4
	c5.4-0.2,9.8-0.6,13.2-1.1c4.2-0.5,7.7-1.1,10.6-1.8v-17.6c-2.4,0.2-4.8,0.5-7,0.7c-2,0.2-3.9,0.4-5.9,0.4h-4.4l-35.9-81.7
	c-0.8-2.2-4.4-3.7-9.4-4.7c18-35.2,37.5-69.8,58-103.6c2.4,0.3,4.9,0.6,7.3,0.9c3.4,0.4,6.2-3.2,6.2-6.2
	C295.6,109.6,292.7,107.5,289.4,107.1z M196.8,201.7c-6.5-2.9-13-5.7-19.4-8.7c7.9,1.3,15.9,2.6,23.8,3.1
	C199.7,198,198.2,199.8,196.8,201.7z M188.4,211.6c6.1,2.7,12.1,5.5,17.9,8.7c-3.4-0.2-6.7-0.3-9.8-0.3
	C193.9,217.1,191.1,214.4,188.4,211.6z M215.7,211.2c-2.4-1.4-4.9-2.7-7.4-4c2-2.6,4-5.1,6-7.7c1.2,0.9,2.5,1.9,3.7,2.8
	c0.6,0.4,1.2,0.7,1.9,0.8C218.5,205.8,217,208.5,215.7,211.2z M224.3,191.5c-0.8-0.6-1.6-1.2-2.3-1.8c5.6-7.1,11.1-14.2,16.7-21.3
	c-4.5,8-8.9,16.1-13.2,24.1C225.1,192.2,224.7,191.8,224.3,191.5z M161.6,206.1c4.7,4.6,9.5,9.2,14.2,13.9h-14.2V206.1z"/>
</svg>
