<?xml version="1.0" encoding="utf-8"?>
<!-- Generator: Adobe Illustrator 21.0.0, SVG Export Plug-In . SVG Version: 6.00 Build 0)  -->
<svg version="1.1" id="Layer_1" xmlns="http://www.w3.org/2000/svg" xmlns:xlink="http://www.w3.org/1999/xlink" x="0px" y="0px"
	 viewBox="0 0 190.9 232.6" style="enable-background:new 0 0 190.9 232.6;" xml:space="preserve">
<style type="text/css">
	.st0{fill:#FFFFFF;}
	.st1{fill:#009FE3;}
	.st2{fill:#EB6012;}
	.st3{stroke:#000000;stroke-width:2.5;stroke-miterlimit:10;}
	.st4{stroke:#000000;stroke-width:3;stroke-miterlimit:10;}
</style>
<path d="M186.5,35.1C149.4,24.4,112.2,13.8,75.9,0.4c-1.8-0.7-3.3-0.5-4.5,0.2c-3.9,0.8-7.7,1.8-11.3,2.9
	C46.3,7.7,35,14.6,26.1,24.1c-8.9,9.5-15.5,21.7-19.7,36.5C2.1,75.5,0,93.5,0,114.7s2.1,39.3,6.2,54.2c4.1,15,10.5,27.2,19.2,36.7
	c8.6,9.5,19.4,16.4,32.3,20.6c12.9,4.3,28.1,6.4,45.7,6.4c10.2,0,19.9-1.3,29-4c9.1-2.7,17.2-6.9,24.3-12.6
	c7.1-5.7,12.7-13,16.8-21.9c4.1-8.9,6.2-19.5,6.2-32v-10.2h-21.2v11.3c0,9-1.4,16.7-4.2,23.2c-2.8,6.5-6.6,11.7-11.5,15.7
	c-4.9,4-10.7,6.9-17.3,8.8c-6.7,1.8-14.1,2.7-22.1,2.7c-8.5,0-14.7-0.4-18.6-1.1c-2.4-0.5-4.4-1-5.8-1.5c-2.2-8.8-4-18.3-5.5-28.5
	c-1.2-8.8-2.4-18.9-3.5-30.5c-1.1-11.6-1.6-24-1.6-37.4c0-13.1,0.5-25.6,1.6-37.3c1.1-11.7,2.2-21.9,3.5-30.7
	c0.2-1.6,0.5-3.1,0.7-4.6c34.1,9.2,68.2,18.4,102.3,27.7c2.7,0.7,4.8-0.2,6.2-1.9c1.8-1.7,2.6-4.3,1-7c-0.1-0.3-0.3-0.6-0.5-0.9
	c-1.3-2.2-2.3-4.6-3.4-6.9c1.9-2.1,4-4,6.5-5.4c0.4-0.2,0.7-0.4,1-0.6C191.8,45.2,192.8,36.9,186.5,35.1z M166.1,54.1
	c-19.1-5.2-38.2-10.3-57.3-15.5c20.4,1.8,40.7,4.1,61,6.9c-0.7,0.8-1.4,1.5-2.1,2.3C166.1,49.4,165.4,51.9,166.1,54.1z M113.8,26.5
	c-13.5-1.2-27-2.3-40.6-3.1l-0.4-10.9C86.4,17.6,100.1,22.2,113.8,26.5z"/>
</svg>
