<?xml version="1.0" encoding="utf-8"?>
<!-- Generator: Adobe Illustrator 21.0.0, SVG Export Plug-In . SVG Version: 6.00 Build 0)  -->
<svg version="1.1" id="Layer_1" xmlns="http://www.w3.org/2000/svg" xmlns:xlink="http://www.w3.org/1999/xlink" x="0px" y="0px"
	 viewBox="0 0 210 232.6" style="enable-background:new 0 0 210 232.6;" xml:space="preserve">
<style type="text/css">
	.st0{fill:#FFFFFF;}
	.st1{fill:#009FE3;}
	.st2{fill:#EB6012;}
	.st3{stroke:#000000;stroke-width:2.5;stroke-miterlimit:10;}
	.st4{stroke:#000000;stroke-width:3;stroke-miterlimit:10;}
</style>
<path d="M203.9,14.9c-4.3-0.6-8.7-1.1-13-1.7c-0.6-0.1-1.2,0-1.8,0.2c-1.3,0-2.7,0.7-3.9,2.1c-19.5,25-39.1,49.9-58.6,74.9
	c-16.2,0.5-32.3-3.5-48.4-5.7V-0.9L21.3,9.6H0v18h21.3v185.3H0v18.4h99.5v-18.4H78.2v-67.4h16.6l28.8,66.3c1.4,3.4,3.1,6.3,4.9,8.8
	c1.8,2.5,4,4.7,6.7,6.5c2.6,1.8,5.9,3.2,9.7,4.1c3.8,1,8.5,1.4,14.1,1.4c7.2,0,13.5-0.1,18.7-0.4c5.3-0.2,9.6-0.6,13-1.1
	c4.1-0.5,7.6-1.1,10.5-1.8v-17.3c-2.4,0.2-4.7,0.5-6.8,0.7c-1.9,0.2-3.8,0.4-5.8,0.4h-4.3l-35.3-80.4c-0.8-2.1-4.4-3.6-9.2-4.6
	c17.7-34.7,36.9-68.7,57.1-101.9c2.4,0.3,4.8,0.6,7.2,0.9c3.3,0.4,6.1-3.1,6.1-6.1C210,17.4,207.2,15.3,203.9,14.9z M112.8,108.1
	c-6.3-2.9-12.8-5.6-19.1-8.6c7.8,1.3,15.6,2.5,23.4,3C115.7,104.4,114.2,106.2,112.8,108.1z M104.5,117.8c6,2.7,11.9,5.4,17.6,8.6
	c-3.3-0.2-6.6-0.2-9.6-0.3C109.9,123.2,107.2,120.5,104.5,117.8z M131.4,117.4c-2.4-1.4-4.8-2.7-7.3-4c2-2.5,3.9-5,5.9-7.6
	c1.2,0.9,2.4,1.8,3.6,2.7c0.6,0.4,1.2,0.7,1.9,0.8C134.1,112.1,132.7,114.7,131.4,117.4z M139.8,98c-0.8-0.6-1.5-1.2-2.3-1.7
	c5.5-7,10.9-14,16.4-21c-4.4,7.9-8.7,15.8-13,23.8C140.6,98.7,140.3,98.3,139.8,98z M78.2,112.3c4.6,4.6,9.3,9.1,14,13.6h-14V112.3z
	"/>
</svg>
