<svg id="Layer_1" data-name="Layer 1" xmlns="http://www.w3.org/2000/svg" viewBox="0 0 241.8 232.65"><title>learn</title><path d="M166.66,161.5a41.78,41.78,0,0,0-13.49,11.24A42.78,42.78,0,0,0,146,186.5a70.81,70.81,0,0,0-2.64,11.9H121.16V83.11A180.91,180.91,0,0,1,146.42,27a4,4,0,0,0,1.38-3.65c-.19-3-3.79-5.17-6.83-4.27h0l-.34.11a5.46,5.46,0,0,0-1.58.91C122.64,33.57,109.74,50.22,97.5,67.36a111.12,111.12,0,0,1-24.81-15.5c-4-3.34-9.53.73-8.75,4.59a4.9,4.9,0,0,0,.36,1.93c5,12.93,8.86,26.93,12.43,40.34V198.4H53.18v15.34H188.62V156.87Q175.13,156.87,166.66,161.5Zm-46.07-108a189.69,189.69,0,0,0-7.15,19.78q-3.2-.92-6.34-2C111.46,65.19,115.91,59.23,120.59,53.47ZM101.05,79.73q2.17.82,4.37,1.56-3.76,1.33-7.45,2.82Zm-9.44-4Q88,80.87,84.33,86q-2.59-8.82-5.6-17.49A124.76,124.76,0,0,0,91.61,75.69Z"/></svg>