<?xml version="1.0" encoding="utf-8"?>
<!-- Generator: Adobe Illustrator 21.0.0, SVG Export Plug-In . SVG Version: 6.00 Build 0)  -->
<svg version="1.1" id="Layer_1" xmlns="http://www.w3.org/2000/svg" xmlns:xlink="http://www.w3.org/1999/xlink" x="0px" y="0px"
	 viewBox="0 0 404.9 312.3" style="enable-background:new 0 0 404.9 312.3;" xml:space="preserve">
<style type="text/css">
	.st0{fill:#FFFFFF;}
	.st1{fill:#009FE3;}
	.st2{fill:#EB6012;}
	.st3{stroke:#000000;stroke-width:2.5;stroke-miterlimit:10;}
	.st4{stroke:#000000;stroke-width:3;stroke-miterlimit:10;}
</style>
<image style="overflow:visible;" width="1201" height="799" xlink:href="../../Captura de pantalla 2020-01-12 a la(s) 17.39.24.png"  transform="matrix(0.4128 0 0 0.4128 -35.1153 -13.4145)">
</image>
<g>
	<g>
		<path class="st0" d="M164.6,182.4c6.3,6.4,12.5,12.9,18.8,19.3"/>
		<g>
			<path d="M160.2,186.8c6.3,6.4,12.5,12.9,18.8,19.3c5.6,5.8,14.5-3.1,8.8-8.8c-6.3-6.4-12.5-12.9-18.8-19.3
				C163.4,172.2,154.5,181,160.2,186.8L160.2,186.8z"/>
		</g>
	</g>
	<g>
		<g>
			<path d="M162.5,174.6c-14.9-1.9-31.2-7.8-46-12.5c-15.3-4.8-30.4-10.3-46-14c-7.8-1.9-11.2,10.2-3.3,12.1
				c16,3.8,31.6,9.5,47.3,14.4c15.7,5,31.6,10.5,48,12.5c3.4,0.4,6.2-3.2,6.2-6.2C168.8,177.2,165.8,175.1,162.5,174.6L162.5,174.6z
				"/>
		</g>
	</g>
	<g>
		<g>
			<path d="M67.9,166c28.3,25.8,64.1,42,92.4,67.8c5.9,5.4,14.8-3.4,8.8-8.8c-28.3-25.8-64.1-42-92.4-67.8
				C70.8,151.8,61.9,160.6,67.9,166L67.9,166z"/>
		</g>
	</g>
	<g>
		<g>
			<path d="M145.7,267.2c35.7-50.4,74.1-98.9,113.3-146.6c10.1-12.3,20.3-24.5,30.6-36.5c5.2-6.1-3.6-15-8.8-8.8
				c-40.8,47.5-79.7,96.6-117.3,146.6c-9.7,12.9-19.3,25.9-28.6,39C130.3,267.5,141.1,273.8,145.7,267.2L145.7,267.2z"/>
		</g>
	</g>
	<g>
		<g>
			<path d="M283,80.6c6.8,2,13.5,4.1,20.3,6.1c7.7,2.3,11-9.7,3.3-12.1c-6.8-2-13.5-4.1-20.3-6.1C278.6,66.2,275.3,78.3,283,80.6
				L283,80.6z"/>
		</g>
	</g>
	<g>
		<g>
			<path d="M277.9,70.6c-47.3,43.3-94.5,86.6-141.8,129.9c-5.9,5.4,2.9,14.3,8.8,8.8c47.3-43.3,94.5-86.6,141.8-129.9
				C292.7,74,283.9,65.1,277.9,70.6L277.9,70.6z"/>
		</g>
	</g>
	<g>
		<g>
			<path d="M68.1,168.4c21.4,32,47.1,61.8,65,96.1c4.5,8.6,17.4,1,13-7.6c-17.9-34.3-43.5-64.1-65-96.1
				C75.7,152.9,62.7,160.4,68.1,168.4L68.1,168.4z"/>
		</g>
	</g>
</g>
</svg>
