<?xml version="1.0" encoding="utf-8"?>
<!-- Generator: Adobe Illustrator 21.0.0, SVG Export Plug-In . SVG Version: 6.00 Build 0)  -->
<svg version="1.1" id="Layer_1" xmlns="http://www.w3.org/2000/svg" xmlns:xlink="http://www.w3.org/1999/xlink" x="0px" y="0px"
	 viewBox="0 0 404.9 312.3" style="enable-background:new 0 0 404.9 312.3;" xml:space="preserve">
<style type="text/css">
	.st0{fill:#FFFFFF;}
	.st1{fill:#009FE3;}
	.st2{fill:#EB6012;}
	.st3{stroke:#000000;stroke-width:2.5;stroke-miterlimit:10;}
	.st4{stroke:#000000;stroke-width:3;stroke-miterlimit:10;}
</style>
<image style="overflow:visible;" width="851" height="595" xlink:href="../../Captura de pantalla 2020-01-12 a la(s) 18.15.45.png"  transform="matrix(0.5533 0 0 0.5533 0 -17.4965)">
</image>
<g>
	<g>
		<path d="M77.8,117.7c30.8,60.1,61.6,120.2,92.4,180.3c3.7,7.2,14.5,0.8,10.8-6.3c-30.8-60.1-61.6-120.2-92.4-180.3
			C84.9,104.2,74.1,110.5,77.8,117.7L77.8,117.7z"/>
	</g>
</g>
<g>
	<g>
		<path d="M181.4,296.4c1.5-6.3,3-12.5,4.4-18.8c-2,1.5-4,3.1-6,4.6c7.7,0.2,14.9,1.7,22.1,4.4c7.6,2.8,10.8-9.3,3.3-12.1
			c-8.2-3-16.7-4.6-25.4-4.8c-2.6-0.1-5.4,2-6,4.6c-1.5,6.3-3,12.5-4.4,18.8C167.5,300.9,179.5,304.2,181.4,296.4L181.4,296.4z"/>
	</g>
</g>
<g>
	<g>
		<path d="M121.3,104.6c24.6,61,51.4,121.1,80.4,180.2c3.5,7.2,14.3,0.9,10.8-6.3c-28.5-58.1-55-117.2-79.1-177.2
			C130.4,93.9,118.3,97.1,121.3,104.6L121.3,104.6z"/>
	</g>
</g>
<g>
	<g>
		<path d="M77.6,118.4c43,52.2,83.4,106.5,121,162.7c4.5,6.7,15.3,0.4,10.8-6.3c-38.2-57.1-79.2-112.2-123-165.2
			C81.4,103.4,72.6,112.2,77.6,118.4L77.6,118.4z"/>
	</g>
</g>
</svg>
