<?xml version="1.0" encoding="utf-8"?>
<!-- Generator: Adobe Illustrator 21.0.0, SVG Export Plug-In . SVG Version: 6.00 Build 0)  -->
<svg version="1.1" id="Layer_1" xmlns="http://www.w3.org/2000/svg" xmlns:xlink="http://www.w3.org/1999/xlink" x="0px" y="0px"
	 viewBox="0 0 402.8 312.3" style="enable-background:new 0 0 402.8 312.3;" xml:space="preserve">
<style type="text/css">
	.st0{fill:#FFFFFF;}
	.st1{fill:#009FE3;}
	.st2{fill:#EB6012;}
	.st3{stroke:#000000;stroke-width:2.5;stroke-miterlimit:10;}
	.st4{stroke:#000000;stroke-width:3;stroke-miterlimit:10;}
</style>
<image style="overflow:visible;" width="1201" height="799" xlink:href="../../Captura de pantalla 2020-01-12 a la(s) 17.39.24.png"  transform="matrix(0.4128 0 0 0.4128 0 0)">
</image>
<g>
	<g>
		<g>
			<path d="M87.2,58.4c16.4,72.2,40.3,142.5,71.1,209.8c3.3,7.3,14.1,1,10.8-6.3c-30.3-66.3-53.7-135.7-69.8-206.8
				C97.5,47.2,85.5,50.5,87.2,58.4L87.2,58.4z"/>
		</g>
	</g>
	<g>
		<g>
			<path d="M88.6,58.8c31.7,64.4,69.7,125.2,113.3,182.2c2.1,2.7,5.4,4.1,8.6,2.2c2.7-1.5,4.3-5.9,2.2-8.6
				c-43.6-57-81.6-117.8-113.3-182.2C95.9,45.2,85.1,51.6,88.6,58.8L88.6,58.8z"/>
		</g>
	</g>
	<g>
		<g>
			<path d="M95.6,60.1c66-11.5,134.4-9.4,199.6,6.1c18.5,4.4,36.8,9.9,54.7,16.4c7.6,2.7,10.8-9.3,3.3-12.1
				c-64.6-23.4-134-33.5-202.6-29.4c-19.6,1.2-39,3.5-58.3,6.9C84.4,49.4,87.8,61.4,95.6,60.1L95.6,60.1z"/>
		</g>
	</g>
	<g>
		<g>
			<path d="M351,74.7c-52.6,49.2-101.9,101.9-147.3,157.7c-12.8,15.7-25.2,31.6-37.4,47.8c3.6,0,7.2,0,10.8,0
				c-13.1-24.1-33-43.1-52.6-61.9c-9.9-9.4-19.7-18.9-28.7-29.2c-4.3-4.9-8.3-10-11.9-15.3c-1.8-2.7-3.6-5.4-5.2-8.3
				c-1.7-2.9-4.1-6.4-0.5-8.4c2.9-1.6,6.7-2.1,9.8-3c3.9-1.1,7.8-2.2,11.8-3.2c7.6-2,15.3-3.8,22.9-5.5c15.4-3.5,30.9-6.5,46.5-9.4
				c30.8-5.7,61.7-10.9,92.3-17.9c34.4-7.9,68.2-18.3,100-33.8c5.5-2.7,2.9-12.1-3.2-11.6c-2.8,0.2-5.5-0.4-8.3-0.2
				c-8,0.6-8,13.1,0,12.5c2.8-0.2,5.5,0.4,8.3,0.2c-1.1-3.9-2.1-7.8-3.2-11.6C296,102.4,230,112,165.9,123.9
				c-16.1,3-32.2,6.1-48.2,9.8c-8,1.8-15.9,3.7-23.8,5.8c-7.2,1.9-15.2,3.4-22,6.8c-16.5,8.3-4.1,26.7,3.3,36.9
				c8.2,11.5,17.8,21.9,27.8,31.8c22.6,22.4,47.8,43.1,63.2,71.5c2.5,4.5,8.1,3.5,10.8,0c42.6-56.6,89.1-110.2,139-160.6
				c14.3-14.4,28.9-28.6,43.7-42.4C365.7,78,356.9,69.2,351,74.7L351,74.7z"/>
		</g>
	</g>
</g>
</svg>
