<?xml version="1.0" encoding="utf-8"?>
<!-- Generator: Adobe Illustrator 21.0.0, SVG Export Plug-In . SVG Version: 6.00 Build 0)  -->
<svg version="1.1" id="Layer_1" xmlns="http://www.w3.org/2000/svg" xmlns:xlink="http://www.w3.org/1999/xlink" x="0px" y="0px"
	 viewBox="0 0 286.9 312.3" style="enable-background:new 0 0 286.9 312.3;" xml:space="preserve">
<style type="text/css">
	.st0{fill:#FFFFFF;}
	.st1{fill:#009FE3;}
	.st2{fill:#EB6012;}
	.st3{stroke:#000000;stroke-width:2.5;stroke-miterlimit:10;}
	.st4{stroke:#000000;stroke-width:3;stroke-miterlimit:10;}
	.st5{font-family:'PTSans-Bold';}
	.st6{font-size:12px;}
</style>
<g>
	<g>
		<g>
			<path d="M77.3,83.8c30.8,60.1,61.6,120.2,92.4,180.3c4.4,8.6,17.4,1,13-7.6c-30.8-60.1-61.6-120.2-92.4-180.3
				C85.9,67.7,72.9,75.2,77.3,83.8L77.3,83.8z"/>
		</g>
	</g>
	<g>
		<g>
			<path d="M183.2,262.3c1.5-6.3,3-12.5,4.4-18.8c-2.4,1.8-4.8,3.7-7.2,5.5c7.5,0.2,14.7,1.7,21.7,4.3c9.1,3.4,13-11.1,4-14.5
				c-8.3-3.1-16.9-4.6-25.7-4.9c-3.2-0.1-6.5,2.4-7.2,5.5c-1.5,6.3-3,12.5-4.4,18.8C166.5,267.7,180.9,271.7,183.2,262.3
				L183.2,262.3z"/>
		</g>
	</g>
	<g>
		<g>
			<path d="M120.7,70.4c24.6,61.1,51.4,121.3,80.5,180.5c4.3,8.7,17.2,1.1,13-7.6c-28.5-58-54.9-117-79-176.9
				c-1.5-3.7-5-6.4-9.2-5.2C122.4,62.2,119.2,66.6,120.7,70.4L120.7,70.4z"/>
		</g>
	</g>
	<g>
		<g>
			<path d="M77.4,84.8c43,52.1,83.3,106.3,120.8,162.4c5.3,8,18.3,0.5,13-7.6C172.9,182.5,131.8,127.3,88,74.2
				C81.8,66.8,71.3,77.4,77.4,84.8L77.4,84.8z"/>
		</g>
	</g>
	<text transform="matrix(1 0 0 1 37.1643 76.4758)" class="st5 st6">France</text>
	<text transform="matrix(1 0 0 1 135.1665 47.808)"><tspan x="0" y="0" class="st5 st6">Czech</tspan><tspan x="0" y="14" class="st5 st6">Republic</tspan></text>
	<text transform="matrix(1 0 0 1 218.5002 255.808)" class="st5 st6">Kenya</text>
	<text transform="matrix(1 0 0 1 113.7725 243.4539)"><tspan x="0" y="0" class="st5 st6">Uganda     </tspan><tspan x="4.2" y="14" class="st5 st6">Rwanda   </tspan><tspan x="10.6" y="28" class="st5 st6">Burundi </tspan></text>
</g>
</svg>
