<?xml version="1.0" encoding="utf-8"?>
<!-- Generator: Adobe Illustrator 21.0.0, SVG Export Plug-In . SVG Version: 6.00 Build 0)  -->
<svg version="1.1" id="Layer_1" xmlns="http://www.w3.org/2000/svg" xmlns:xlink="http://www.w3.org/1999/xlink" x="0px" y="0px"
	 viewBox="0 0 402.8 312.3" style="enable-background:new 0 0 402.8 312.3;" xml:space="preserve">
<style type="text/css">
	.st0{fill:#FFFFFF;}
	.st1{fill:#009FE3;}
	.st2{fill:#EB6012;}
	.st3{stroke:#000000;stroke-width:2.5;stroke-miterlimit:10;}
	.st4{stroke:#000000;stroke-width:3;stroke-miterlimit:10;}
	.st5{font-family:'PTSans-Bold';}
	.st6{font-size:12px;}
</style>
<g>
	<g>
		<g>
			<g>
				<path d="M65.1,43.6c14.1,61.7,34.8,122.1,58.6,180.7c6.5,16.1,13.4,32,20.6,47.7c1.7,3.7,7,4.5,10.3,2.7
					c3.8-2.2,4.4-6.6,2.7-10.3c-25.9-56.7-47.6-115.6-64.9-175.6c-4.7-16.3-9-32.7-12.8-49.2C77.4,30.2,63,34.1,65.1,43.6L65.1,43.6
					z"/>
			</g>
		</g>
		<g>
			<g>
				<path d="M66.6,44.2c31.7,64.4,69.7,125.2,113.3,182.2c2.5,3.2,6.4,4.9,10.3,2.7c3.2-1.8,5.1-7.1,2.7-10.3
					c-43.6-57-81.6-117.8-113.3-182.2C75.3,28,62.4,35.6,66.6,44.2L66.6,44.2z"/>
			</g>
		</g>
		<g>
			<g>
				<path d="M75.1,46.1C141.9,34.4,211.4,38,277.2,54c18.8,4.5,37.3,10.1,55.5,16.7c9.1,3.3,13-11.2,4-14.5
					c-65.9-23.9-137-34.9-207-31.2c-19.6,1-39.2,3.3-58.6,6.6C61.6,33.3,65.6,47.8,75.1,46.1L75.1,46.1z"/>
			</g>
		</g>
		<g>
			<g>
				<path d="M329.4,62.5c-52,48.6-102,99.5-147.5,154.3c-12.9,15.6-25.4,31.4-37.6,47.6c4.3,0,8.6,0,13,0
					c-12.9-23.7-32.4-42.6-51.7-61.1c-9.7-9.3-19.4-18.5-28.3-28.6c-4.4-5-8.6-10.1-12.4-15.5c-1.9-2.7-10.1-12.6-8.2-15.6
					c1.1-1.7,6.5-2.3,8.3-2.8c4-1.1,8-2.2,12-3.3c7.5-1.9,15-3.7,22.5-5.3c15.3-3.4,30.8-6.2,46.3-8.8c30.8-5.3,61.8-9.7,92.4-16.2
					c34.5-7.3,68.5-17.3,100.3-32.9c7.4-3.6,2.8-13.3-3.8-14c-0.2,0-0.4,0-0.7-0.1c1.3,0.3,2.5,0.7,3.8,1c0.6,0.4-1.6-2.2-2.1-2.7
					c-1.9-1.8-4.1-2.4-6.6-2.7c-4-0.4-7.5,3.8-7.5,7.5c0,4.4,3.5,7.1,7.5,7.5c0.2,0,0.4,0,0.7,0.1c-1.3-0.3-2.5-0.7-3.8-1
					c-0.6-0.4,1.6,2.2,2.1,2.7c1.9,1.8,4.1,2.4,6.6,2.7c-1.3-4.7-2.5-9.3-3.8-14c-59,28.9-125.1,36.6-189.1,47.5
					c-16.1,2.7-32.1,5.7-48,9.2c-8.1,1.8-16.2,3.7-24.2,5.9c-6.8,1.8-15,3.1-21,7c-15.6,10.1-1.8,29,5.9,39.4
					c8.3,11.3,17.8,21.5,27.8,31.3c22.2,21.9,46.8,42.4,62,70.2c2.9,5.4,9.8,4.2,13,0c42.1-55.9,89.2-107.8,139-156.9
					c14.4-14.2,29-28.1,43.7-41.9C347,66.5,336.4,55.9,329.4,62.5L329.4,62.5z"/>
			</g>
		</g>
	</g>
	<text transform="matrix(1 0 0 1 160.4271 283.2541)" class="st5 st6">Chile</text>
	<text transform="matrix(1 0 0 1 348.3103 70.9208)"><tspan x="0" y="0" class="st5 st6">Czech</tspan><tspan x="0" y="14" class="st5 st6">Republic</tspan></text>
	<text transform="matrix(1 0 0 1 22.3089 36.009)" class="st5 st6">Canada</text>
	<text transform="matrix(1 0 0 1 10.6422 119.5875)"><tspan x="0" y="0" class="st5 st6">United</tspan><tspan x="0" y="14" class="st5 st6">States</tspan></text>
	<text transform="matrix(1 0 0 1 200.787 233.2546)" class="st5 st6">Brasil</text>
</g>
</svg>
