<?xml version="1.0" encoding="utf-8"?>
<!-- Generator: Adobe Illustrator 21.0.0, SVG Export Plug-In . SVG Version: 6.00 Build 0)  -->
<svg version="1.1" id="Layer_1" xmlns="http://www.w3.org/2000/svg" xmlns:xlink="http://www.w3.org/1999/xlink" x="0px" y="0px"
	 viewBox="0 0 402.8 312.3" style="enable-background:new 0 0 402.8 312.3;" xml:space="preserve">
<style type="text/css">
	.st0{fill:#FFFFFF;}
	.st1{fill:#009FE3;}
	.st2{fill:#EB6012;}
	.st3{stroke:#000000;stroke-width:2.5;stroke-miterlimit:10;}
	.st4{stroke:#000000;stroke-width:3;stroke-miterlimit:10;}
	.st5{font-family:'PTSans-Bold';}
	.st6{font-size:12px;}
	.st7{font-size:8px;}
	.st8{font-size:4.7803px;}
	.st9{font-size:6px;}
</style>
<g>
	<g>
		<path class="st0" d="M176.3,170.2c6.3,6.4,12.5,12.9,18.8,19.3"/>
		<g>
			<path d="M171.9,174.6c6.3,6.4,12.5,12.9,18.8,19.3c5.6,5.8,14.5-3.1,8.8-8.8c-6.3-6.4-12.5-12.9-18.8-19.3
				C175.1,160,166.3,168.9,171.9,174.6L171.9,174.6z"/>
		</g>
	</g>
	<g>
		<g>
			<path d="M174.3,162.5c-14.9-1.9-31.2-7.8-46-12.5c-15.3-4.8-30.4-10.3-46-14c-7.8-1.9-11.2,10.2-3.3,12.1
				c16,3.8,31.6,9.5,47.3,14.4c15.7,5,31.6,10.5,48,12.5c3.4,0.4,6.2-3.2,6.2-6.2C180.5,165,177.6,162.9,174.3,162.5L174.3,162.5z"
				/>
		</g>
	</g>
	<g>
		<g>
			<path d="M79.6,153.9c28.3,25.8,64.1,42,92.4,67.8c5.9,5.4,14.8-3.4,8.8-8.8c-28.3-25.8-64.1-42-92.4-67.8
				C82.5,139.6,73.7,148.4,79.6,153.9L79.6,153.9z"/>
		</g>
	</g>
	<g>
		<g>
			<path d="M157.5,255.1c35.7-50.4,74.1-98.9,113.3-146.6c10.1-12.3,20.3-24.5,30.6-36.5c5.2-6.1-3.6-15-8.8-8.8
				c-40.8,47.5-79.7,96.6-117.3,146.6c-9.7,12.9-19.3,25.9-28.6,39C142,255.4,152.9,261.6,157.5,255.1L157.5,255.1z"/>
		</g>
	</g>
	<g>
		<g>
			<path d="M294.7,68.4c6.8,2,13.5,4.1,20.3,6.1c7.7,2.3,11-9.7,3.3-12.1c-6.8-2-13.5-4.1-20.3-6.1C290.3,54.1,287,66.1,294.7,68.4
				L294.7,68.4z"/>
		</g>
	</g>
	<g>
		<g>
			<path d="M289.7,58.4c-47.3,43.3-94.5,86.6-141.8,129.9c-5.9,5.4,2.9,14.3,8.8,8.8c47.3-43.3,94.5-86.6,141.8-129.9
				C304.5,61.8,295.6,53,289.7,58.4L289.7,58.4z"/>
		</g>
	</g>
	<g>
		<g>
			<path d="M76.1,148.7c11.5,17.3,23.7,34.1,35.5,51.2c11.7,17,23.7,34.1,33.3,52.5c4.5,8.6,17.4,1,13-7.6
				c-9.6-18.3-21.6-35.5-33.3-52.5c-11.8-17.1-23.9-33.9-35.5-51.2C83.7,133.1,70.7,140.6,76.1,148.7L76.1,148.7z"/>
		</g>
	</g>
	<text transform="matrix(1 0 0 1 33.9758 139.3499)" class="st5 st6">Mexico</text>
	<text transform="matrix(1 0 0 1 120.9764 262.079)" class="st5 st6">Peru</text>
	<text transform="matrix(1 0 0 1 120.976 132.3489)"><tspan x="0" y="0" class="st5 st7">Dominican</tspan><tspan x="0" y="10" class="st5 st7">Republic</tspan></text>
	<text transform="matrix(1 0 0 1 152.9762 153.098)" class="st5 st7">Trinidad</text>
	<text transform="matrix(1 0 0 1 145.0606 220.4256)" class="st5 st8">Colombia</text>
	<text transform="matrix(1 0 0 1 132.0605 176.6755)" class="st5 st9">Venezuela</text>
	<text transform="matrix(1 0 0 1 245.9532 57.183)" class="st5 st6">England</text>
	<text transform="matrix(1 0 0 1 324.9778 80.3492)"><tspan x="0" y="0" class="st5 st6">Czech</tspan><tspan x="0" y="14" class="st5 st6">Republic</tspan></text>
</g>
</svg>
