<svg id="Layer_1" data-name="Layer 1" xmlns="http://www.w3.org/2000/svg" viewBox="0 0 241.8 232.65"><defs><style>.cls-1{fill:#1d1d1b;}</style></defs><title>mosaic</title><path class="cls-1" d="M111.59,209c-28.42,2.78-57,2.22-85.48,1.62-9.66-.2-9.65,14.8,0,15,28.51.6,57.06,1.16,85.48-1.62,4-.39,7.5-3.16,7.5-7.5,0-3.75-3.44-7.9-7.5-7.5Z"/><path d="M143.42,97.87l-2.08-3.06c13.89-23.37,27.36-47,40.65-70.71,4.73-8.43-8.23-16-13-7.57-12.13,21.64-24.39,43.21-37,64.58l-.67-1L88.14,15.8h-68v7.37L88.81,127.69,96.44,139q-14.54,22.62-30,44.66L21,209.72c-8.37,4.8-.83,17.76,7.57,13l46.82-26.82a7.15,7.15,0,0,0,3-3.16q14-19.77,27.12-40.07l45.62,69.19h71v-7.37Z"/></svg>