<svg id="Layer_1" data-name="Layer 1" xmlns="http://www.w3.org/2000/svg" viewBox="0 0 241.8 232.65"><title>mosaic</title><path d="M169.93,166.54a44.77,44.77,0,0,0-14.46,12,45.84,45.84,0,0,0-7.65,14.74A75.87,75.87,0,0,0,145,206.08H121.18V82.56a193.84,193.84,0,0,1,27.07-60.09,4.29,4.29,0,0,0,1.48-3.91c-.2-3.21-4.06-5.54-7.32-4.57h0l-.36.12a5.85,5.85,0,0,0-1.69,1c-17.56,14.38-31.37,32.22-44.49,50.58A119.07,119.07,0,0,1,69.24,49.07C64.92,45.49,59,49.85,59.87,54a5.25,5.25,0,0,0,.38,2.07c5.38,13.85,9.49,28.86,13.31,43.22V206.08H48.34v16.44H193.46V161.58Q179,161.58,169.93,166.54ZM120.57,50.8A203.25,203.25,0,0,0,112.91,72q-3.43-1-6.79-2.16C110.78,63.35,115.55,57,120.57,50.8ZM99.63,78.94q2.32.88,4.68,1.67-4,1.42-8,3ZM89.52,74.6q-3.9,5.55-7.81,11.09-2.77-9.45-6-18.74A133.68,133.68,0,0,0,89.52,74.6Z"/></svg>