<svg id="Layer_1" data-name="Layer 1" xmlns="http://www.w3.org/2000/svg" viewBox="0 0 241.8 231.99"><title>mosaic</title><path d="M209.48,27.22l-11.63-1.48a3.87,3.87,0,0,0-1.62.14,4.48,4.48,0,0,0-3.46,1.91L140.23,94.86c-14.5.41-28.93-3.12-43.35-5.1V13l-51,9.36H26.81V38.56H45.86v166H26.81V221h89.12V204.53H96.88V144.15h14.85l25.83,59.41a42,42,0,0,0,4.36,7.91,23.55,23.55,0,0,0,6,5.81,26.84,26.84,0,0,0,8.72,3.71,52.84,52.84,0,0,0,12.59,1.29q9.69,0,16.79-.32t11.62-1a75.35,75.35,0,0,0,9.36-1.61v-15.5q-3.23.33-6.14.65a41.35,41.35,0,0,1-5.17.32h-3.88l-31.64-72c-.72-1.91-3.91-3.23-8.27-4.14C167.75,97.66,185,67.19,203,37.41l6.47.82c3,.38,5.51-2.8,5.51-5.51C215,29.43,212.45,27.59,209.48,27.22Zm-81.63,83.44c-5.69-2.58-11.44-5-17.1-7.68a207.82,207.82,0,0,0,21,2.73Zm-7.37,8.7c5.34,2.4,10.63,4.87,15.75,7.66-3-.14-5.91-.22-8.59-.26Q124.11,123,120.48,119.36Zm24-.32q-3.22-1.86-6.54-3.54l5.31-6.77,3.25,2.46a4,4,0,0,0,1.69.72Q146.34,115.46,144.5,119Zm7.58-17.37L150,100.1l14.71-18.79q-5.9,10.59-11.61,21.28A8.2,8.2,0,0,0,152.08,101.66Zm-55.2,12.83c4.15,4.08,8.36,8.12,12.5,12.22H96.88Z"/></svg>