<svg id="Layer_1" data-name="Layer 1" xmlns="http://www.w3.org/2000/svg" viewBox="0 0 241.8 231.99"><title>mosaic</title><path d="M102.84,42A34.48,34.48,0,0,1,106,34.52L118.4,32l20.19-4.2c2.16,10.2,3.84,20.41,5,30.38a6.57,6.57,0,0,0,5.37,6,6.89,6.89,0,0,0,2.15.34,7.57,7.57,0,0,0,3.36-.82c12.62-6.23,25.74-11.56,37.06-16.06,4.48-1.78,5.15-6,3.88-9.22-1.46-3.67-5.58-6.55-10.34-4.65-8.36,3.33-18.11,7.29-27.75,11.68-1.41-9.61-3.22-19.13-5.39-28.33a7.51,7.51,0,0,0-1.68-3.3A7,7,0,0,0,143,11.21Q129.07,14.06,115.15,17,102,19.75,88.81,22.46a15.69,15.69,0,0,0-2.88.58q-14.66,4.51-23.51,12.4A45.26,45.26,0,0,0,49.7,54a67.37,67.37,0,0,0-3.86,23.19q0,17.07,6.76,27.7a61,61,0,0,0,17.07,17.71,132.77,132.77,0,0,0,22.06,12.24,203.53,203.53,0,0,1,22.06,11.27,61.69,61.69,0,0,1,17.07,14.65q6.76,8.54,6.76,22.71a79.22,79.22,0,0,1-.64,10.95q-.65,4.51-1.29,7.41a45.12,45.12,0,0,1-1.93,5.8l-7.41.64q-3.22.33-6.92.48t-6.92.16H107a38.58,38.58,0,0,1-4.83-.32,71,71,0,0,0-4.51-21.9,55,55,0,0,0-10.63-17.39,49.4,49.4,0,0,0-16.42-11.76,57.31,57.31,0,0,0-22.22-4.67V225l27.05-5.15A137.11,137.11,0,0,0,90,223.19Q99.29,225,115.07,225q37,0,57.65-15.62t20.61-49.11a49.18,49.18,0,0,0-5.64-23.67,64.68,64.68,0,0,0-14.49-18.2,92.33,92.33,0,0,0-19.48-13,184.11,184.11,0,0,0-20.61-8.86Q116,91,108.47,82.94t-7.57-25.12a55.78,55.78,0,0,1,.64-8.86Q102.19,44.94,102.84,42Z"/></svg>