<svg id="Layer_1" data-name="Layer 1" xmlns="http://www.w3.org/2000/svg" viewBox="0 0 241.8 232.65"><title>mosaic</title><path d="M208.44,43.82c-34-9.79-68.09-19.47-101.32-31.76a4.85,4.85,0,0,0-4.13.16c-3.62.75-7.08,1.63-10.37,2.64q-18.9,5.86-31.11,18.9T43.45,67.21q-5.86,20.41-5.85,49.5t5.69,49.67Q49,187,60.84,200a68,68,0,0,0,29.6,18.9q17.72,5.85,41.81,5.85a94.08,94.08,0,0,0,26.59-3.68,63.11,63.11,0,0,0,22.24-11.54,55.55,55.55,0,0,0,15.39-20.07q5.68-12.21,5.69-29.27v-9.37h-19.4v10.37q0,12.38-3.85,21.24a37.76,37.76,0,0,1-10.54,14.38,42,42,0,0,1-15.89,8,76.83,76.83,0,0,1-20.24,2.51q-11.71,0-17.06-1a45.09,45.09,0,0,1-5.35-1.34,258.51,258.51,0,0,1-5-26.09q-1.68-12-3.18-27.93t-1.51-34.29q0-18.06,1.51-34.12t3.18-28.1c.2-1.43.42-2.84.64-4.23l93.67,25.33a5.23,5.23,0,0,0,5.67-1.74,5.83,5.83,0,0,0,.46-7.23c-1.21-2-2.13-4.19-3.14-6.32a24.11,24.11,0,0,1,5.92-5,6.36,6.36,0,0,0,.88-.59C213.27,53,214.18,45.47,208.44,43.82ZM189.72,61.2,137.22,47q28,2.46,55.83,6.35l-1.91,2.08A6.08,6.08,0,0,0,189.72,61.2ZM141.85,36q-18.54-1.71-37.14-2.83l-.37-10C116.74,27.77,129.26,32,141.85,36Z"/></svg>