<svg id="Layer_1" data-name="Layer 1" xmlns="http://www.w3.org/2000/svg" viewBox="0 0 241.8 232.65"><title>mosaic</title><path d="M189.5,29.16q-18.9-14.05-58.22-14.05c-.61,0-1.78.06-3.5.17s-3.76.17-6.1.17-4.83.06-7.47.17-5.08.17-7.31.17H33.4V35l48.82-.93A31.23,31.23,0,0,0,77.62,39C69.95,49.17,71.81,62.72,72,74.69q.7,42.8,1.4,85.6l.69,41.84H44.82v19.4h88.76v-19.4H94.16c3.51-4.12,7-8.24,10.62-12.28a7.31,7.31,0,0,0,.52-.66,6.1,6.1,0,0,0,1.33-3.8l1.1-47.85c4,.49,14,1.67,14,1.67l1.07,0h8.53q39.62,0,58.37-14.05t18.74-47.84Q208.39,43.21,189.5,29.16Zm-103,162.52q-.69-42.13-1.38-84.25c-.27-16.45-1.18-33-.74-49.48.16-6,1.85-11.06,6.63-14.91a31.49,31.49,0,0,1,6.32-3.85L94.06,183Q90.27,187.3,86.55,191.68Zm64.4-96.1q-.76,7.87-1.68,13.22-1.22,6-2.44,10.71a20.31,20.31,0,0,1-4.27,1,51,51,0,0,1-11.28,1q-5.14,0-9.6-.25s-8.56-1-13.49-4q.95-41.11,1.9-82.23a6.89,6.89,0,0,0-.12-1.47l3.33-.06a77.65,77.65,0,0,1,8.23-1q4.57-.33,9.75-.33a55.34,55.34,0,0,1,6.25.33q2.89.34,5,.67,2.44.67,4.27,1,1.22,5,2.44,11.38.92,5.69,1.68,13.72t.76,18.4Q151.7,87.71,150.94,95.57Z"/></svg>