<svg id="Layer_1" data-name="Layer 1" xmlns="http://www.w3.org/2000/svg" viewBox="0 0 241.8 232.65"><title>mosaic</title><path d="M104.92,17.45a6.54,6.54,0,0,0-.74-.26,165.36,165.36,0,0,0-84-1.17,5,5,0,0,0-3.94,4,5.19,5.19,0,0,0-.19,3.85q3.2,10.39,7,20.56C17.84,46.08,11.22,48,11,54.38c-.23,5.77,5.49,11.21,9.3,15,8.51,8.41,19.36,14.71,26,24.86a5.76,5.76,0,0,0,9.82,0,494,494,0,0,1,48.81-63.48V202.82H75.27v19.32H190.53V202.82H160.88V36.59h18.65a67.09,67.09,0,0,0,2.33,13.16,37.25,37.25,0,0,0,7.5,14.16q5.5,6.67,15.32,11.49t26.15,4.83v-63H104.92Zm-44,49.72q-7.4-8.69-14.18-17.84c12-3.19,24.1-6.12,35.81-10.09Q71.22,52.82,60.88,67.16ZM51.76,80.22q-4.28-8-8.12-16.25,5.11,6.49,10.52,12.75C53.36,77.89,52.55,79,51.76,80.22ZM88,25.12c-15.51,6.39-32.1,9.94-48.36,14.35q-4.76-6.91-9.18-14.07A153,153,0,0,1,88,25.12ZM24.16,56.82l-.41-.53c.35-.15.65-.28.81-.34.9-.32,1.81-.62,2.72-.92q1.86,4.49,3.85,8.93c-1.47-1.32-2.91-2.66-4.27-4.09C25.93,58.88,25,57.88,24.16,56.82Z"/></svg>