<svg id="Layer_1" data-name="Layer 1" xmlns="http://www.w3.org/2000/svg" viewBox="0 0 241.8 232.65"><title>mosaic</title><path d="M135.37,18.77,94,26.21l-2.3,6.87a10.9,10.9,0,0,0-.43,1.08C80.86,64.9,71.12,91.66,60.68,122.36c-7.57,22.26-15,44.56-22.65,66.79L17.53,193a5.92,5.92,0,0,0-1.05.3c-4.06.28-7.54,5.19-3.82,8.77,5.84,5.62,12.45,10.36,18.29,16a4.86,4.86,0,0,0,3.51,1.63H88.8V200.88H45.29l.82-2.35L56,196.68a5.6,5.6,0,0,0,1.58-.54A5.06,5.06,0,0,0,61,192.86q6.68-18.38,12.68-36.95h52.63l23,63.72h58.87v-6.79ZM32.48,205.12l-4-3.32,5.5-1Zm20.41-18.55c-.59.11-2.19.22-2.78.33,7-20.38,13.81-40.82,20.74-61.22,2.35-6.92,5.68-13.85,8-20.79C71.18,132.39,62.59,159.64,52.89,186.57Zm26.7-49.42Q89,106.28,96.94,75l.09.26.17-.49,22.32,62.43Z"/></svg>