<svg id="Layer_1" data-name="Layer 1" xmlns="http://www.w3.org/2000/svg" viewBox="0 0 241.8 232.65"><title>mosaic</title><path d="M144.32,19.42V36.48h17.16v-.06h17.59l-13,5.22a4.76,4.76,0,0,0-2.42,2.1,4.91,4.91,0,0,0-.81,1.26c-11,24.59-19.56,50.56-27.05,75.41l-30-101H27.89V36.48H44.61l64.91,141.19-3.68,8.7a69.41,69.41,0,0,1-8.53,15.06q-4.85,6.35-13.89,6.36-6,0-8.2-3.68a14.88,14.88,0,0,1-2.17-7.7V186H55.32v10a50.82,50.82,0,0,0,.84,8.53A24.2,24.2,0,0,0,60,214a25,25,0,0,0,8.53,7.7q5.52,3.18,14.89,3.18c3.42,0,8.75-.1,11.08-.75h0a3,3,0,0,0,.88-.36l1.36-.56c8.21-6.56,16.9-12.33,25.32-17.92s17.3-11.49,25.68-18.18a4.77,4.77,0,0,0,1.82-4.14,4.88,4.88,0,0,0,0-1.45c-1.55-9.15-3.34-18.46-5.32-27.7a599.17,599.17,0,0,0,35.29-71.88c5.78-14.09,11.14-28.81,16-43.76a4.17,4.17,0,0,0,.17-1.71h.88l-.18.06h17.57V19.42ZM123.53,159.76l-1.32-49.4,8.43,27.28ZM118.62,197l-3.11,2.28c7.05-10.13,14-20.87,21.41-33.15,1,5,1.92,10.08,2.78,15C132.55,186.77,125.48,192,118.62,197ZM155.9,111.1c-4.65,9.62-9.63,19.23-14.84,28.66l-.45-1.88c5.88-20,12.36-41.23,19.95-61.72,3.5-9.45,7-18,10.59-26.17L183,45.26A587.88,587.88,0,0,1,155.9,111.1Z"/></svg>