<svg id="Layer_1" data-name="Layer 1" xmlns="http://www.w3.org/2000/svg" viewBox="0 0 841.89 424.48"><title>SHARE</title><path d="M162.68,64.31h10.65l28.51-5.23v44.21a19.85,19.85,0,0,1,5.77-5.05,34.4,34.4,0,0,1,8.21-3.61A43.51,43.51,0,0,1,228.73,93a50.13,50.13,0,0,1,8.39.72,25.2,25.2,0,0,1,7.76,2.62,15.6,15.6,0,0,1,5.68,5.14,15,15,0,0,1,2.17,8.48v56.12h10.65v9.2H224.22v-71.1a4.79,4.79,0,0,1-1.08-.18,17.23,17.23,0,0,0-4-.36,14.57,14.57,0,0,0-6.77,1.53,23.52,23.52,0,0,0-5.14,3.52,21.56,21.56,0,0,0-3.52,4.06,35.25,35.25,0,0,0-1.89,3.16v50.17h10.65v9.2H162.68v-9.2h10.65V73.33H162.68Z"/><path d="M346,166.27h2.35a29,29,0,0,0,3.25-.18l4-.36v8.66q-3.25.54-6.32.9-2.53.36-5.41.54t-4.69.18q-8.84,0-13.36-3.25a20.8,20.8,0,0,1-6.5-7,31.94,31.94,0,0,1-9.11,8,23.17,23.17,0,0,1-11.82,3q-12.28,0-18.23-4.6t-6-16q0-4,.09-7.58a59.44,59.44,0,0,1,.45-6.32q.36-3.25.72-5.77l41.87-10.29q-.18-5.23-.36-9.65t-.36-7.49q-.36-3.61-.54-6.5a12.08,12.08,0,0,0-1.62-.36q-.91-.18-2.71-.36t-4.33-.18q-1.62,0-3.07.09c-1,.06-1.93.15-2.89.27a48.5,48.5,0,0,1-1.8,6,21.29,21.29,0,0,1-4,6.68,23,23,0,0,1-7.13,5.41,24.74,24.74,0,0,1-11.28,2.26V95.16L289,94.08q5.23-.36,11.19-.72T311.74,93q11.73,0,18.5,2a18.69,18.69,0,0,1,10.29,6.86q3.52,4.87,4.51,13A171.48,171.48,0,0,1,346,135Zm-41.87.72a14.22,14.22,0,0,0,6.95-4.6,54.29,54.29,0,0,0,6.41-8.93V134.33l-13.72,3.79q-.36,2.89-.54,5.87t-.18,5.87q0,3.61.09,6.68a43.94,43.94,0,0,0,.45,5.41Q303.8,164.64,304.16,167Z"/><path d="M363.72,97.51h10.65l27.25-5.23v11.55a12.48,12.48,0,0,1,1.35-2.26A15.73,15.73,0,0,1,406.76,98a27.9,27.9,0,0,1,6.86-3.43A32,32,0,0,1,424.35,93q4,0,6.23.18t3.52.36a7.5,7.5,0,0,1,1.8.36v34.83a21.18,21.18,0,0,1-10.83-2.53,22.3,22.3,0,0,1-7-6.32,31.28,31.28,0,0,1-4.15-7.94,45.41,45.41,0,0,1-2-7.4,12.73,12.73,0,0,0-3.07,2.44,26.68,26.68,0,0,0-2.62,3.25q-1.17,1.72-2.08,3.25a18.92,18.92,0,0,0-1.26,2.44v50.17h10.65v9.2H363.72v-9.2h10.65V106.53H363.72Z"/><path d="M485.89,93a59.82,59.82,0,0,1,16.42,1.89,21.53,21.53,0,0,1,16.06,17A72.77,72.77,0,0,1,520,128.55q0,3.07-.18,5.32t-.36,3.7c-.12,1.2-.24,2.11-.36,2.71H474.52q.18,6.14.72,11.1t1.08,8.57q.72,4.33,1.45,7.58a4.18,4.18,0,0,0,1.62.54,19.13,19.13,0,0,0,2.62.27q1.71.09,4.42.09a55.56,55.56,0,0,0,8.57-.63,26.06,26.06,0,0,0,7.13-2.08,10.82,10.82,0,0,0,6.5-10.47h9.74q0,7.58-3.34,11.91a21.66,21.66,0,0,1-8.3,6.59,33.23,33.23,0,0,1-10.74,2.8q-5.78.54-10.83.54a67,67,0,0,1-18.68-2.26A27.72,27.72,0,0,1,454,167.62a29.29,29.29,0,0,1-6.95-13A76.22,76.22,0,0,1,444.92,135a86.73,86.73,0,0,1,1.89-19.58,27.75,27.75,0,0,1,6.59-13,27.15,27.15,0,0,1,12.54-7.22Q473.8,93,485.89,93Zm-8.12,9.2q-.91,4-1.62,8.66-.54,4.15-1.08,9.65t-.54,12H492q-.36-7.58-.9-13.26t-1.26-9.47a63.12,63.12,0,0,0-1.62-7.58,9.22,9.22,0,0,1-1.26-.54q-.72-.18-1.71-.36a12.93,12.93,0,0,0-2.26-.18,11.4,11.4,0,0,0-2.17.18q-.91.18-1.62.36A6.92,6.92,0,0,1,477.77,102.2Z"/><path d="M615.82,168.52h1.76a21.92,21.92,0,0,0,2.44-.13l3-.27v6.5q-2.43.41-4.74.68-1.9.27-4.06.41t-3.52.13q-6.63,0-10-2.44a15.61,15.61,0,0,1-4.87-5.28,23.93,23.93,0,0,1-6.83,6,17.38,17.38,0,0,1-8.87,2.23q-9.21,0-13.67-3.45t-4.47-12q0-3,.07-5.68a43.89,43.89,0,0,1,.34-4.74q.27-2.44.54-4.33l31.4-7.71q-.13-3.92-.27-7.24t-.27-5.62q-.27-2.71-.41-4.87a9,9,0,0,0-1.22-.27c-.45-.09-1.13-.18-2-.27s-2-.14-3.25-.14q-1.22,0-2.3.07t-2.17.2a36.84,36.84,0,0,1-1.35,4.54,16,16,0,0,1-3,5,17.26,17.26,0,0,1-5.35,4.06,18.56,18.56,0,0,1-8.46,1.69V115.2l8.8-.81q3.93-.27,8.39-.54t8.66-.27A51.32,51.32,0,0,1,604,115.06a14,14,0,0,1,7.71,5.14,20.74,20.74,0,0,1,3.38,9.75,128.39,128.39,0,0,1,.75,15.16Zm-31.4.54a10.66,10.66,0,0,0,5.21-3.45,40.56,40.56,0,0,0,4.8-6.7V144.57l-10.29,2.84q-.27,2.17-.41,4.4t-.14,4.4q0,2.71.07,5a33.16,33.16,0,0,0,.34,4.06Q584.15,167.31,584.42,169.07Z"/><path d="M629.08,117h8L657.51,113v9.47q.27-.41,1.49-1.89a15.55,15.55,0,0,1,3.65-3,26.59,26.59,0,0,1,6.36-2.77,32.77,32.77,0,0,1,9.61-1.22,37.62,37.62,0,0,1,6.29.54,18.86,18.86,0,0,1,5.82,2,11.71,11.71,0,0,1,4.26,3.86,11.28,11.28,0,0,1,1.62,6.36v42.09h8v6.9H675.24V122a3.65,3.65,0,0,1-.81-.14,12.9,12.9,0,0,0-3-.27,10.94,10.94,0,0,0-5.08,1.15,17.62,17.62,0,0,0-3.86,2.64,16.18,16.18,0,0,0-2.64,3,26.72,26.72,0,0,0-1.42,2.37v37.63h8v6.9H629.08v-6.9h8V123.72h-8Z"/><path d="M744.27,92.05h8l21.38-3.93v80.4h1.76a21.86,21.86,0,0,0,2.44-.13l3-.27v6.5q-2.44.41-4.74.68-1.9.27-4.06.41t-3.52.13q-6.63,0-10-2.44a15.59,15.59,0,0,1-4.87-5.28,28.8,28.8,0,0,1-8.87,6.09,25.55,25.55,0,0,1-10.36,2.17,27,27,0,0,1-9.88-1.69,16.78,16.78,0,0,1-7.24-5.41,25.61,25.61,0,0,1-4.4-9.75A61.35,61.35,0,0,1,711.38,145,57.22,57.22,0,0,1,713,130.29a21,21,0,0,1,5.41-9.75,21.76,21.76,0,0,1,9.75-5.35,57,57,0,0,1,14.75-1.62,40.72,40.72,0,0,1,4.74.27l4.6.54V98.82h-8Zm-8.26,77a15.57,15.57,0,0,0,8.73-2.84,30.53,30.53,0,0,0,7.51-7.17V121a32.68,32.68,0,0,0-4.8-1,34.35,34.35,0,0,0-4.54-.34,28,28,0,0,0-3,.13q-1.22.14-2.17.27t-1.76.41q-.68,3.25-1.22,7-.54,3.25-.88,7.71t-.34,9.75q0,6.5.34,11a73.55,73.55,0,0,0,.88,7.51A34.81,34.81,0,0,0,736,169.07Z"/><path d="M270.35,278H281l27.25-5.23v11.55A12.48,12.48,0,0,1,309.6,282a15.73,15.73,0,0,1,3.79-3.61,27.9,27.9,0,0,1,6.86-3.43A32,32,0,0,1,331,273.46q4,0,6.23.18t3.52.36a7.5,7.5,0,0,1,1.8.36V309.2a21.18,21.18,0,0,1-10.83-2.53,22.3,22.3,0,0,1-7-6.32,31.28,31.28,0,0,1-4.15-7.94,45.41,45.41,0,0,1-2-7.4,12.73,12.73,0,0,0-3.07,2.44,26.68,26.68,0,0,0-2.62,3.25q-1.17,1.72-2.08,3.25a18.92,18.92,0,0,0-1.26,2.44v50.17h10.65v9.2H270.35v-9.2H281V287H270.35Z"/><path d="M392.52,273.46a59.81,59.81,0,0,1,16.42,1.89,23.07,23.07,0,0,1,10.47,6,23.31,23.31,0,0,1,5.6,10.92A72.89,72.89,0,0,1,426.63,309q0,3.07-.18,5.32t-.36,3.7q-.18,1.8-.36,2.71H381.15q.18,6.14.72,11.1t1.08,8.57q.72,4.33,1.44,7.58a4.19,4.19,0,0,0,1.63.54,19.06,19.06,0,0,0,2.62.27q1.71.09,4.42.09a55.56,55.56,0,0,0,8.57-.63,26.07,26.07,0,0,0,7.13-2.08,10.83,10.83,0,0,0,6.5-10.47H425q0,7.58-3.34,11.91a21.63,21.63,0,0,1-8.3,6.59,33.23,33.23,0,0,1-10.74,2.8q-5.78.54-10.83.54a67,67,0,0,1-18.68-2.26,27.71,27.71,0,0,1-12.45-7.22,29.31,29.31,0,0,1-6.95-13,76.23,76.23,0,0,1-2.16-19.58,86.62,86.62,0,0,1,1.89-19.58,27.77,27.77,0,0,1,6.59-13,27.16,27.16,0,0,1,12.54-7.22Q380.43,273.47,392.52,273.46Zm-8.12,9.2q-.91,4-1.62,8.66-.54,4.15-1.08,9.65t-.54,12h17.51q-.37-7.58-.9-13.26t-1.26-9.47a62.7,62.7,0,0,0-1.62-7.58,9.33,9.33,0,0,1-1.26-.54c-.48-.12-1.05-.24-1.71-.36a12.94,12.94,0,0,0-2.26-.18,11.37,11.37,0,0,0-2.17.18q-.91.18-1.62.36A6.88,6.88,0,0,1,384.4,282.67Z"/><path d="M513.79,346.73h2.35a29,29,0,0,0,3.25-.18l4-.36v8.66q-3.25.54-6.32.9-2.53.36-5.41.54t-4.69.18q-8.84,0-13.36-3.25a20.8,20.8,0,0,1-6.5-7,31.94,31.94,0,0,1-9.11,8,23.17,23.17,0,0,1-11.82,3q-12.28,0-18.23-4.6t-6-16q0-4,.09-7.58a59.44,59.44,0,0,1,.45-6.32q.36-3.25.72-5.77l41.87-10.29q-.18-5.23-.36-9.65t-.36-7.49q-.36-3.61-.54-6.5a12.08,12.08,0,0,0-1.62-.36q-.91-.18-2.71-.36t-4.33-.18q-1.62,0-3.07.09c-1,.06-1.93.15-2.89.27a48.5,48.5,0,0,1-1.8,6,21.29,21.29,0,0,1-4,6.68,23,23,0,0,1-7.13,5.41A24.74,24.74,0,0,1,445,302.88V275.63l11.73-1.08q5.23-.36,11.19-.72t11.55-.36q11.73,0,18.5,2a18.69,18.69,0,0,1,10.29,6.86q3.52,4.87,4.51,13a171.48,171.48,0,0,1,1,20.21Zm-41.87.72a14.22,14.22,0,0,0,6.95-4.6,54.29,54.29,0,0,0,6.41-8.93V314.79l-13.72,3.79q-.36,2.89-.54,5.87t-.18,5.87q0,3.61.09,6.68a43.94,43.94,0,0,0,.45,5.41Q471.56,345.11,471.93,347.45Z"/><path d="M537.79,266.43l28.51-7.76v16.06H588v9H566.31v63h3.79q10.46,0,10.47-15.88h9.2a78.74,78.74,0,0,1-.63,10.47,15.94,15.94,0,0,1-3.43,8.12,17.35,17.35,0,0,1-8.3,5.23q-5.51,1.8-15.25,1.8a36.88,36.88,0,0,1-11.37-1.53,21.43,21.43,0,0,1-7.58-4.06,15,15,0,0,1-4.15-5.59,16.41,16.41,0,0,1-1.26-6.32Z"/><path d="M639.76,273.46a59.82,59.82,0,0,1,16.42,1.89,21.53,21.53,0,0,1,16.06,17A72.77,72.77,0,0,1,673.86,309q0,3.07-.18,5.32t-.36,3.7c-.12,1.2-.24,2.11-.36,2.71H628.39q.18,6.14.72,11.1t1.08,8.57q.72,4.33,1.45,7.58a4.18,4.18,0,0,0,1.62.54,19.13,19.13,0,0,0,2.62.27q1.71.09,4.42.09a55.56,55.56,0,0,0,8.57-.63,26.06,26.06,0,0,0,7.13-2.08,10.82,10.82,0,0,0,6.5-10.47h9.74q0,7.58-3.34,11.91a21.66,21.66,0,0,1-8.3,6.59,33.23,33.23,0,0,1-10.74,2.8q-5.78.54-10.83.54a67,67,0,0,1-18.68-2.26,27.72,27.72,0,0,1-12.45-7.22,29.29,29.29,0,0,1-6.95-13,76.22,76.22,0,0,1-2.17-19.58,86.73,86.73,0,0,1,1.89-19.58,27.75,27.75,0,0,1,6.59-13,27.15,27.15,0,0,1,12.54-7.22Q627.66,273.47,639.76,273.46Zm-8.12,9.2q-.91,4-1.62,8.66-.54,4.15-1.08,9.65t-.54,12h17.51q-.36-7.58-.9-13.26t-1.26-9.47a63.12,63.12,0,0,0-1.62-7.58,9.22,9.22,0,0,1-1.26-.54q-.72-.18-1.71-.36a12.93,12.93,0,0,0-2.26-.18,11.4,11.4,0,0,0-2.17.18q-.91.18-1.62.36A6.92,6.92,0,0,1,631.64,282.67Z"/><path d="M263.22,260c-18.59-5.4-37.2-10.73-55.35-17.5a2.63,2.63,0,0,0-2.26.09c-2,.41-3.87.9-5.67,1.46a38.19,38.19,0,0,0-17,10.41,44.43,44.43,0,0,0-9.87,18.43q-3.2,11.25-3.2,27.28T173,327.5q3.11,11.34,9.59,18.52a37.13,37.13,0,0,0,16.17,10.41,72.53,72.53,0,0,0,22.84,3.23,51,51,0,0,0,14.53-2,34.38,34.38,0,0,0,12.15-6.36,30.58,30.58,0,0,0,8.41-11.06,38.25,38.25,0,0,0,3.11-16.13v-5.16h-10.6v5.71a29.54,29.54,0,0,1-2.1,11.7,20.8,20.8,0,0,1-5.76,7.93,22.88,22.88,0,0,1-8.68,4.42,41.64,41.64,0,0,1-11.06,1.38,55.68,55.68,0,0,1-9.32-.55,24.47,24.47,0,0,1-2.92-.74,143.55,143.55,0,0,1-2.74-14.38q-.92-6.64-1.74-15.39t-.82-18.89q0-10,.82-18.8t1.74-15.48c.11-.79.23-1.56.35-2.33l51.18,14a2.84,2.84,0,0,0,3.1-1,3.23,3.23,0,0,0,.25-4c-.66-1.12-1.17-2.31-1.72-3.48a13.2,13.2,0,0,1,3.24-2.74,3.47,3.47,0,0,0,.48-.33C265.86,265,266.35,260.87,263.22,260ZM253,269.54l-28.69-7.82q15.29,1.36,30.5,3.5l-1,1.15A3.37,3.37,0,0,0,253,269.54Zm-26.15-13.89q-10.13-.94-20.29-1.56l-.2-5.49C213.12,251.12,220,253.44,226.84,255.64Z"/><path d="M99.13,76.31a19.17,19.17,0,0,1,1.75-4.18l6.9-1.43L119,68.36c1.2,5.67,2.13,11.35,2.77,16.89a3.65,3.65,0,0,0,3,3.35,3.83,3.83,0,0,0,1.19.19,4.21,4.21,0,0,0,1.87-.45c7-3.46,14.31-6.43,20.6-8.93a3.77,3.77,0,0,0,2.16-5.12,4.37,4.37,0,0,0-5.75-2.58c-4.65,1.85-10.07,4.05-15.43,6.49-.78-5.34-1.79-10.63-3-15.75a4.17,4.17,0,0,0-.93-1.83,3.89,3.89,0,0,0-4-1.44q-7.75,1.59-15.49,3.22-7.32,1.53-14.64,3a8.73,8.73,0,0,0-1.6.32,34.75,34.75,0,0,0-13.07,6.89,25.16,25.16,0,0,0-7.07,10.29,37.45,37.45,0,0,0-2.15,12.89q0,9.49,3.76,15.4a33.89,33.89,0,0,0,9.49,9.85A73.81,73.81,0,0,0,93,127.87a113.16,113.16,0,0,1,12.26,6.27,34.29,34.29,0,0,1,9.49,8.15q3.76,4.75,3.76,12.62a44,44,0,0,1-.36,6.09q-.36,2.51-.72,4.12a25.09,25.09,0,0,1-1.07,3.22l-4.12.36q-1.79.18-3.85.27t-3.85.09h-3a21.45,21.45,0,0,1-2.69-.18,39.5,39.5,0,0,0-2.51-12.17A30.54,30.54,0,0,0,90.35,147a27.46,27.46,0,0,0-9.13-6.54,31.86,31.86,0,0,0-12.35-2.6V178l15-2.86A76.2,76.2,0,0,0,92,177a78.55,78.55,0,0,0,14,1q20.59,0,32-8.68T149.44,142a27.34,27.34,0,0,0-3.13-13.16,36,36,0,0,0-8.06-10.12,51.32,51.32,0,0,0-10.83-7.25A102.36,102.36,0,0,0,116,106.56q-9.49-3-13.7-7.52t-4.21-14a31,31,0,0,1,.36-4.92Q98.77,77.92,99.13,76.31Z"/></svg>