<?xml version="1.0" encoding="utf-8"?>
<!-- Generator: Adobe Illustrator 21.0.0, SVG Export Plug-In . SVG Version: 6.00 Build 0)  -->
<svg version="1.1" id="Layer_1" xmlns="http://www.w3.org/2000/svg" xmlns:xlink="http://www.w3.org/1999/xlink" x="0px" y="0px"
	 viewBox="0 0 841.9 424.5" style="enable-background:new 0 0 841.9 424.5;" xml:space="preserve">
<style type="text/css">
	.st0{fill:#FFFFFF;}
	.st1{fill:#009FE3;}
	.st2{fill:#EB6012;}
	.st3{fill:#E30613;}
	.st4{stroke:#000000;stroke-width:2.5;stroke-miterlimit:10;}
	.st5{stroke:#000000;stroke-width:3;stroke-miterlimit:10;}
	.st6{fill:#EDEDED;}
	.st7{fill:none;}
	.st8{stroke:#000000;stroke-width:4.5;stroke-miterlimit:10;}
	.st9{stroke:#000000;stroke-width:4;stroke-miterlimit:10;}
	.st10{stroke:#000000;stroke-width:6.5;stroke-miterlimit:10;}
	.st11{fill:#FFED00;}
	.st12{stroke:#000000;stroke-width:7;stroke-miterlimit:10;}
	.st13{fill:#3C3C3B;}
	.st14{fill:#575756;}
	.st15{fill:#706F6F;}
	.st16{fill:#878787;}
	.st17{fill:#9D9D9C;}
	.st18{fill:#B2B2B2;}
	.st19{fill:#C6C6C6;}
	.st20{fill:#DADADA;}
	.st21{fill:#F9FAFB;}
	.st22{fill:#F0F0F1;}
	.st23{fill:#F6F6F6;}
	.st24{stroke:#000000;stroke-width:6;stroke-miterlimit:10;}
	.st25{fill:#010202;}
</style>
<g>
	<path class="st25" d="M120.5,162.8c0.2-0.8,0.9-3.1,2.2-5.2c2.9-0.6,5.8-1.2,8.6-1.8c4.7-1,9.4-2,14.1-2.9
		c1.5,7.1,2.7,14.2,3.5,21.2c0.3,2.2,1.7,3.8,3.7,4.2c0.5,0.2,1,0.2,1.5,0.2c0.8,0,1.6-0.2,2.3-0.6c8.8-4.3,17.9-8.1,25.8-11.2
		c3.1-1.2,3.6-4.2,2.7-6.4c-1-2.6-3.9-4.6-7.2-3.2c-5.8,2.3-12.6,5.1-19.3,8.1c-1-6.7-2.2-13.3-3.8-19.7c-0.2-0.9-0.6-1.7-1.2-2.3
		c-1.2-1.6-3-2.2-5-1.8c-6.5,1.3-12.9,2.7-19.4,4c-6.1,1.3-12.2,2.6-18.3,3.8c-0.7,0.1-1.4,0.2-2,0.4c-6.8,2.1-12.3,5-16.4,8.6
		c-4.1,3.7-7.1,8-8.9,12.9c-1.8,4.9-2.7,10.3-2.7,16.2c0,7.9,1.6,14.4,4.7,19.3c3.1,4.9,7.1,9,11.9,12.3c4.8,3.3,9.9,6.1,15.4,8.5
		c5.5,2.4,10.6,5,15.4,7.9c4.8,2.8,8.7,6.2,11.9,10.2c3.1,4,4.7,9.2,4.7,15.8c0,3-0.2,5.5-0.4,7.6c-0.3,2.1-0.6,3.8-0.9,5.2
		c-0.4,1.6-0.9,3-1.3,4c-1.8,0.2-3.5,0.3-5.2,0.4c-1.5,0.2-3.1,0.3-4.8,0.3c-1.7,0.1-3.3,0.1-4.8,0.1h-3.8c-1,0-2.2-0.1-3.4-0.2
		c-0.3-5.5-1.3-10.6-3.1-15.3c-1.8-4.6-4.3-8.7-7.4-12.1c-3.1-3.4-7-6.2-11.4-8.2c-4.5-2-9.6-3.1-15.5-3.3v50.2l18.8-3.6
		c2.4,0.7,5.8,1.5,10.1,2.4c4.3,0.8,10.2,1.2,17.5,1.2c17.2,0,30.6-3.6,40.2-10.9c9.6-7.3,14.4-18.7,14.4-34.2
		c0-6.1-1.3-11.6-3.9-16.5c-2.6-4.9-6-9.1-10.1-12.7c-4.1-3.6-8.6-6.6-13.6-9.1c-4.9-2.5-9.7-4.5-14.4-6.2
		c-7.9-2.5-13.6-5.7-17.2-9.4c-3.5-3.7-5.3-9.6-5.3-17.5c0-2.2,0.1-4.3,0.4-6.2C119.9,165.7,120.2,164.1,120.5,162.8z"/>
	<path class="st25" d="M716.5,200.3c0.2-0.6,0.6-2.1,1.5-3.6c2-0.4,4-0.8,5.9-1.2c3.2-0.7,6.4-1.3,9.7-2c1,4.9,1.8,9.8,2.4,14.6
		c0.2,1.5,1.1,2.6,2.6,2.9c0.3,0.1,0.7,0.2,1,0.2c0.5,0,1.1-0.1,1.6-0.4c6-3,12.3-5.5,17.8-7.7c2.1-0.9,2.5-2.9,1.9-4.4
		c-0.7-1.8-2.7-3.1-5-2.2c-4,1.6-8.7,3.5-13.3,5.6c-0.7-4.6-1.5-9.2-2.6-13.6c-0.1-0.6-0.4-1.2-0.8-1.6c-0.8-1.1-2.1-1.5-3.5-1.2
		c-4.5,0.9-8.9,1.8-13.3,2.8c-4.2,0.9-8.4,1.8-12.6,2.6c-0.5,0.1-1,0.1-1.4,0.3c-4.7,1.4-8.4,3.4-11.3,5.9c-2.8,2.5-4.9,5.5-6.1,8.9
		c-1.2,3.4-1.9,7.1-1.9,11.1c0,5.5,1.1,9.9,3.2,13.3c2.2,3.4,4.9,6.2,8.2,8.5c3.3,2.3,6.8,4.2,10.6,5.9c3.8,1.6,7.3,3.4,10.6,5.4
		c3.3,2,6,4.3,8.2,7c2.2,2.7,3.2,6.4,3.2,10.9c0,2.1-0.1,3.8-0.3,5.2c-0.2,1.4-0.4,2.6-0.6,3.5c-0.3,1.1-0.6,2.1-0.9,2.8
		c-1.2,0.1-2.4,0.2-3.5,0.3c-1,0.1-2.1,0.2-3.3,0.2c-1.2,0.1-2.3,0.1-3.3,0.1h-2.6c-0.7,0-1.5-0.1-2.3-0.2
		c-0.2-3.8-0.9-7.3-2.2-10.5c-1.2-3.2-2.9-6-5.1-8.3c-2.2-2.4-4.8-4.2-7.9-5.6c-3.1-1.4-6.6-2.1-10.6-2.2V288l13-2.5
		c1.6,0.5,4,1.1,6.9,1.6c3,0.6,7,0.8,12,0.8c11.8,0,21-2.5,27.6-7.5c6.6-5,9.9-12.8,9.9-23.5c0-4.2-0.9-8-2.7-11.3
		c-1.8-3.3-4.1-6.2-6.9-8.7c-2.8-2.5-5.9-4.6-9.3-6.2c-3.4-1.7-6.7-3.1-9.9-4.2c-5.5-1.7-9.4-3.9-11.8-6.5c-2.4-2.6-3.6-6.6-3.6-12
		c0-1.5,0.1-3,0.3-4.2C716.1,202.3,716.3,201.2,716.5,200.3z"/>
	<path class="st25" d="M206,175.8l35.4-9.6v20h26.9v11.2h-26.9v78.3h4.7c8.7,0,13-6.6,13-19.7h11.4c0,4.8-0.3,9.1-0.8,13
		c-0.5,3.9-1.9,7.3-4.3,10.1c-2.3,2.8-5.8,5-10.3,6.5c-4.6,1.5-10.9,2.2-19,2.2c-5.5,0-10.2-0.6-14.1-1.9c-3.9-1.3-7-3-9.4-5
		c-2.4-2.1-4.1-4.4-5.2-7c-1-2.5-1.6-5.2-1.6-7.9V175.8z"/>
	<path class="st25" d="M281.8,236.8c0-9.6,0.9-17.7,2.7-24.3c1.8-6.7,4.8-12,9-16.2c4.2-4.1,9.6-7.1,16.2-9
		c6.6-1.9,14.7-2.8,24.5-2.8c9.6,0,17.7,0.9,24.3,2.8c6.7,1.9,12.1,4.9,16.3,9c4.2,4.1,7.2,9.5,9,16.2c1.8,6.7,2.7,14.8,2.7,24.3
		c0,9.6-0.9,17.7-2.7,24.3c-1.8,6.7-4.8,12-9,16.2c-4.2,4.1-9.6,7.1-16.3,9c-6.7,1.9-14.8,2.8-24.3,2.8c-9.7,0-17.9-0.9-24.5-2.8
		c-6.6-1.9-12-4.9-16.2-9c-4.2-4.1-7.2-9.5-9-16.2C282.7,254.5,281.8,246.4,281.8,236.8z M318.6,236.8c0,5.8,0.2,11.3,0.6,16.3
		c0.4,5,0.9,9.3,1.5,12.9c0.6,4.3,1.3,8.2,2,11.7c0.7,0.3,1.7,0.5,2.9,0.7c1.9,0.4,4.8,0.7,8.5,0.7c3.6,0,6.4-0.2,8.5-0.7
		c1.2-0.1,2.2-0.4,2.9-0.7c0.7-3.4,1.4-7.3,2-11.7c0.4-3.6,0.9-7.9,1.3-12.9c0.4-5,0.7-10.4,0.7-16.3c0-5.8-0.2-11.2-0.7-16.2
		c-0.4-4.9-0.9-9.3-1.3-13c-0.6-4.2-1.3-8.1-2-11.7c-0.9-0.1-1.9-0.4-3.1-0.7c-1-0.1-2.3-0.3-3.7-0.4c-1.4-0.1-3-0.2-4.6-0.2
		c-1.9,0-3.6,0.1-4.9,0.2c-1.3,0.2-2.5,0.3-3.6,0.4c-1.2,0.3-2.2,0.5-2.9,0.7c-0.8,3.6-1.4,7.5-2,11.7c-0.6,3.7-1.1,8.1-1.5,13
		C318.8,225.6,318.6,231,318.6,236.8z"/>
	<path class="st25" d="M400.9,190.1h13.2l33.9-6.5V198c0.1-0.4,0.7-1.4,1.7-2.8c1-1.4,2.5-2.9,4.7-4.5c2.2-1.6,5-3,8.5-4.3
		c3.5-1.3,8-1.9,13.3-1.9c3.3,0,5.9,0.1,7.7,0.2c1.9,0.2,3.3,0.3,4.4,0.4c1.2,0.2,1.9,0.3,2.2,0.4V229c-5.4,0-9.9-1-13.5-3.1
		c-3.6-2.1-6.5-4.7-8.7-7.9c-2.2-3.1-4-6.4-5.2-9.9c-1.2-3.4-2-6.5-2.5-9.2c-1.3,0.8-2.6,1.8-3.8,3c-1.2,1.3-2.3,2.6-3.3,4
		c-1,1.4-1.8,2.8-2.6,4c-0.8,1.3-1.3,2.3-1.6,3v62.4h13.2v11.4h-61.9v-11.4h13.2v-74h-13.2V190.1z"/>
	<path class="st25" d="M500.7,187.9H514l35.4-5.4v92.9h13.2v11.4h-61.9v-11.4H514v-76.3h-13.2V187.9z M514,152.9c0-6.3,1.3-11,4-14
		c2.7-3.1,7.3-4.6,13.7-4.6c6.7,0,11.4,1.5,13.9,4.6c2.5,3.1,3.8,7.7,3.8,14c0,6.4-1.4,11.1-4.2,14c-2.8,2.9-7.3,4.4-13.6,4.4
		c-6.4,0-11-1.5-13.7-4.4C515.3,164,514,159.3,514,152.9z"/>
	<path class="st25" d="M625.9,184.5c8.2,0,15,0.8,20.4,2.4c5.4,1.6,9.7,4.1,13,7.5c3.3,3.4,5.6,8,7,13.6c1.3,5.6,2,12.5,2,20.8
		c0,2.5-0.1,4.7-0.2,6.6c-0.2,1.9-0.3,3.4-0.4,4.6c-0.2,1.5-0.3,2.6-0.4,3.4h-55.4c0.1,5.1,0.4,9.7,0.9,13.8
		c0.4,4.1,0.9,7.7,1.3,10.7c0.6,3.6,1.2,6.7,1.8,9.4c0.4,0.3,1.1,0.5,2,0.7c0.7,0.2,1.8,0.3,3.3,0.3c1.4,0.1,3.3,0.1,5.5,0.1
		c3.7,0,7.3-0.3,10.7-0.8c3.4-0.5,6.3-1.4,8.9-2.6c2.5-1.2,4.5-2.9,5.9-5c1.4-2.2,2.1-4.8,2.1-8h12.1c0,6.3-1.4,11.2-4.2,14.8
		c-2.8,3.6-6.2,6.3-10.3,8.2c-4.1,1.9-8.6,3-13.3,3.5c-4.8,0.4-9.3,0.7-13.5,0.7c-9.1,0-16.9-0.9-23.2-2.8c-6.4-1.9-11.5-4.9-15.5-9
		c-4-4.1-6.8-9.5-8.6-16.2c-1.8-6.7-2.7-14.8-2.7-24.3c0-9.6,0.8-17.7,2.4-24.3c1.6-6.7,4.3-12,8.2-16.2c3.9-4.1,9.1-7.1,15.6-9
		C607.6,185.5,615.9,184.5,625.9,184.5z M615.8,196c-0.8,3.3-1.4,6.9-2,10.8c-0.4,3.4-0.9,7.4-1.3,12c-0.4,4.6-0.7,9.5-0.7,14.9
		h21.8c-0.3-6.3-0.7-11.8-1.1-16.5c-0.4-4.7-1-8.6-1.6-11.8c-0.6-3.7-1.3-6.9-2-9.4c-0.4-0.1-1-0.4-1.6-0.7
		c-0.6-0.1-1.3-0.3-2.1-0.4c-0.8-0.1-1.8-0.2-2.8-0.2c-1,0-1.9,0.1-2.7,0.2c-0.8,0.2-1.4,0.3-2,0.4C617,195.6,616.4,195.8,615.8,196
		z"/>
</g>
</svg>
