<?xml version="1.0" encoding="utf-8"?>
<!-- Generator: Adobe Illustrator 21.0.0, SVG Export Plug-In . SVG Version: 6.00 Build 0)  -->
<svg version="1.1" id="Layer_1" xmlns="http://www.w3.org/2000/svg" xmlns:xlink="http://www.w3.org/1999/xlink" x="0px" y="0px"
	 viewBox="0 0 377.8 424.5" style="enable-background:new 0 0 377.8 424.5;" xml:space="preserve">
<style type="text/css">
	.st0{fill:#FFFFFF;}
	.st1{fill:#009FE3;}
	.st2{fill:#EB6012;}
	.st3{stroke:#000000;stroke-width:2.5;stroke-miterlimit:10;}
	.st4{stroke:#000000;stroke-width:3;stroke-miterlimit:10;}
</style>
<path d="M281.7,135.9c-37.1-10.7-74.3-21.3-110.6-34.7c-1.8-0.7-3.3-0.5-4.5,0.2c-3.9,0.8-7.7,1.8-11.3,2.9
	c-13.8,4.3-25.1,11.1-34,20.6c-8.9,9.5-15.5,21.7-19.7,36.5c-4.3,14.9-6.4,32.9-6.4,54.1s2.1,39.3,6.2,54.2
	c4.1,15,10.5,27.2,19.2,36.7c8.6,9.5,19.4,16.4,32.3,20.6c12.9,4.3,28.1,6.4,45.7,6.4c10.2,0,19.9-1.3,29-4
	c9.1-2.7,17.2-6.9,24.3-12.6c7.1-5.7,12.7-13,16.8-21.9c4.1-8.9,6.2-19.5,6.2-32v-10.2h-21.2v11.3c0,9-1.4,16.7-4.2,23.2
	c-2.8,6.5-6.6,11.7-11.5,15.7c-4.9,4-10.7,6.9-17.3,8.8c-6.7,1.8-14.1,2.7-22.1,2.7c-8.5,0-14.7-0.4-18.6-1.1
	c-2.4-0.5-4.4-1-5.8-1.5c-2.2-8.8-4-18.3-5.5-28.5c-1.2-8.8-2.4-18.9-3.5-30.5c-1.1-11.6-1.6-24-1.6-37.4c0-13.1,0.5-25.6,1.6-37.3
	c1.1-11.7,2.2-21.9,3.5-30.7c0.2-1.6,0.5-3.1,0.7-4.6c34.1,9.2,68.2,18.4,102.3,27.7c2.7,0.7,4.8-0.2,6.2-1.9c1.8-1.7,2.6-4.3,1-7
	c-0.1-0.3-0.3-0.6-0.5-0.9c-1.3-2.2-2.3-4.6-3.4-6.9c1.9-2.1,4-4,6.5-5.4c0.4-0.2,0.7-0.4,1-0.6C286.9,146,287.9,137.7,281.7,135.9z
	 M261.2,154.9c-19.1-5.2-38.2-10.3-57.3-15.5c20.4,1.8,40.7,4.1,61,6.9c-0.7,0.8-1.4,1.5-2.1,2.3
	C261.2,150.3,260.5,152.7,261.2,154.9z M209,127.4c-13.5-1.2-27-2.3-40.6-3.1l-0.4-10.9C181.5,118.4,195.2,123,209,127.4z"/>
</svg>
