<?xml version="1.0" encoding="utf-8"?>
<!-- Generator: Adobe Illustrator 21.0.0, SVG Export Plug-In . SVG Version: 6.00 Build 0)  -->
<svg version="1.1" id="Layer_1" xmlns="http://www.w3.org/2000/svg" xmlns:xlink="http://www.w3.org/1999/xlink" x="0px" y="0px"
	 viewBox="0 0 241.8 232" style="enable-background:new 0 0 241.8 232;" xml:space="preserve">
<style type="text/css">
	.st0{fill:#FFFFFF;}
	.st1{fill:#009FE3;}
	.st2{fill:#EB6012;}
	.st3{stroke:#000000;stroke-width:2.5;stroke-miterlimit:10;}
	.st4{stroke:#000000;stroke-width:3;stroke-miterlimit:10;}
</style>
<path class="st0" d="M103.3,6.9c-0.3-0.1-0.5-0.2-0.8-0.3c-30.2-8.4-62-8.8-92.4-1.3C7.6,6,6.2,7.7,5.8,9.7
	c-0.6,1.2-0.7,2.6-0.2,4.2c2.3,7.6,4.9,15.2,7.7,22.6C7.6,38.4,0.3,40.5,0,47.5C-0.2,53.9,6,59.8,10.2,64
	c9.4,9.2,21.3,16.2,28.6,27.3c2.6,4,8.2,4.1,10.8,0c16-24.7,33.9-48,53.7-69.8V28v49.2v133.6H70.7V232h126.7v-21.2h-32.6V28h20.5
	c0.2,4.2,1.1,9,2.6,14.5s4.2,10.7,8.2,15.6c4,4.9,9.6,9.1,16.9,12.6c7.2,3.5,16.8,5.3,28.8,5.3V6.7H103.3V6.9z M54.9,61.6
	C49.5,55.2,44.3,48.7,39.3,42c13.2-3.5,26.5-6.7,39.4-11.1C70.4,40.8,62.5,51.1,54.9,61.6z M44.9,75.9c-3.1-5.9-6.1-11.8-8.9-17.9
	c3.7,4.8,7.6,9.4,11.6,14C46.6,73.4,45.7,74.6,44.9,75.9z M84.7,15.3c-17.1,7-35.3,10.9-53.2,15.8c-3.5-5.1-6.8-10.2-10.1-15.5
	C42.4,11.5,63.8,11.4,84.7,15.3z M14.5,50.2c-0.2-0.2-0.3-0.4-0.5-0.6c0.4-0.2,0.7-0.3,0.9-0.4c1-0.3,2-0.7,3-1
	c1.4,3.3,2.8,6.6,4.2,9.8c-1.6-1.5-3.2-2.9-4.7-4.5C16.5,52.5,15.4,51.4,14.5,50.2z"/>
</svg>
