<?xml version="1.0" encoding="utf-8"?>
<!-- Generator: Adobe Illustrator 21.0.0, SVG Export Plug-In . SVG Version: 6.00 Build 0)  -->
<svg version="1.1" id="Layer_1" xmlns="http://www.w3.org/2000/svg" xmlns:xlink="http://www.w3.org/1999/xlink" x="0px" y="0px"
	 viewBox="0 0 495.8 329.8" style="enable-background:new 0 0 495.8 329.8;" xml:space="preserve">
<style type="text/css">
	.st0{fill:#FFFFFF;}
	.st1{fill:#009FE3;}
	.st2{fill:#EB6012;}
	.st3{stroke:#000000;stroke-width:2.5;stroke-miterlimit:10;}
	.st4{stroke:#000000;stroke-width:3;stroke-miterlimit:10;}
</style>
<image style="overflow:visible;" width="1201" height="799" xlink:href="../../Captura de pantalla 2020-01-12 a la(s) 17.39.24.png"  transform="matrix(0.1614 0 0 0.1614 -4060.3049 -1967.328)">
</image>
<image style="overflow:visible;" width="1201" height="799" xlink:href="../../Captura de pantalla 2020-01-12 a la(s) 17.39.24.png"  transform="matrix(0.4128 0 0 0.4128 -4060.3049 -2492.4062)">
</image>
<image style="overflow:visible;" width="1201" height="799" xlink:href="../../Captura de pantalla 2020-01-12 a la(s) 17.39.24.png"  transform="matrix(0.4128 0 0 0.4128 -3479.751 -2494.4062)">
</image>
<text transform="matrix(1 0 0 1 -4126.9468 -1551.5677)" style="font-family:'BigshotOne-Regular'; font-size:366.3156px;">T</text>
<text transform="matrix(1 0 0 1 -3896.458 -1223.0845)" style="font-family:'BigshotOne-Regular'; font-size:366.3156px;">k</text>
<g>
	<g>
		<path d="M-4264.4-1690.4c4.5-7.1,8.5-14.4,12-22c1.4-2.9-3-5.4-4.3-2.5c-3.5,7.6-7.5,14.9-12,22
			C-4270.5-1690.2-4266.1-1687.7-4264.4-1690.4L-4264.4-1690.4z"/>
	</g>
</g>
<g>
	<g>
		<g>
			<path d="M-4139.5-1779.1c7.2,29.6,17.5,58.4,30.5,86c1.4,2.9,5.7,0.4,4.3-2.5c-12.9-27.2-22.9-55.6-30-84.8
				C-4135.5-1783.5-4140.3-1782.2-4139.5-1779.1L-4139.5-1779.1z"/>
		</g>
	</g>
	<g>
		<g>
			<path d="M-4139-1778.9c11.3,23.8,24.8,46.5,40.3,67.8c1.9,2.6,6.2,0.1,4.3-2.5c-15.5-21.3-29-44-40.3-67.8
				C-4136-1784.4-4140.3-1781.8-4139-1778.9L-4139-1778.9z"/>
		</g>
	</g>
	<g>
		<g>
			<path d="M-4136.2-1777.5c35-6.6,71.2-3.8,104.9,7.7c3.1,1,4.4-3.8,1.3-4.8c-34.6-11.9-71.7-14.5-107.6-7.7
				C-4140.7-1781.8-4139.4-1776.9-4136.2-1777.5L-4136.2-1777.5z"/>
		</g>
	</g>
	<g>
		<g>
			<path d="M-4030.7-1773.8c-27.4,26.4-52.4,55.1-74.9,85.8c1.4,0,2.9,0,4.3,0c-6.9-12.1-17.6-20.8-27.5-30.3
				c-2.5-2.4-5-4.9-7.3-7.6c-2.2-2.5-5.5-5.9-6.7-9.1c-1.4-4.1,0.9-3.7,3.7-4.6c2-0.6,4-1.2,5.9-1.7c4-1.1,8-2.1,12-3.1
				c31.6-7.7,64.2-12.5,93.6-27.3c2.7-1.4,0.7-5-1.9-4.6c-0.9,0.1-1.7,0.3-2.6,0.4c-3.2,0.6-1.8,5.4,1.3,4.8
				c0.9-0.1,1.7-0.3,2.6-0.4c-0.6-1.5-1.3-3-1.9-4.6c-32.9,16.6-70.1,20.3-105.2,30.1c-4.9,1.4-14.4,2.5-13.3,9.6
				c0.9,5.9,7.1,11.9,10.9,16.1c10.7,11.5,24,20.7,32,34.6c1,1.8,3.2,1.5,4.3,0c22.2-30.3,47-58.7,74.1-84.7
				C-4024.9-1772.5-4028.4-1776.1-4030.7-1773.8L-4030.7-1773.8z"/>
		</g>
	</g>
</g>
<g>
	<path d="M-4231.3-1726.2c7.5,22.4,15,44.7,22.5,67.1c1.2,3.6,2.3,8,0,11c-1.4,1.9-3.8,2.7-6,3.4c-18.1,5.8-37,9.1-56,9.8
		c-5.6,0.2-12.2-0.4-14.8-5.3c-1.9-3.5-0.8-7.7,0.3-11.6c4.7-16.5,9.4-33.1,14.1-49.6c3.3,3.4,6.6,6.8,9.9,10.2
		c11.6-10.5,21.7-22.7,29.7-36.2"/>
</g>
<g>
	<g>
		<path d="M-4310.6-1870.6c44.2-39.6,87.4-80.3,129.5-122.2c2.3-2.3-1.2-5.8-3.5-3.5c-42.1,41.8-85.3,82.6-129.5,122.2
			C-4316.5-1872-4313-1868.5-4310.6-1870.6L-4310.6-1870.6z"/>
	</g>
</g>
<g>
	<g>
		<path d="M-4315.1-1872.8c4.7-9,9.4-18,14.1-27c1.5-2.8-2.8-5.4-4.3-2.5c-4.7,9-9.4,18-14.1,27
			C-4320.9-1872.5-4316.6-1870-4315.1-1872.8L-4315.1-1872.8z"/>
	</g>
</g>
<g>
	<g>
		<path d="M-4302.9-1898.5c3.2,0,3.2-5,0-5C-4306.1-1903.5-4306.1-1898.5-4302.9-1898.5L-4302.9-1898.5z"/>
	</g>
</g>
<g>
	<g>
		<path d="M-4304.9-1901.8c2.8,8.7,5.6,17.4,8.5,26.1c1,3,5.8,1.7,4.8-1.3c-2.8-8.7-5.6-17.4-8.5-26.1
			C-4301-1906.2-4305.9-1904.9-4304.9-1901.8L-4304.9-1901.8z"/>
	</g>
</g>
<g>
	<g>
		<path d="M-4296.5-1876.1c-9.5-7.3-16.8-16.8-21.6-27.8c-1.3-2.9-5.6-0.4-4.3,2.5c5.2,11.8,13.2,21.7,23.4,29.5
			C-4296.5-1869.8-4294-1874.2-4296.5-1876.1L-4296.5-1876.1z"/>
	</g>
</g>
<g>
	<g>
		<path d="M-4321.8-1902.3c10.9,5.8,25.5,16.2,25.6,29.9c0,3.2,5,3.2,5,0c-0.2-15.6-15.5-27.5-28.1-34.2
			C-4322.1-1908.1-4324.6-1903.8-4321.8-1902.3L-4321.8-1902.3z"/>
	</g>
</g>
<g>
	<g>
		<path d="M-4293.6-1873.6c-26.7-4.5-51-18.3-68.5-39c-2.1-2.5-5.6,1.1-3.5,3.5c18,21.3,43.2,35.7,70.7,40.3
			C-4291.8-1868.2-4290.4-1873-4293.6-1873.6L-4293.6-1873.6z"/>
	</g>
</g>
<g>
	<g>
		<path d="M-4367-1908.5c17.8,22.4,35.2,45,52.4,67.9c1.9,2.5,6.3,0.1,4.3-2.5c-17.4-23.2-35.1-46.2-53.2-68.9
			C-4365.5-1914.5-4369-1910.9-4367-1908.5L-4367-1908.5z"/>
	</g>
</g>
<g>
	<g>
		<path d="M-4310.4-1836.7c41.4-53.5,84.4-105.9,128.9-156.9c2.1-2.4-1.4-6-3.5-3.5c-44.5,51-87.5,103.4-128.9,156.9
			C-4315.9-1837.8-4312.4-1834.2-4310.4-1836.7L-4310.4-1836.7z"/>
	</g>
</g>
<g>
	<g>
		<path d="M-4183.4-1991.4c9.8,3.8,18.5,9.6,25.8,17.1c2.3,2.3,5.8-1.2,3.5-3.5c-8-8.2-17.4-14.3-28-18.4
			C-4185-1997.4-4186.3-1992.6-4183.4-1991.4L-4183.4-1991.4z"/>
	</g>
</g>
<g>
	<g>
		<g>
			<path d="M-3576.6-1783.5c10.1,32.8,23.5,64.6,39.9,94.7c3.9,7.1,14.7,0.8,10.8-6.3c-16-29.2-28.9-59.9-38.7-91.7
				C-3566.9-1794.5-3578.9-1791.2-3576.6-1783.5L-3576.6-1783.5z"/>
		</g>
	</g>
	<g>
		<g>
			<path d="M-3575.6-1782.5c17,28.9,36.8,55.9,59,81c5.3,6,14.2-2.8,8.8-8.8c-21.6-24.3-40.6-50.5-57.1-78.5
				C-3568.9-1795.8-3579.7-1789.5-3575.6-1782.5L-3575.6-1782.5z"/>
		</g>
	</g>
	<g>
		<g>
			<path d="M-3568.6-1780.4c38-9.5,77.8-8.8,115.6,1.7c7.8,2.2,11.1-9.9,3.3-12.1c-39.8-11.1-82.1-11.7-122.2-1.7
				C-3579.8-1790.5-3576.5-1778.4-3568.6-1780.4L-3568.6-1780.4z"/>
		</g>
	</g>
	<g>
		<g>
			<path d="M-3454-1788.1c-29,31.4-55.2,65.2-78.4,101.1c3.6,0,7.2,0,10.8,0c-8.9-13.6-21.9-22.9-34-33.5c-1.4-1.2-16.9-17-16-17.5
				c-1,2.1-0.6,2.6,1.2,1.4c1.1-0.4,2.1-0.8,3.2-1.2c2.1-0.8,4.3-1.5,6.4-2.2c4.3-1.4,8.7-2.7,13-4c34.7-10,71-16.3,102.7-34.7
				c5.1-3,3.2-12.2-3.2-11.6c-1.3,0.1-2.5,0.1-3.8,0.2c-8,0.6-8,13.2,0,12.5c1.3-0.1,2.5-0.1,3.8-0.2c-1.1-3.9-2.1-7.8-3.2-11.6
				c-26.7,15.5-57,22-86.5,29.8c-7.4,2-14.8,4-22.2,6.3c-6.4,2-15.1,3.6-20.3,7.9c-11.8,9.8,7.7,26.3,14.8,32.7
				c11.5,10.1,24.7,18.9,33.2,31.9c2.6,4,8.2,4,10.8,0c22.6-35,48.2-67.9,76.4-98.6C-3439.7-1785.1-3448.5-1794-3454-1788.1
				L-3454-1788.1z"/>
		</g>
	</g>
</g>
<path d="M-3451.4-1790.9v21.2v49.2v133.6h-32.6v21.2h126.7v-21.2h-32.6v-182.8h20.5c0.2,4.2,1.1,9,2.6,14.5s4.2,10.7,8.2,15.6
	c4,4.9,9.6,9.1,16.9,12.6c7.2,3.5,16.8,5.3,28.8,5.3v-69.2H-3451.4z"/>
<g>
	<g>
		<path d="M-3995.2-1875.5c23.6-18,45.9-37.6,66.8-58.7c2.3-2.3-1.3-5.8-3.5-3.5c-20.6,20.8-42.5,40.2-65.8,57.9
			C-4000.3-1877.9-3997.8-1873.5-3995.2-1875.5L-3995.2-1875.5z"/>
	</g>
</g>
<g>
	<g>
		<path d="M-3995.7-1876c0.8-4.8,1.6-9.5,2.4-14.3c0.5-3.1-4.3-4.5-4.8-1.3c-0.8,4.8-1.6,9.5-2.4,14.3
			C-4001-1874.2-3996.2-1872.9-3995.7-1876L-3995.7-1876z"/>
	</g>
</g>
<g>
	<g>
		<path d="M-3997.3-1888.9c1.7,2.1,3.3,4.2,5,6.3c0.8,1.1,2.7,0.9,3.5,0c1-1,0.8-2.5,0-3.5c-1.7-2.1-3.3-4.2-5-6.3
			c-0.8-1.1-2.7-0.9-3.5,0C-3998.4-1891.4-3998.2-1890-3997.3-1888.9L-3997.3-1888.9z"/>
	</g>
</g>
<g>
	<g>
		<path d="M-3987-1884.3c0.5-5.2,0.3-10.2-0.5-15.3c-0.5-3.2-5.3-1.8-4.8,1.3c0.7,4.7,0.8,9.3,0.3,14
			C-3992.4-1881.1-3987.4-1881.2-3987-1884.3L-3987-1884.3z"/>
	</g>
</g>
<g>
	<g>
		<path d="M-3992.7-1900.9c-1.7,2.8-3.3,5.6-5,8.3c-1.7,2.8,2.7,5.3,4.3,2.5c1.7-2.8,3.3-5.6,5-8.3
			C-3986.7-1901.2-3991-1903.7-3992.7-1900.9L-3992.7-1900.9z"/>
	</g>
</g>
<g>
	<g>
		<path d="M-3995.6-1893.6c-10-2.2-19.9-4.8-29.6-8c-3.1-1-4.4,3.8-1.3,4.8c9.7,3.2,19.6,5.9,29.6,8
			C-3993.7-1888.1-3992.4-1892.9-3995.6-1893.6L-3995.6-1893.6z"/>
	</g>
</g>
<g>
	<g>
		<path d="M-4028.1-1897.5c9.7,10.7,19.3,21.4,29,32.1c2.2,2.4,5.7-1.2,3.5-3.5c-9.7-10.7-19.3-21.4-29-32.1
			C-4026.7-1903.4-4030.2-1899.9-4028.1-1897.5L-4028.1-1897.5z"/>
	</g>
</g>
<g>
	<g>
		<path d="M-3994.8-1864.2c20.7-24.1,42.5-47.3,65.3-69.4c2.3-2.2-1.2-5.8-3.5-3.5c-22.8,22.1-44.6,45.3-65.3,69.4
			C-4000.4-1865.3-3996.9-1861.7-3994.8-1864.2L-3994.8-1864.2z"/>
	</g>
</g>
<g>
	<g>
		<path d="M-3930.9-1933.6c3.2,1.3,6.5,2.6,9.7,3.9c3,1.2,4.3-3.6,1.3-4.8c-3.2-1.3-6.5-2.6-9.7-3.9
			C-3932.5-1939.6-3933.8-1934.8-3930.9-1933.6L-3930.9-1933.6z"/>
	</g>
</g>
<g>
	<path d="M-2987.9-1653.8h-16.9v68.5h21.6v18.7h-101.1v-18.7h21.6v-188.3h-21.6v-18.3h21.6l57.9-10.6v128.9h25.3
		c11.5,0,43.8-0.1,46.5,7l35.9,81.7h4.4c2,0,3.9-0.1,5.9-0.4c2.2-0.2,4.5-0.5,7-0.7v17.6c-2.9,0.7-6.5,1.3-10.6,1.8
		c-3.4,0.5-7.8,0.9-13.2,1.1c-5.4,0.2-11.7,0.4-19,0.4c-5.6,0-10.4-0.5-14.3-1.5c-3.9-1-7.2-2.4-9.9-4.2c-2.7-1.8-4.9-4-6.8-6.6
		c-1.8-2.6-3.5-5.6-4.9-9L-2987.9-1653.8z"/>
</g>
<g>
	<g>
		<path d="M-2955.7-1679.8c3.2,0,3.2-5,0-5C-2958.9-1684.8-2958.9-1679.8-2955.7-1679.8L-2955.7-1679.8z"/>
	</g>
</g>
<g>
	<g>
		<path class="st0" d="M-2953.5-1702.8c2.7,2.1,5.5,4.1,8.2,6.2"/>
		<g>
			<path d="M-2956.6-1697.4c2.7,2.1,5.5,4.1,8.2,6.2c2.6,2,7.1,0.5,8.6-2.2c1.7-3.3,0.6-6.4-2.2-8.6c-2.7-2.1-5.5-4.1-8.2-6.2
				c-2.6-2-7.1-0.5-8.6,2.2C-2960.6-1702.7-2959.4-1699.5-2956.6-1697.4L-2956.6-1697.4z"/>
		</g>
	</g>
	<g>
		<g>
			<path d="M-2954.9-1709.7c-20.3,0.7-40.5-5.5-60.8-6.9c-8-0.6-8,11.9,0,12.5c20.2,1.4,40.4,7.7,60.8,6.9
				C-2946.9-1697.5-2946.8-1710-2954.9-1709.7L-2954.9-1709.7z"/>
		</g>
	</g>
	<g>
		<g>
			<path d="M-3015.9-1700.8c20.2,13,44,19.5,64.2,32.5c6.8,4.4,13.1-6.5,6.3-10.8c-20.2-13-44-19.5-64.2-32.5
				C-3016.4-1715.9-3022.7-1705.1-3015.9-1700.8L-3015.9-1700.8z"/>
		</g>
	</g>
	<g>
		<g>
			<path d="M-2954.7-1646.5c21.4-44.1,45.4-87.2,70.8-129.1c4.2-6.9-6.6-13.2-10.8-6.3c-25.4,41.9-49.4,85-70.8,129.1
				C-2969-1645.6-2958.2-1639.3-2954.7-1646.5L-2954.7-1646.5z"/>
		</g>
	</g>
	<g>
		<g>
			<path d="M-2890.2-1775.6c4.4,0.6,8.8,1.1,13.2,1.7c3.4,0.4,6.2-3.2,6.2-6.2c0-3.7-2.9-5.8-6.2-6.2c-4.4-0.6-8.8-1.1-13.2-1.7
				c-3.4-0.4-6.2,3.2-6.2,6.2C-2896.5-1778.2-2893.6-1776.1-2890.2-1775.6L-2890.2-1775.6z"/>
		</g>
	</g>
	<g>
		<g>
			<path d="M-2896-1785.8c-24.8,31.7-49.6,63.4-74.4,95c-4.9,6.3,3.9,15.2,8.8,8.8c24.8-31.7,49.6-63.4,74.4-95
				C-2882.2-1783.2-2891-1792.1-2896-1785.8L-2896-1785.8z"/>
		</g>
	</g>
	<g>
		<g>
			<path d="M-3016.3-1699.2c16.1,17.1,34.7,32.5,48.9,51.3c2.5,3.3,6.4,4.9,10.3,2.7c3.2-1.8,5.1-7,2.7-10.3
				c-15.1-19.9-34.2-36.2-51.3-54.3C-3012.4-1716.9-3023-1706.2-3016.3-1699.2L-3016.3-1699.2z"/>
		</g>
	</g>
</g>
<g>
	<g>
		<path class="st0" d="M-1071.5-2970.8c2.7,2.1,5.5,4.1,8.2,6.2"/>
		<g>
			<path d="M-1074.7-2965.4c2.7,2.1,5.5,4.1,8.2,6.2c2.6,2,7.1,0.5,8.6-2.2c1.7-3.3,0.6-6.4-2.2-8.6c-2.7-2.1-5.5-4.1-8.2-6.2
				c-2.6-2-7.1-0.5-8.6,2.2C-1078.7-2970.6-1077.5-2967.5-1074.7-2965.4L-1074.7-2965.4z"/>
		</g>
	</g>
	<g>
		<g>
			<path d="M-1073-2977.7c-20.3,0.7-40.5-5.5-60.8-6.9c-8-0.6-8,11.9,0,12.5c20.2,1.4,40.4,7.7,60.8,6.9
				C-1064.9-2965.5-1064.9-2978-1073-2977.7L-1073-2977.7z"/>
		</g>
	</g>
	<g>
		<g>
			<path d="M-1134-2968.7c20.2,13,44,19.5,64.2,32.5c6.8,4.4,13.1-6.5,6.3-10.8c-20.2-13-44-19.5-64.2-32.5
				C-1134.4-2983.9-1140.7-2973.1-1134-2968.7L-1134-2968.7z"/>
		</g>
	</g>
	<g>
		<g>
			<path d="M-1072.7-2914.5c21.4-44.1,45.4-87.2,70.8-129.1c4.2-6.9-6.6-13.2-10.8-6.3c-25.4,41.9-49.4,85-70.8,129.1
				C-1087-2913.6-1076.3-2907.2-1072.7-2914.5L-1072.7-2914.5z"/>
		</g>
	</g>
	<g>
		<g>
			<path d="M-1008.3-3043.6c4.4,0.6,8.8,1.1,13.2,1.7c3.4,0.4,6.2-3.2,6.2-6.2c0-3.7-2.9-5.8-6.2-6.2c-4.4-0.6-8.8-1.1-13.2-1.7
				c-3.4-0.4-6.2,3.2-6.2,6.2C-1014.5-3046.1-1011.6-3044-1008.3-3043.6L-1008.3-3043.6z"/>
		</g>
	</g>
	<g>
		<g>
			<path d="M-1014-3053.8c-24.8,31.7-49.6,63.4-74.4,95c-4.9,6.3,3.9,15.2,8.8,8.8c24.8-31.7,49.6-63.4,74.4-95
				C-1000.3-3051.2-1009.1-3060.1-1014-3053.8L-1014-3053.8z"/>
		</g>
	</g>
	<g>
		<g>
			<path d="M-1134.4-2967.2c16.1,17.1,34.7,32.5,48.9,51.3c2.5,3.3,6.4,4.9,10.3,2.7c3.2-1.8,5.1-7,2.7-10.3
				c-15.1-19.9-34.2-36.2-51.3-54.3C-1130.4-2984.8-1141-2974.2-1134.4-2967.2L-1134.4-2967.2z"/>
		</g>
	</g>
</g>
<g>
	<path class="st1" d="M-2516.7-2492.4v69.2c-12,0-21.6-1.8-28.8-5.3c-7.2-3.5-12.8-7.8-16.9-12.6c-4-4.9-6.8-10.1-8.2-15.6
		s-2.3-10.3-2.6-14.5h-20.5v182.8h32.6v21.2h-126.7v-21.2h32.6v-182.8h-20.9c-0.2,4.2-1,9-2.4,14.5c-1.3,5.5-4,10.7-8.1,15.6
		c-4,4.9-9.7,9.1-17,12.6c-7.3,3.5-16.9,5.3-28.6,5.3v-69.2H-2516.7z"/>
	<path class="st1" d="M-2325.9-2417.7c-15.1,0-27.1-2.9-35.9-8.8c-8.8-5.9-15.4-12.5-20-19.8c-4.5-7.3-7.5-14.3-9-20.9
		c-1.5-6.6-2.2-10.7-2.2-12.5c-4.2,0.2-7.9,0.5-11.2,0.7c-3.3,0.2-6,0.6-8.2,1.1c-2.7,0.5-5,1-7,1.5c-2.2,8.6-4,17.9-5.5,28.2
		c-1.2,8.8-2.4,19-3.5,30.8c-1.1,11.7-1.6,24.2-1.6,37.4c0,13.4,0.5,26,1.6,37.5c1.1,11.6,2.3,21.8,3.5,30.6
		c1.5,10.3,3.3,19.8,5.5,28.6c1.5,0.5,3.4,1,5.9,1.5c3.9,0.7,10.1,1.1,18.7,1.1c8.1,0,15.4-0.9,22.2-2.7c6.7-1.8,12.5-4.8,17.4-8.8
		c4.9-4,8.7-9.3,11.5-15.8c2.8-6.5,4.2-14.2,4.2-23.3v-11.4h21.2v10.3c0,12.5-2.1,23.1-6.2,32.1c-4.2,8.9-9.8,16.2-16.9,22
		c-7.1,5.7-15.2,10-24.4,12.6c-9.2,2.7-18.9,4-29.1,4c-17.6,0-32.8-2.1-45.8-6.4c-12.9-4.3-23.8-11.2-32.4-20.7
		c-8.7-9.5-15.1-21.8-19.2-36.8c-4.2-15-6.2-33.2-6.2-54.4s2.1-39.3,6.4-54.2c4.3-14.9,10.9-27.1,19.8-36.6
		c8.9-9.5,20.3-16.4,34.1-20.7c13.8-4.3,30.2-6.4,49.3-6.4c8.3,0,16.2,0.3,23.8,0.9c7.6,0.6,14.3,1.3,20.1,2c6.8,1,13.2,1.8,19,2.6
		V-2417.7z"/>
	<path class="st1" d="M-2064.3-2267.1h-67.4l-67.4-104.8h-2.9v83.5h25.3v21.2h-119.4v-21.2h32.6v-182.8h-32.6v-21.2h94.1v98.2
		l69.2-76.9h-27.8v-21.2h94.1v21.2h-37l-52,57.9l91.2,138.5V-2267.1z"/>
</g>
<image style="overflow:visible;" width="851" height="595" xlink:href="../../Captura de pantalla 2020-01-12 a la(s) 18.15.45.png"  transform="matrix(1 0 0 1 -4535.7476 -1182.847)">
</image>
<g>
	<path class="st2" d="M-3312.4-1329v69.2c-12,0-21.6-1.8-28.8-5.3c-7.2-3.5-12.8-7.8-16.9-12.6c-4-4.9-6.8-10.1-8.2-15.6
		s-2.3-10.3-2.6-14.5h-20.5v182.8h32.6v21.2h-126.7v-21.2h32.6v-182.8h-20.9c-0.2,4.2-1,9-2.4,14.5c-1.3,5.5-4,10.7-8.1,15.6
		c-4,4.9-9.7,9.1-17,12.6c-7.3,3.5-16.9,5.3-28.6,5.3v-69.2H-3312.4z"/>
	<path class="st2" d="M-3121.5-1254.3c-15.1,0-27.1-2.9-35.9-8.8c-8.8-5.9-15.4-12.5-20-19.8c-4.5-7.3-7.5-14.3-9-20.9
		c-1.5-6.6-2.2-10.7-2.2-12.5c-4.2,0.2-7.9,0.5-11.2,0.7c-3.3,0.2-6,0.6-8.2,1.1c-2.7,0.5-5,1-7,1.5c-2.2,8.6-4,17.9-5.5,28.2
		c-1.2,8.8-2.4,19-3.5,30.8c-1.1,11.7-1.6,24.2-1.6,37.4c0,13.4,0.5,26,1.6,37.5c1.1,11.6,2.3,21.8,3.5,30.6
		c1.5,10.3,3.3,19.8,5.5,28.6c1.5,0.5,3.4,1,5.9,1.5c3.9,0.7,10.1,1.1,18.7,1.1c8.1,0,15.4-0.9,22.2-2.7c6.7-1.8,12.5-4.8,17.4-8.8
		c4.9-4,8.7-9.3,11.5-15.8c2.8-6.5,4.2-14.2,4.2-23.3v-11.4h21.2v10.3c0,12.5-2.1,23.1-6.2,32.1c-4.2,8.9-9.8,16.2-16.9,22
		c-7.1,5.7-15.2,10-24.4,12.6c-9.2,2.7-18.9,4-29.1,4c-17.6,0-32.8-2.1-45.8-6.4c-12.9-4.3-23.8-11.2-32.4-20.7
		c-8.7-9.5-15.1-21.8-19.2-36.8c-4.2-15-6.2-33.2-6.2-54.4s2.1-39.3,6.4-54.2c4.3-14.9,10.9-27.1,19.8-36.6
		c8.9-9.5,20.3-16.4,34.1-20.7c13.8-4.3,30.2-6.4,49.3-6.4c8.3,0,16.2,0.3,23.8,0.9c7.6,0.6,14.3,1.3,20.1,2c6.8,1,13.2,1.8,19,2.6
		V-1254.3z"/>
	<path class="st2" d="M-2860-1103.7h-67.4l-67.4-104.8h-2.9v83.5h25.3v21.2h-119.4v-21.2h32.6v-182.8h-32.6v-21.2h94.1v98.2
		l69.2-76.9h-27.8v-21.2h94.1v21.2h-37l-52,57.9l91.2,138.5V-1103.7z"/>
</g>
<g>
	<g>
		<g>
			<path d="M-3973.1-2434c16.4,72.2,40.3,142.5,71.1,209.8c3.3,7.3,14.1,1,10.8-6.3c-30.3-66.3-53.7-135.7-69.8-206.8
				C-3962.8-2445.2-3974.8-2441.9-3973.1-2434L-3973.1-2434z"/>
		</g>
	</g>
	<g>
		<g>
			<path d="M-3971.7-2433.7c31.7,64.4,69.7,125.2,113.3,182.2c2.1,2.7,5.4,4.1,8.6,2.2c2.7-1.5,4.3-5.9,2.2-8.6
				c-43.6-57-81.6-117.8-113.3-182.2C-3964.4-2447.2-3975.2-2440.8-3971.7-2433.7L-3971.7-2433.7z"/>
		</g>
	</g>
	<g>
		<g>
			<path d="M-3964.7-2432.3c66-11.5,134.4-9.4,199.6,6.1c18.5,4.4,36.8,9.9,54.7,16.4c7.6,2.7,10.8-9.3,3.3-12.1
				c-64.6-23.4-134-33.5-202.6-29.4c-19.6,1.2-39,3.5-58.3,6.9C-3975.9-2443-3972.5-2431-3964.7-2432.3L-3964.7-2432.3z"/>
		</g>
	</g>
	<g>
		<g>
			<path d="M-3709.3-2417.7c-52.6,49.2-101.9,101.9-147.3,157.7c-12.8,15.7-25.2,31.6-37.4,47.8c3.6,0,7.2,0,10.8,0
				c-13.1-24.1-33-43.1-52.6-61.9c-9.9-9.4-19.7-18.9-28.7-29.2c-4.3-4.9-8.3-10-11.9-15.3c-1.8-2.7-3.6-5.4-5.2-8.3
				c-1.7-2.9-4.1-6.4-0.5-8.4c2.9-1.6,6.7-2.1,9.8-3c3.9-1.1,7.8-2.2,11.8-3.2c7.6-2,15.3-3.8,22.9-5.5c15.4-3.5,30.9-6.5,46.5-9.4
				c30.8-5.7,61.7-10.9,92.3-17.9c34.4-7.9,68.2-18.3,100-33.8c5.5-2.7,2.9-12.1-3.2-11.6c-2.8,0.2-5.5-0.4-8.3-0.2
				c-8,0.6-8,13.1,0,12.5c2.8-0.2,5.5,0.4,8.3,0.2c-1.1-3.9-2.1-7.8-3.2-11.6c-59.2,29-125.2,38.6-189.3,50.5
				c-16.1,3-32.2,6.1-48.2,9.8c-8,1.8-15.9,3.7-23.8,5.8c-7.2,1.9-15.2,3.4-22,6.8c-16.5,8.3-4.1,26.7,3.3,36.9
				c8.2,11.5,17.8,21.9,27.8,31.8c22.6,22.4,47.8,43.1,63.2,71.5c2.5,4.5,8.1,3.5,10.8,0c42.6-56.6,89.1-110.2,139-160.6
				c14.3-14.4,28.9-28.6,43.7-42.4C-3694.6-2414.4-3703.4-2423.2-3709.3-2417.7L-3709.3-2417.7z"/>
		</g>
	</g>
</g>
<g>
	<g>
		<path class="st0" d="M-3280.1-2298.6c6.3,6.4,12.5,12.9,18.8,19.3"/>
		<g>
			<path d="M-3284.5-2294.2c6.3,6.4,12.5,12.9,18.8,19.3c5.6,5.8,14.5-3.1,8.8-8.8c-6.3-6.4-12.5-12.9-18.8-19.3
				C-3281.3-2308.8-3290.1-2300-3284.5-2294.2L-3284.5-2294.2z"/>
		</g>
	</g>
	<g>
		<g>
			<path d="M-3282.1-2306.3c-14.9-1.9-31.2-7.8-46-12.5c-15.3-4.8-30.4-10.3-46-14c-7.8-1.9-11.2,10.2-3.3,12.1
				c16,3.8,31.6,9.5,47.3,14.4c15.7,5,31.6,10.5,48,12.5c3.4,0.4,6.2-3.2,6.2-6.2C-3275.8-2303.8-3278.8-2305.9-3282.1-2306.3
				L-3282.1-2306.3z"/>
		</g>
	</g>
	<g>
		<g>
			<path d="M-3376.8-2315c28.3,25.8,64.1,42,92.4,67.8c5.9,5.4,14.8-3.4,8.8-8.8c-28.3-25.8-64.1-42-92.4-67.8
				C-3373.9-2329.2-3382.7-2320.4-3376.8-2315L-3376.8-2315z"/>
		</g>
	</g>
	<g>
		<g>
			<path d="M-3298.9-2213.7c35.7-50.4,74.1-98.9,113.3-146.6c10.1-12.3,20.3-24.5,30.6-36.5c5.2-6.1-3.6-15-8.8-8.8
				c-40.8,47.5-79.7,96.6-117.3,146.6c-9.7,12.9-19.3,25.9-28.6,39C-3314.4-2213.5-3303.5-2207.2-3298.9-2213.7L-3298.9-2213.7z"/>
		</g>
	</g>
	<g>
		<g>
			<path d="M-3161.7-2400.4c6.8,2,13.5,4.1,20.3,6.1c7.7,2.3,11-9.7,3.3-12.1c-6.8-2-13.5-4.1-20.3-6.1
				C-3166.1-2414.8-3169.4-2402.7-3161.7-2400.4L-3161.7-2400.4z"/>
		</g>
	</g>
	<g>
		<g>
			<path d="M-3166.7-2410.4c-47.2,43.3-94.5,86.6-141.8,129.9c-5.9,5.4,2.9,14.3,8.8,8.8c47.3-43.3,94.5-86.6,141.8-129.9
				C-3151.9-2407-3160.8-2415.9-3166.7-2410.4L-3166.7-2410.4z"/>
		</g>
	</g>
	<g>
		<g>
			<path d="M-3376.5-2312.5c21.4,32,47.1,61.8,65,96.1c4.5,8.6,17.4,1,13-7.6c-17.9-34.3-43.5-64.1-65-96.1
				C-3368.9-2328.1-3381.9-2320.6-3376.5-2312.5L-3376.5-2312.5z"/>
		</g>
	</g>
</g>
<g>
	<g>
		<path d="M-5029.5-661.4c-33.1-49.2-62.8-100.6-95.8-149.8c-4.5-6.6-15.3-0.4-10.8,6.3c33.1,49.2,62.8,100.6,95.8,149.8
			C-5035.8-648.4-5025-654.7-5029.5-661.4L-5029.5-661.4z"/>
	</g>
</g>
<g>
	<g>
		<path d="M-5375.7-764.5c79.7-17.8,160.5-30.3,241.8-37.3c8-0.7,8-13.2,0-12.5c-82.5,7.1-164.4,19.7-245.2,37.8
			C-5386.9-774.8-5383.6-762.7-5375.7-764.5L-5375.7-764.5z"/>
	</g>
</g>
<g>
	<g>
		<path d="M-5383.8-763.6c60.5,7,121.5,9.2,182.2,14c16.9,1.4,33.9,2.9,50.7,4.9c8,0.9,7.9-11.6,0-12.5c-60.5-7-121.5-9.2-182.2-14
			c-16.9-1.4-33.9-2.9-50.7-4.9C-5391.8-777-5391.7-764.5-5383.8-763.6L-5383.8-763.6z"/>
	</g>
</g>
<g>
	<g>
		<path d="M-5507.7-896.1c88.3,48.6,182.8,84.8,276.7,120.8c26.2,10,52.4,20.1,78.5,30.3c7.5,2.9,10.7-9.1,3.3-12.1
			c-93.3-36.7-187.9-70.4-278.9-112.8c-24.8-11.6-49.3-23.9-73.3-37.1C-5508.4-910.8-5514.8-900-5507.7-896.1L-5507.7-896.1z"/>
	</g>
</g>
<g>
	<g>
		<path d="M-5533.3-967.8c6.8,22.1,13.6,44.1,20.4,66.2c2.4,7.7,14.4,4.4,12.1-3.3c-6.8-22.1-13.6-44.1-20.4-66.2
			C-5523.6-978.8-5535.6-975.6-5533.3-967.8L-5533.3-967.8z"/>
	</g>
</g>
<g>
	<g>
		<path d="M-5528.9-963.5c70.2,29.2,138.3,63.3,203.7,101.9c65.1,38.4,127.7,81.3,187,128.2c33.4,26.5,65.8,54.2,97.2,83.1
			c5.9,5.4,14.8-3.4,8.8-8.8c-56.2-51.9-115.9-100-178.6-143.8c-62.9-44-128.8-83.6-197.2-118.5c-38.5-19.6-77.7-37.6-117.6-54.2
			c-3.1-1.3-6.8,1.4-7.7,4.4C-5534.3-967.6-5532-964.8-5528.9-963.5L-5528.9-963.5z"/>
	</g>
</g>
<g>
	<g>
		<g>
			<path d="M-1067.7-1941.7c-33.1-49.2-62.8-100.6-95.8-149.8c-4.5-6.6-15.3-0.4-10.8,6.3c33.1,49.2,62.8,100.6,95.8,149.8
				C-1074-1928.8-1063.1-1935-1067.7-1941.7L-1067.7-1941.7z"/>
		</g>
	</g>
	<g>
		<g>
			<path d="M-1413.9-2044.8c79.7-17.8,160.5-30.3,241.8-37.3c8-0.7,8-13.2,0-12.5c-82.5,7.1-164.4,19.7-245.2,37.8
				C-1425-2055.1-1421.7-2043-1413.9-2044.8L-1413.9-2044.8z"/>
		</g>
	</g>
	<g>
		<g>
			<path d="M-1422-2043.9c60.5,7,121.5,9.2,182.2,14c16.9,1.4,33.9,2.9,50.7,4.9c8,0.9,7.9-11.6,0-12.5c-60.5-7-121.5-9.2-182.2-14
				c-16.9-1.4-33.9-2.9-50.7-4.9C-1429.9-2057.3-1429.9-2044.8-1422-2043.9L-1422-2043.9z"/>
		</g>
	</g>
	<g>
		<g>
			<path d="M-1545.9-2176.4c88.3,48.6,182.8,84.8,276.7,120.8c26.2,10,52.4,20.1,78.5,30.3c7.5,2.9,10.7-9.1,3.3-12.1
				c-93.3-36.7-187.9-70.4-278.9-112.8c-24.8-11.6-49.3-23.9-73.3-37.1C-1546.6-2191.1-1552.9-2180.3-1545.9-2176.4L-1545.9-2176.4z
				"/>
		</g>
	</g>
	<g>
		<g>
			<path d="M-1571.4-2248.2c6.8,22.1,13.6,44.1,20.4,66.2c2.4,7.7,14.4,4.4,12.1-3.3c-6.8-22.1-13.6-44.1-20.4-66.2
				C-1561.7-2259.1-1573.8-2255.9-1571.4-2248.2L-1571.4-2248.2z"/>
		</g>
	</g>
	<g>
		<g>
			<path d="M-1567.1-2243.8c70.2,29.2,138.3,63.3,203.7,101.9c65.1,38.4,127.7,81.3,187,128.2c33.4,26.5,65.8,54.2,97.2,83.1
				c5.9,5.4,14.8-3.4,8.8-8.8c-56.2-51.9-115.9-100-178.6-143.8c-62.9-44-128.8-83.6-197.2-118.5c-38.5-19.6-77.7-37.6-117.6-54.2
				c-3.1-1.3-6.8,1.4-7.7,4.4C-1572.5-2247.9-1570.2-2245.1-1567.1-2243.8L-1567.1-2243.8z"/>
		</g>
	</g>
</g>
<g>
	<g>
		<g>
			<path d="M-799.4-2789.8c-16.3,33.4-34.9,65.7-51.2,99.1c-4.2,8.6,8.7,16.3,13,7.6c16.3-33.4,34.9-65.7,51.2-99.1
				C-782.2-2790.9-795.2-2798.5-799.4-2789.8L-799.4-2789.8z"/>
		</g>
	</g>
	<g>
		<g>
			<path d="M-741.9-2548.5c-34.3-44.9-65.9-91.8-94.7-140.4c-4.9-8.3-17.9-0.8-13,7.6c28.8,48.6,60.4,95.4,94.7,140.4
				c2.5,3.2,6.4,4.9,10.3,2.7C-741.4-2540-739.5-2545.3-741.9-2548.5L-741.9-2548.5z"/>
		</g>
	</g>
	<g>
		<g>
			<path d="M-738.9-2542.9c-18.9-50.2-42.2-98.6-61.1-148.9c-3.4-9-17.9-5.1-14.5,4c18.9,50.2,42.2,98.6,61.1,148.8
				C-750-2529.9-735.5-2533.8-738.9-2542.9L-738.9-2542.9z"/>
		</g>
	</g>
	<g>
		<g>
			<path d="M-772.4-2431.3c-0.9-67.8-10.4-135.2-19.7-202.2c-2.6-18.8-5.2-37.5-7.7-56.3c-0.5-4-3.1-7.5-7.5-7.5
				c-3.6,0-8,3.5-7.5,7.5c8.8,67.3,19.7,134.5,24.8,202.2c1.4,18.7,2.3,37.5,2.6,56.3C-787.3-2421.6-772.3-2421.6-772.4-2431.3
				L-772.4-2431.3z"/>
		</g>
	</g>
	<g>
		<g>
			<path d="M-804.2-2393.8c9.8-10.1,19.6-20.1,29.3-30.2c6.7-6.9-3.9-17.5-10.6-10.6c-9.8,10.1-19.6,20.1-29.3,30.2
				C-821.5-2397.5-811-2386.9-804.2-2393.8L-804.2-2393.8z"/>
		</g>
	</g>
	<g>
		<g>
			<path d="M-802-2399.1c-11.4-100.5-10.6-202.6,3.9-302.8c4-27.5,9-54.9,14.9-82.1c2.1-9.4-12.4-13.4-14.5-4
				c-21.6,98.7-30.3,200.1-26.1,301c1.2,29.3,3.5,58.6,6.8,87.8c0.5,4,3.1,7.5,7.5,7.5C-805.8-2391.6-801.6-2395.1-802-2399.1
				L-802-2399.1z"/>
		</g>
	</g>
</g>
<path class="st3" d="M-2961-1115.9c-5.7-8.5-10.8-17.4-16.5-25.9c-0.3-0.4-0.7-0.5-1-0.5c-0.1,0-0.3-0.1-0.5-0.1
	c-4.7,0.4-9.3,0.9-13.9,1.5c-10.7-7.4-21.8-14.1-33.4-20c-6.6-3.4-13.4-6.5-20.3-9.4c-0.3-0.1-0.7,0-1,0.2c-0.3,0.2-0.5,0.6-0.4,1
	c0,0,0,0.1,0,0.1c0,0,0,0,0,0c1.2,3.8,2.3,7.6,3.5,11.4c0.1,0.3,0.3,0.5,0.5,0.6c0.1,0.1,0.2,0.2,0.4,0.3
	c12.4,6.8,25.6,12.3,38.8,17.4c-5.6,0.9-11.1,2-16.6,3.2c-0.1,0-0.2,0.1-0.3,0.1c-0.2,0-0.3,0-0.5-0.1c-1.4-0.2-1.4,2,0,2.2
	c10.5,1.2,21,1.6,31.5,2.4c2.8,0.2,5.6,0.5,8.4,0.8c0.9,0.7,1.7,1.3,2.6,2c5.8,4.6,11.4,9.4,16.8,14.4c0.7,0.7,1.7,0.1,1.9-0.7
	C-2960.8-1115-2960.7-1115.5-2961-1115.9z M-3029.8-1151.9c-4.3-2-8.5-4.1-12.7-6.4c0,0,0,0,0,0c-0.9-3-1.8-6-2.7-8.9
	c11.4,4.8,22.5,10.5,33.2,16.8c5.4,3.2,10.7,6.6,15.9,10.1c-1.5,0.2-3,0.4-4.4,0.7C-3010.4-1143.5-3020.3-1147.5-3029.8-1151.9z
	 M-2993.5-1138.6c1.6,1.1,3.2,2.2,4.7,3.4c-2.6-1-5.1-2-7.7-3C-2995.5-1138.3-2994.5-1138.5-2993.5-1138.6z M-3013.4-1134.9
	c-0.4,0-0.9-0.1-1.3-0.1c4.6-0.9,9.3-1.8,14-2.5c1.7,0.6,3.3,1.3,5,1.9c2,0.8,4.1,1.6,6.1,2.4
	C-2997.6-1133.9-3005.5-1134.3-3013.4-1134.9z M-2990.4-1139c3.8-0.5,7.5-0.9,11.3-1.2c4.5,6.7,8.7,13.7,13,20.5
	C-2973.8-1126.5-2981.9-1133-2990.4-1139z"/>
<path class="st4" d="M-860.5-2796.3c-8.9-10.8-17.1-22.2-26.1-33c-0.4-0.5-1-0.6-1.5-0.5c-0.2,0-0.4-0.1-0.6,0
	c-6.3,1.2-12.6,2.5-18.8,4c-15.6-8.7-31.7-16.3-48.3-22.8c-9.5-3.7-19.2-7-29-10c-0.5-0.1-1,0.1-1.3,0.5c-0.4,0.3-0.5,0.8-0.3,1.4
	c0,0,0,0.1,0,0.1c0,0,0,0,0,0c2.1,5,4.2,10.1,6.4,15.1c0.2,0.4,0.5,0.7,0.8,0.8c0.1,0.2,0.3,0.3,0.5,0.4
	c17.9,7.7,36.6,13.3,55.3,18.5c-7.5,2-14.9,4.3-22.2,6.7c-0.2,0.1-0.3,0.1-0.4,0.2c-0.2,0-0.5,0-0.7,0c-1.9,0-1.6,2.9,0.3,2.9
	c14.4,0.2,28.8-0.7,43.3-1c3.8-0.1,7.7-0.1,11.5,0c1.3,0.8,2.5,1.6,3.8,2.4c8.5,5.5,16.8,11.2,24.9,17.3c1.1,0.8,2.4-0.1,2.4-1.2
	C-860.1-2795-860-2795.7-860.5-2796.3z M-959.3-2836.1c-6.1-2.1-12.2-4.5-18.1-7c0,0,0,0,0,0c-1.7-3.9-3.3-7.9-5-11.8
	c16.2,5.1,32.1,11.2,47.6,18.4c7.8,3.6,15.5,7.5,23.1,11.6c-2,0.5-4,1-6,1.5C-931.7-2827.3-945.7-2831.3-959.3-2836.1z M-908-2822.8
	c2.3,1.3,4.6,2.6,6.9,4c-3.6-1-7.3-2-10.9-3C-910.7-2822.2-909.3-2822.5-908-2822.8z M-934.6-2815.1c-0.6,0-1.2,0-1.8,0
	c6.2-1.9,12.4-3.7,18.7-5.3c2.4,0.7,4.7,1.3,7.1,1.9c2.9,0.8,5.8,1.6,8.7,2.4C-912.9-2815.9-923.8-2815.3-934.6-2815.1z
	 M-903.7-2823.8c5.1-1.1,10.2-2.2,15.3-3.2c7.1,8.6,13.7,17.5,20.6,26.2C-879.4-2809-891.4-2816.7-903.7-2823.8z"/>
<g>
	<path d="M-791.3-2754.9c3.3-0.8,7.2-1.6,11.8-2.5c3.7-0.8,8.3-1.4,13.9-1.9c5.6-0.4,11.8-0.8,18.9-1.2c0,2.9,1.2,9.9,3.7,21
		c2.5,11.1,7.5,22.9,15.2,35.3c7.6,12.4,18.9,23.5,33.7,33.4c14.8,9.9,35,14.8,60.6,14.8v-126.2c-9.9-1.2-20.6-2.7-32.2-4.3
		c-9.9-1.2-21.2-2.4-34-3.4c-12.8-1-26.2-1.5-40.2-1.5c-16.8,0-32.3,1-46.7,3L-791.3-2754.9z"/>
	<path d="M-656.5-2529.2v19.2c0,15.3-2.4,28.4-7.1,39.3c-4.7,10.9-11.2,19.8-19.5,26.6c-8.3,6.8-18,11.8-29.4,14.8
		c-11.3,3.1-23.8,4.6-37.4,4.6c-14.4,0-24.9-0.6-31.5-1.9c-4.1-0.8-7.4-1.6-9.9-2.5c-0.7-2.8-1.4-5.7-2.1-8.7l-0.2,0.3l6,42.6
		c11.8,1.5,24.3,2.2,37.7,2.2c17.3,0,33.7-2.3,49.2-6.8c15.5-4.5,29.2-11.6,41.1-21.3c12-9.7,21.4-22.1,28.4-37.1
		c7-15,10.5-33.1,10.5-54.1v-17.3H-656.5z"/>
</g>
<g>
	<g>
		<path d="M-4390.8-941.1c43.4,84.7,86.9,169.5,130.3,254.2c12.3,23.9,24.5,47.8,36.8,71.7c3.7,7.2,14.5,0.8,10.8-6.3
			c-43.4-84.7-86.9-169.5-130.3-254.2c-12.3-23.9-24.5-47.8-36.8-71.7C-4383.6-954.6-4394.4-948.3-4390.8-941.1L-4390.8-941.1z"/>
	</g>
</g>
<g>
	<g>
		<path d="M-4212.8-616.8c2.7-11.3,5.3-22.6,8-33.9c-2,1.5-4,3.1-6,4.6c14.2,0.3,28,3,41.2,8.1c7.5,2.8,10.8-9.2,3.3-12.1
			c-14.3-5.4-29.3-8.2-44.6-8.5c-2.7-0.1-5.4,2-6,4.6c-2.7,11.3-5.3,22.6-8,33.9C-4226.7-612.3-4214.7-609-4212.8-616.8
			L-4212.8-616.8z"/>
	</g>
</g>
<g>
	<g>
		<path d="M-4311.6-963.5c34.4,85.6,71.3,170.1,110.6,253.5c11.2,23.7,22.6,47.4,34.2,70.9c3.6,7.2,14.3,0.9,10.8-6.3
			c-40.4-82.1-78.4-165.3-113.9-249.6c-10.1-23.9-19.9-47.8-29.6-71.9C-4302.5-974.2-4314.6-971-4311.6-963.5L-4311.6-963.5z"/>
	</g>
</g>
<g>
	<g>
		<path d="M-4391.9-940.8c60.9,73.8,118.9,149.9,173.8,228.2c15.5,22.1,30.7,44.4,45.7,66.8c4.4,6.7,15.3,0.4,10.8-6.3
			c-53.6-80.1-110.3-158.2-170-233.9c-16.9-21.4-34.1-42.7-51.4-63.7C-4388.1-955.8-4396.9-946.9-4391.9-940.8L-4391.9-940.8z"/>
	</g>
</g>
<g>
	<g>
		<g>
			<path d="M-3234.3-1754.7c39.2,10.6,78.4,21.2,117.6,31.8c7.8,2.1,11.1-10,3.3-12.1c-39.2-10.6-78.4-21.2-117.6-31.8
				C-3238.7-1768.8-3242.1-1756.8-3234.3-1754.7L-3234.3-1754.7z"/>
		</g>
	</g>
	<g>
		<g>
			<path d="M-3109.6-1732.1c-2.3-3.7-3.6-7.9-6-11.6c-0.3,2.5-0.7,5-1,7.6c3-3.2,5.7-6.8,9.6-8.9c7-3.9,0.7-14.7-6.3-10.8
				c-4.9,2.7-8.4,6.8-12.2,10.9c-1.8,2-2.5,5.2-1,7.6c2.3,3.7,3.6,7.9,6,11.6C-3116.1-1719-3105.3-1725.2-3109.6-1732.1
				L-3109.6-1732.1z"/>
		</g>
	</g>
	<g>
		<g>
			<path d="M-3220.5-1780.2c36.3,13.4,73.5,24,110.6,34.7c7.7,2.2,11.1-9.8,3.3-12.1c-37.1-10.7-74.3-21.3-110.6-34.7
				C-3224.7-1795.1-3228-1783-3220.5-1780.2L-3220.5-1780.2z"/>
		</g>
	</g>
	<g>
		<g>
			<path d="M-3233.3-1757.5c40.4,1.9,80.6,5.8,120.6,11.8c3.4,0.5,6.7-0.8,7.7-4.4c0.8-2.9-1-7.2-4.4-7.7
				c-41.1-6.1-82.4-10.2-123.9-12.2C-3241.4-1770.4-3241.3-1757.9-3233.3-1757.5L-3233.3-1757.5z"/>
		</g>
	</g>
</g>
<path d="M-3134.5-1640.7v11.3c0,9-1.4,16.7-4.2,23.2c-2.8,6.5-6.6,11.7-11.5,15.7c-4.9,4-10.7,6.9-17.3,8.8
	c-6.7,1.8-14.1,2.7-22.1,2.7c-8.5,0-14.7-0.4-18.6-1.1c-2.4-0.5-4.4-1-5.8-1.5c-2.2-8.8-4-18.3-5.5-28.5c-1.2-8.8-2.4-18.9-3.5-30.5
	c-1.1-11.6-1.6-24-1.6-37.4c0-13.1,0.5-25.6,1.6-37.3c1.1-11.7,2.2-21.9,3.5-30.7c0.4-2.8,0.8-5.5,1.3-8.2l-0.9-1.5l-1.4-36.7
	c-4.3,0.9-8.4,1.9-12.3,3.1c-13.8,4.3-25.1,11.1-34,20.6c-8.9,9.5-15.5,21.7-19.7,36.5c-4.3,14.9-6.4,32.9-6.4,54.1
	c0,21.2,2.1,39.3,6.2,54.2c4.1,15,10.5,27.2,19.2,36.7c8.6,9.5,19.4,16.4,32.3,20.6c12.9,4.3,28.1,6.4,45.7,6.4
	c10.2,0,19.9-1.3,29-4c9.1-2.7,17.2-6.9,24.3-12.6c7.1-5.7,12.7-13,16.8-21.9c4.1-8.9,6.2-19.5,6.2-32v-10.2H-3134.5z"/>
<g>
	<g>
		<g>
			<path d="M-2087.3-944.9c7.6,24.7,17.7,48.6,30.1,71.3c3.9,7.1,14.7,0.8,10.8-6.3c-11.9-21.8-21.5-44.6-28.8-68.3
				C-2077.6-955.9-2089.7-952.6-2087.3-944.9L-2087.3-944.9z"/>
		</g>
	</g>
	<g>
		<g>
			<path d="M-2086.5-943.8c12.8,21.8,27.7,42.1,44.5,61c5.3,6,14.2-2.8,8.8-8.8c-16.1-18.1-30.2-37.6-42.5-58.5
				C-2079.7-957-2090.6-950.8-2086.5-943.8L-2086.5-943.8z"/>
		</g>
	</g>
	<g>
		<g>
			<path d="M-2079.5-941.5c28.2-7,57.7-6.5,85.7,1.3c7.8,2.2,11.1-9.9,3.3-12.1c-30.2-8.4-62-8.8-92.4-1.3
				C-2090.6-951.6-2087.3-939.5-2079.5-941.5L-2079.5-941.5z"/>
		</g>
	</g>
	<g>
		<g>
			<path d="M-1995.1-949.9c-21.8,23.6-41.5,49-59,76c3.6,0,7.2,0,10.8,0c-6.8-10.3-16.4-17.3-25.6-25.3c-2.3-2-4.5-4-6.6-6.2
				c-1-1.1-2-2.2-3-3.3c-0.3-0.4-0.6-0.7-0.9-1.1c-0.6-1.7-1.2-1.6-1.6,0.1c-2.5,2.6,2,0.3,2.9,0c1.6-0.6,3.2-1.1,4.9-1.6
				c3.3-1.1,6.5-2,9.8-3c26-7.4,53-12.3,76.7-26c5.1-2.9,3.2-12.2-3.2-11.6c-1,0.1-1.9,0.1-2.9,0.1c-8,0.6-8,13.2,0,12.5
				c1-0.1,1.9-0.1,2.9-0.1c-1.1-3.9-2.1-7.8-3.2-11.6c-26.2,15.1-56.8,18.8-85.2,28.2c-5.9,2-14.6,3.7-14.9,11.4
				c-0.2,6.3,6,12.3,10.2,16.5c9.4,9.2,21.3,16.2,28.6,27.3c2.6,4,8.2,4.1,10.8,0c16.9-26.1,35.9-50.6,57-73.5
				C-1980.8-946.9-1989.7-955.8-1995.1-949.9L-1995.1-949.9z"/>
		</g>
	</g>
</g>
<path d="M-1989.6-952.1v21.2v49.2v133.6h-32.6v21.2h126.7v-21.2h-32.6v-182.8h20.5c0.2,4.2,1.1,9,2.6,14.5s4.2,10.7,8.2,15.6
	c4,4.9,9.6,9.1,16.9,12.6c7.2,3.5,16.8,5.3,28.8,5.3v-69.2H-1989.6z"/>
<g>
	<path d="M-1526.2-815.1h-16.9v68.5h21.6v18.7h-101.1v-18.7h21.6v-188.3h-21.6v-18.3h21.6l57.9-10.6v128.9h25.3
		c11.5,0,43.8-0.1,46.5,7l35.9,81.7h4.4c2,0,3.9-0.1,5.9-0.4c2.2-0.2,4.5-0.5,7-0.7v17.6c-2.9,0.7-6.5,1.3-10.6,1.8
		c-3.4,0.5-7.8,0.9-13.2,1.1c-5.4,0.2-11.7,0.4-19,0.4c-5.6,0-10.4-0.5-14.3-1.5c-3.9-1-7.2-2.4-9.9-4.2c-2.7-1.8-4.9-4-6.8-6.6
		c-1.8-2.6-3.5-5.6-4.9-9L-1526.2-815.1z"/>
</g>
<g>
	<g>
		<path d="M-1493.9-841.1c3.2,0,3.2-5,0-5C-1497.1-846.1-1497.1-841.1-1493.9-841.1L-1493.9-841.1z"/>
	</g>
</g>
<g>
	<g>
		<path class="st0" d="M-1491.7-864.1c2.7,2.1,5.5,4.1,8.2,6.2"/>
		<g>
			<path d="M-1494.9-858.7c2.7,2.1,5.5,4.1,8.2,6.2c2.6,2,7.1,0.5,8.6-2.2c1.7-3.3,0.6-6.4-2.2-8.6c-2.7-2.1-5.5-4.1-8.2-6.2
				c-2.6-2-7.1-0.5-8.6,2.2C-1498.9-863.9-1497.7-860.8-1494.9-858.7L-1494.9-858.7z"/>
		</g>
	</g>
	<g>
		<g>
			<path d="M-1493.2-871c-20.3,0.7-40.5-5.5-60.8-6.9c-8-0.6-8,11.9,0,12.5c20.2,1.4,40.4,7.7,60.8,6.9
				C-1485.1-858.8-1485.1-871.3-1493.2-871L-1493.2-871z"/>
		</g>
	</g>
	<g>
		<g>
			<path d="M-1554.2-862.1c20.2,13,44,19.5,64.2,32.5c6.8,4.4,13.1-6.5,6.3-10.8c-20.2-13-44-19.5-64.2-32.5
				C-1554.6-877.2-1560.9-866.4-1554.2-862.1L-1554.2-862.1z"/>
		</g>
	</g>
	<g>
		<g>
			<path d="M-1492.9-807.8c21.4-44.1,45.4-87.2,70.8-129.1c4.2-6.9-6.6-13.2-10.8-6.3c-25.4,41.9-49.4,85-70.8,129.1
				C-1507.2-806.9-1496.5-800.6-1492.9-807.8L-1492.9-807.8z"/>
		</g>
	</g>
	<g>
		<g>
			<path d="M-1428.5-936.9c4.4,0.6,8.8,1.1,13.2,1.7c3.4,0.4,6.2-3.2,6.2-6.2c0-3.7-2.9-5.8-6.2-6.2c-4.4-0.6-8.8-1.1-13.2-1.7
				c-3.4-0.4-6.2,3.2-6.2,6.2C-1434.7-939.4-1431.8-937.4-1428.5-936.9L-1428.5-936.9z"/>
		</g>
	</g>
	<g>
		<g>
			<path d="M-1434.2-947.1c-24.8,31.7-49.6,63.4-74.4,95c-4.9,6.3,3.9,15.2,8.8,8.8c24.8-31.7,49.6-63.4,74.4-95
				C-1420.5-944.5-1429.3-953.4-1434.2-947.1L-1434.2-947.1z"/>
		</g>
	</g>
	<g>
		<g>
			<path d="M-1554.6-860.5c16.1,17.1,34.7,32.5,48.9,51.3c2.5,3.3,6.4,4.9,10.3,2.7c3.2-1.8,5.1-7,2.7-10.3
				c-15.1-19.9-34.2-36.2-51.3-54.3C-1550.6-878.1-1561.2-867.5-1554.6-860.5L-1554.6-860.5z"/>
		</g>
	</g>
</g>
<g>
	<g>
		<g>
			<path d="M-1772.5-916c39.2,10.6,78.4,21.2,117.6,31.8c7.8,2.1,11.1-10,3.3-12.1c-39.2-10.6-78.4-21.2-117.6-31.8
				C-1777-930.1-1780.3-918.1-1772.5-916L-1772.5-916z"/>
		</g>
	</g>
	<g>
		<g>
			<path d="M-1647.9-893.4c-2.3-3.7-3.6-7.9-6-11.6c-0.3,2.5-0.7,5-1,7.6c3-3.2,5.7-6.8,9.6-8.9c7-3.9,0.7-14.7-6.3-10.8
				c-4.9,2.7-8.4,6.8-12.2,10.9c-1.8,2-2.5,5.2-1,7.6c2.3,3.7,3.6,7.9,6,11.6C-1654.4-880.3-1643.6-886.5-1647.9-893.4
				L-1647.9-893.4z"/>
		</g>
	</g>
	<g>
		<g>
			<path d="M-1758.7-941.5c36.3,13.4,73.5,24,110.6,34.7c7.7,2.2,11.1-9.8,3.3-12.1c-37.1-10.7-74.3-21.3-110.6-34.7
				C-1762.9-956.3-1766.2-944.3-1758.7-941.5L-1758.7-941.5z"/>
		</g>
	</g>
	<g>
		<g>
			<path d="M-1771.6-918.8c40.4,1.9,80.6,5.8,120.6,11.8c3.4,0.5,6.7-0.8,7.7-4.4c0.8-2.9-1-7.2-4.4-7.7
				c-41.1-6.1-82.4-10.2-123.9-12.2C-1779.6-931.6-1779.6-919.1-1771.6-918.8L-1771.6-918.8z"/>
		</g>
	</g>
</g>
<path d="M-1672.8-802v11.3c0,9-1.4,16.7-4.2,23.2c-2.8,6.5-6.6,11.7-11.5,15.7c-4.9,4-10.7,6.9-17.3,8.8c-6.7,1.8-14.1,2.7-22.1,2.7
	c-8.5,0-14.7-0.4-18.6-1.1c-2.4-0.5-4.4-1-5.8-1.5c-2.2-8.8-4-18.3-5.5-28.5c-1.2-8.8-2.4-18.9-3.5-30.5c-1.1-11.6-1.6-24-1.6-37.4
	c0-13.1,0.5-25.6,1.6-37.3c1.1-11.7,2.2-21.9,3.5-30.7c0.4-2.8,0.8-5.5,1.3-8.2l-0.9-1.5l-1.4-36.7c-4.3,0.9-8.4,1.9-12.3,3.1
	c-13.8,4.3-25.1,11.1-34,20.6c-8.9,9.5-15.5,21.7-19.7,36.5c-4.3,14.9-6.4,32.9-6.4,54.1s2.1,39.3,6.2,54.2
	c4.1,15,10.5,27.2,19.2,36.7c8.6,9.5,19.4,16.4,32.3,20.6c12.9,4.3,28.1,6.4,45.7,6.4c10.2,0,19.9-1.3,29-4
	c9.1-2.7,17.2-6.9,24.3-12.6c7.1-5.7,12.7-13,16.8-21.9c4.1-8.9,6.2-19.5,6.2-32V-802H-1672.8z"/>
<path d="M-993.2-994.4c-0.3-0.1-0.5-0.2-0.8-0.3c-30.2-8.4-62-8.8-92.4-1.3c-2.6,0.6-4,2.4-4.3,4.4c-0.6,1.2-0.7,2.6-0.2,4.2
	c2.3,7.6,4.9,15.2,7.7,22.6c-5.8,1.8-13.1,3.9-13.3,10.9c-0.2,6.3,6,12.3,10.2,16.5c9.4,9.2,21.3,16.2,28.6,27.3
	c2.6,4,8.2,4.1,10.8,0c16-24.7,33.9-48,53.7-69.8v6.4v49.2v133.6h-32.6v21.2h126.7v-21.2h-32.6v-182.8h20.5c0.2,4.2,1.1,9,2.6,14.5
	s4.2,10.7,8.2,15.6c4,4.9,9.6,9.1,16.9,12.6c7.2,3.5,16.8,5.3,28.8,5.3v-69.2h-138.5V-994.4z M-1041.6-939.8
	c-5.4-6.4-10.6-12.9-15.6-19.6c13.2-3.5,26.5-6.7,39.4-11.1C-1026.1-960.5-1034-950.3-1041.6-939.8z M-1051.7-925.4
	c-3.1-5.9-6.1-11.8-8.9-17.9c3.7,4.8,7.6,9.4,11.6,14C-1049.9-928-1050.8-926.7-1051.7-925.4z M-1011.8-986
	c-17.1,7-35.3,10.9-53.2,15.8c-3.5-5.1-6.8-10.2-10.1-15.5C-1054.1-989.8-1032.7-989.9-1011.8-986z M-1082-951.1
	c-0.2-0.2-0.3-0.4-0.5-0.6c0.4-0.2,0.7-0.3,0.9-0.4c1-0.3,2-0.7,3-1c1.4,3.3,2.8,6.6,4.2,9.8c-1.6-1.5-3.2-2.9-4.7-4.5
	C-1080.1-948.9-1081.1-950-1082-951.1z"/>
<path d="M-69.7-994.4c-0.3-0.1-0.5-0.2-0.8-0.3c-30.2-8.4-62-8.8-92.4-1.3c-2.6,0.6-4,2.4-4.3,4.4c-0.6,1.2-0.7,2.6-0.2,4.2
	c2.3,7.6,4.9,15.2,7.7,22.6c-5.8,1.8-13.1,3.9-13.3,10.9c-0.2,6.3,6,12.3,10.2,16.5c9.4,9.2,21.3,16.2,28.6,27.3
	c2.6,4,8.2,4.1,10.8,0c16-24.7,33.9-48,53.7-69.8v6.4v49.2v133.6h-32.6v21.2H24.4v-21.2H-8.2v-182.8h20.5c0.2,4.2,1.1,9,2.6,14.5
	s4.2,10.7,8.2,15.6c4,4.9,9.6,9.1,16.9,12.6c7.2,3.5,16.8,5.3,28.8,5.3v-69.2H-69.7V-994.4z M-118.2-939.8
	c-5.4-6.4-10.6-12.9-15.6-19.6c13.2-3.5,26.5-6.7,39.4-11.1C-102.6-960.5-110.6-950.3-118.2-939.8z M-128.2-925.4
	c-3.1-5.9-6.1-11.8-8.9-17.9c3.7,4.8,7.6,9.4,11.6,14C-126.4-928-127.3-926.7-128.2-925.4z M-88.3-986c-17.1,7-35.3,10.9-53.2,15.8
	c-3.5-5.1-6.8-10.2-10.1-15.5C-130.7-989.8-109.3-989.9-88.3-986z M-158.5-951.1c-0.2-0.2-0.3-0.4-0.5-0.6c0.4-0.2,0.7-0.3,0.9-0.4
	c1-0.3,2-0.7,3-1c1.4,3.3,2.8,6.6,4.2,9.8c-1.6-1.5-3.2-2.9-4.7-4.5C-156.6-948.9-157.6-950-158.5-951.1z"/>
<path d="M-69.7-487.4c-0.3-0.1-0.5-0.2-0.8-0.3c-30.2-8.4-62-8.8-92.4-1.3c-2.6,0.6-4,2.4-4.3,4.4c-0.6,1.2-0.7,2.6-0.2,4.2
	c2.3,7.6,4.9,15.2,7.7,22.6c-5.8,1.8-13.1,3.9-13.3,10.9c-0.2,6.3,6,12.3,10.2,16.5c9.4,9.2,21.3,16.2,28.6,27.3
	c2.6,4,8.2,4.1,10.8,0c16-24.7,33.9-48,53.7-69.8v6.4v49.2v133.6h-32.6v21.2H24.4v-21.2H-8.2v-182.8h20.5c0.2,4.2,1.1,9,2.6,14.5
	s4.2,10.7,8.2,15.6c4,4.9,9.6,9.1,16.9,12.6c7.2,3.5,16.8,5.3,28.8,5.3v-69.2H-69.7V-487.4z M-118.2-432.7
	c-5.4-6.4-10.6-12.9-15.6-19.6c13.2-3.5,26.5-6.7,39.4-11.1C-102.6-453.5-110.6-443.2-118.2-432.7z M-128.2-418.3
	c-3.1-5.9-6.1-11.8-8.9-17.9c3.7,4.8,7.6,9.4,11.6,14C-126.4-420.9-127.3-419.6-128.2-418.3z M-88.3-478.9
	c-17.1,7-35.3,10.9-53.2,15.8c-3.5-5.1-6.8-10.2-10.1-15.5C-130.7-482.7-109.3-482.8-88.3-478.9z M-158.5-444.1
	c-0.2-0.2-0.3-0.4-0.5-0.6c0.4-0.2,0.7-0.3,0.9-0.4c1-0.3,2-0.7,3-1c1.4,3.3,2.8,6.6,4.2,9.8c-1.6-1.5-3.2-2.9-4.7-4.5
	C-156.6-441.8-157.6-442.9-158.5-444.1z"/>
<path d="M-418.9-990.2c-4.4-0.6-8.8-1.1-13.2-1.7c-0.6-0.1-1.3,0-1.8,0.2c-1.4,0-2.8,0.7-3.9,2.2c-19.9,25.4-39.7,50.7-59.6,76.1
	c-16.4,0.5-32.8-3.5-49.2-5.8v-87l-57.9,10.6h-21.6v18.3h21.6v188.3h-21.6v18.7H-525v-18.7h-21.6v-68.5h16.9l29.3,67.4
	c1.5,3.4,3.1,6.4,4.9,9c1.8,2.6,4.1,4.8,6.8,6.6c2.7,1.8,6,3.2,9.9,4.2c3.9,1,8.7,1.5,14.3,1.5c7.3,0,13.7-0.1,19-0.4
	c5.4-0.2,9.8-0.6,13.2-1.1c4.2-0.5,7.7-1.1,10.6-1.8v-17.6c-2.4,0.2-4.8,0.5-7,0.7c-2,0.2-3.9,0.4-5.9,0.4h-4.4l-35.9-81.7
	c-0.8-2.2-4.4-3.7-9.4-4.7c18-35.2,37.5-69.8,58-103.6c2.4,0.3,4.9,0.6,7.3,0.9c3.4,0.4,6.2-3.2,6.2-6.2
	C-412.6-987.7-415.5-989.8-418.9-990.2z M-511.5-895.6c-6.5-2.9-13-5.7-19.4-8.7c7.9,1.3,15.9,2.6,23.8,3.1
	C-508.5-899.3-510-897.4-511.5-895.6z M-519.8-885.7c6.1,2.7,12.1,5.5,17.9,8.7c-3.4-0.2-6.7-0.3-9.8-0.3
	C-514.4-880.1-517.1-882.9-519.8-885.7z M-492.6-886.1c-2.4-1.4-4.9-2.7-7.4-4c2-2.6,4-5.1,6-7.7c1.2,0.9,2.5,1.9,3.7,2.8
	c0.6,0.4,1.2,0.7,1.9,0.8C-489.8-891.5-491.2-888.8-492.6-886.1z M-484-905.8c-0.8-0.6-1.6-1.2-2.3-1.8c5.6-7.1,11.1-14.2,16.7-21.3
	c-4.5,8-8.9,16.1-13.2,24.1C-483.1-905.1-483.5-905.4-484-905.8z M-546.6-891.2c4.7,4.6,9.5,9.2,14.2,13.9h-14.2V-891.2z"/>
<path d="M1033.4-990.2c-4.4-0.6-8.8-1.1-13.2-1.7c-0.6-0.1-1.3,0-1.8,0.2c-1.4,0-2.8,0.7-3.9,2.2c-19.9,25.4-39.7,50.7-59.6,76.1
	c-16.4,0.5-32.8-3.5-49.2-5.8v-87l-57.9,10.6h-21.6v18.3h21.6v188.3h-21.6v18.7h101.1v-18.7h-21.6v-68.5h16.9l29.3,67.4
	c1.5,3.4,3.1,6.4,4.9,9c1.8,2.6,4.1,4.8,6.8,6.6c2.7,1.8,6,3.2,9.9,4.2c3.9,1,8.7,1.5,14.3,1.5c7.3,0,13.7-0.1,19-0.4
	c5.4-0.2,9.8-0.6,13.2-1.1c4.2-0.5,7.7-1.1,10.6-1.8v-17.6c-2.4,0.2-4.8,0.5-7,0.7c-2,0.2-3.9,0.4-5.9,0.4h-4.4l-35.9-81.7
	c-0.8-2.2-4.4-3.7-9.4-4.7c18-35.2,37.5-69.8,58-103.6c2.4,0.3,4.9,0.6,7.3,0.9c3.4,0.4,6.2-3.2,6.2-6.2
	C1039.6-987.7,1036.7-989.8,1033.4-990.2z M940.8-895.6c-6.5-2.9-13-5.7-19.4-8.7c7.9,1.3,15.9,2.6,23.8,3.1
	C943.7-899.3,942.2-897.4,940.8-895.6z M932.4-885.7c6.1,2.7,12.1,5.5,17.9,8.7c-3.4-0.2-6.7-0.3-9.8-0.3
	C937.9-880.1,935.2-882.9,932.4-885.7z M959.7-886.1c-2.4-1.4-4.9-2.7-7.4-4c2-2.6,4-5.1,6-7.7c1.2,0.9,2.5,1.9,3.7,2.8
	c0.6,0.4,1.2,0.7,1.9,0.8C962.5-891.5,961.1-888.8,959.7-886.1z M968.3-905.8c-0.8-0.6-1.6-1.2-2.3-1.8c5.6-7.1,11.1-14.2,16.7-21.3
	c-4.5,8-8.9,16.1-13.2,24.1C969.1-905.1,968.7-905.4,968.3-905.8z M905.6-891.2c4.7,4.6,9.5,9.2,14.2,13.9h-14.2V-891.2z"/>
<path d="M591.1-480c-4.3-0.6-8.7-1.1-13-1.7c-0.6-0.1-1.2,0-1.8,0.2c-1.3,0-2.7,0.7-3.9,2.1c-19.5,25-39.1,49.9-58.6,74.9
	c-16.2,0.5-32.3-3.5-48.4-5.7v-85.6l-56.9,10.5h-21.3v18h21.3v185.3h-21.3v18.4h99.5v-18.4h-21.3v-67.4H482l28.8,66.3
	c1.4,3.4,3.1,6.3,4.9,8.8c1.8,2.5,4,4.7,6.7,6.5c2.6,1.8,5.9,3.2,9.7,4.1c3.8,1,8.5,1.4,14.1,1.4c7.2,0,13.5-0.1,18.7-0.4
	c5.3-0.2,9.6-0.6,13-1.1c4.1-0.5,7.6-1.1,10.5-1.8v-17.3c-2.4,0.2-4.7,0.5-6.8,0.7c-1.9,0.2-3.8,0.4-5.8,0.4h-4.3l-35.3-80.4
	c-0.8-2.1-4.4-3.6-9.2-4.6c17.7-34.7,36.9-68.7,57.1-101.9c2.4,0.3,4.8,0.6,7.2,0.9c3.3,0.4,6.1-3.1,6.1-6.1
	C597.3-477.5,594.4-479.6,591.1-480z M500-386.9c-6.3-2.9-12.8-5.6-19.1-8.6c7.8,1.3,15.6,2.5,23.4,3
	C502.9-390.6,501.4-388.7,500-386.9z M491.8-377.2c6,2.7,11.9,5.4,17.6,8.6c-3.3-0.2-6.6-0.2-9.6-0.3
	C497.1-371.7,494.5-374.5,491.8-377.2z M518.6-377.5c-2.4-1.4-4.8-2.7-7.3-4c2-2.5,3.9-5,5.9-7.6c1.2,0.9,2.4,1.8,3.6,2.7
	c0.6,0.4,1.2,0.7,1.9,0.8C521.3-382.9,519.9-380.2,518.6-377.5z M527-396.9c-0.8-0.6-1.5-1.2-2.3-1.7c5.5-7,10.9-14,16.4-21
	c-4.4,7.9-8.7,15.8-13,23.8C527.8-396.3,527.5-396.6,527-396.9z M465.4-382.6c4.6,4.6,9.3,9.1,14,13.6h-14V-382.6z"/>
<path d="M-648.4-961.4c-37.1-10.7-74.3-21.3-110.6-34.7c-1.8-0.7-3.3-0.5-4.5,0.2c-3.9,0.8-7.7,1.8-11.3,2.9
	c-13.8,4.3-25.1,11.1-34,20.6c-8.9,9.5-15.5,21.7-19.7,36.5c-4.3,14.9-6.4,32.9-6.4,54.1s2.1,39.3,6.2,54.2
	c4.1,15,10.5,27.2,19.2,36.7c8.6,9.5,19.4,16.4,32.3,20.6c12.9,4.3,28.1,6.4,45.7,6.4c10.2,0,19.9-1.3,29-4
	c9.1-2.7,17.2-6.9,24.3-12.6c7.1-5.7,12.7-13,16.8-21.9c4.1-8.9,6.2-19.5,6.2-32v-10.2h-21.2v11.3c0,9-1.4,16.7-4.2,23.2
	c-2.8,6.5-6.6,11.7-11.5,15.7c-4.9,4-10.7,6.9-17.3,8.8c-6.7,1.8-14.1,2.7-22.1,2.7c-8.5,0-14.7-0.4-18.6-1.1
	c-2.4-0.5-4.4-1-5.8-1.5c-2.2-8.8-4-18.3-5.5-28.5c-1.2-8.8-2.4-18.9-3.5-30.5c-1.1-11.6-1.6-24-1.6-37.4c0-13.1,0.5-25.6,1.6-37.3
	c1.1-11.7,2.2-21.9,3.5-30.7c0.2-1.6,0.5-3.1,0.7-4.6c34.1,9.2,68.2,18.4,102.3,27.7c2.7,0.7,4.8-0.2,6.2-1.9c1.8-1.7,2.6-4.3,1-7
	c-0.1-0.3-0.3-0.6-0.5-0.9c-1.3-2.2-2.3-4.6-3.4-6.9c1.9-2.1,4-4,6.5-5.4c0.4-0.2,0.7-0.4,1-0.6
	C-643.1-951.3-642.1-959.6-648.4-961.4z M-668.8-942.4c-19.1-5.2-38.2-10.3-57.3-15.5c20.4,1.8,40.7,4.1,61,6.9
	c-0.7,0.8-1.4,1.5-2.1,2.3C-668.8-947-669.5-944.6-668.8-942.4z M-721.1-969.9c-13.5-1.2-27-2.3-40.6-3.1l-0.4-10.9
	C-748.5-978.9-734.8-974.3-721.1-969.9z"/>
<path d="M548.6-961.4c-37.1-10.7-74.3-21.3-110.6-34.7c-1.8-0.7-3.3-0.5-4.5,0.2c-3.9,0.8-7.7,1.8-11.3,2.9
	c-13.8,4.3-25.1,11.1-34,20.6c-8.9,9.5-15.5,21.7-19.7,36.5c-4.3,14.9-6.4,32.9-6.4,54.1s2.1,39.3,6.2,54.2
	c4.1,15,10.5,27.2,19.2,36.7c8.6,9.5,19.4,16.4,32.3,20.6c12.9,4.3,28.1,6.4,45.7,6.4c10.2,0,19.9-1.3,29-4
	c9.1-2.7,17.2-6.9,24.3-12.6c7.1-5.7,12.7-13,16.8-21.9c4.1-8.9,6.2-19.5,6.2-32v-10.2h-21.2v11.3c0,9-1.4,16.7-4.2,23.2
	c-2.8,6.5-6.6,11.7-11.5,15.7c-4.9,4-10.7,6.9-17.3,8.8c-6.7,1.8-14.1,2.7-22.1,2.7c-8.5,0-14.7-0.4-18.6-1.1
	c-2.4-0.5-4.4-1-5.8-1.5c-2.2-8.8-4-18.3-5.5-28.5c-1.2-8.8-2.4-18.9-3.5-30.5c-1.1-11.6-1.6-24-1.6-37.4c0-13.1,0.5-25.6,1.6-37.3
	c1.1-11.7,2.2-21.9,3.5-30.7c0.2-1.6,0.5-3.1,0.7-4.6c34.1,9.2,68.2,18.4,102.3,27.7c2.7,0.7,4.8-0.2,6.2-1.9c1.8-1.7,2.6-4.3,1-7
	c-0.1-0.3-0.3-0.6-0.5-0.9c-1.3-2.2-2.3-4.6-3.4-6.9c1.9-2.1,4-4,6.5-5.4c0.4-0.2,0.7-0.4,1-0.6
	C553.9-951.3,554.9-959.6,548.6-961.4z M528.2-942.4c-19.1-5.2-38.2-10.3-57.3-15.5c20.4,1.8,40.7,4.1,61,6.9
	c-0.7,0.8-1.4,1.5-2.1,2.3C528.2-947,527.5-944.6,528.2-942.4z M475.9-969.9c-13.5-1.2-27-2.3-40.6-3.1l-0.4-10.9
	C448.5-978.9,462.2-974.3,475.9-969.9z"/>
<path d="M323.3-459.8c-37.1-10.7-74.3-21.3-110.6-34.7c-1.8-0.7-3.3-0.5-4.5,0.2c-3.9,0.8-7.7,1.8-11.3,2.9
	c-13.8,4.3-25.1,11.1-34,20.6c-8.9,9.5-15.5,21.7-19.7,36.5c-4.3,14.9-6.4,32.9-6.4,54.1s2.1,39.3,6.2,54.2
	c4.1,15,10.5,27.2,19.2,36.7c8.6,9.5,19.4,16.4,32.3,20.6c12.9,4.3,28.1,6.4,45.7,6.4c10.2,0,19.9-1.3,29-4
	c9.1-2.7,17.2-6.9,24.3-12.6c7.1-5.7,12.7-13,16.8-21.9c4.1-8.9,6.2-19.5,6.2-32V-343h-21.2v11.3c0,9-1.4,16.7-4.2,23.2
	c-2.8,6.5-6.6,11.7-11.5,15.7c-4.9,4-10.7,6.9-17.3,8.8c-6.7,1.8-14.1,2.7-22.1,2.7c-8.5,0-14.7-0.4-18.6-1.1
	c-2.4-0.5-4.4-1-5.8-1.5c-2.2-8.8-4-18.3-5.5-28.5c-1.2-8.8-2.4-18.9-3.5-30.5c-1.1-11.6-1.6-24-1.6-37.4c0-13.1,0.5-25.6,1.6-37.3
	c1.1-11.7,2.2-21.9,3.5-30.7c0.2-1.6,0.5-3.1,0.7-4.6c34.1,9.2,68.2,18.4,102.3,27.7c2.7,0.7,4.8-0.2,6.2-1.9c1.8-1.7,2.6-4.3,1-7
	c-0.1-0.3-0.3-0.6-0.5-0.9c-1.3-2.2-2.3-4.6-3.4-6.9c1.9-2.1,4-4,6.5-5.4c0.4-0.2,0.7-0.4,1-0.6C328.5-449.8,329.5-458,323.3-459.8z
	 M302.8-440.9c-19.1-5.2-38.2-10.3-57.3-15.5c20.4,1.8,40.7,4.1,61,6.9c-0.7,0.8-1.4,1.5-2.1,2.3C302.8-445.5,302.1-443,302.8-440.9
	z M250.6-468.4c-13.5-1.2-27-2.3-40.6-3.1l-0.4-10.9C223.1-477.4,236.8-472.8,250.6-468.4z"/>
<g>
	<path class="st0" d="M-993.2-512.4c-0.3-0.1-0.5-0.2-0.8-0.3c-30.2-8.4-62-8.8-92.4-1.3c-2.6,0.6-4,2.4-4.3,4.4
		c-0.6,1.2-0.7,2.6-0.2,4.2c2.3,7.6,4.9,15.2,7.7,22.6c-5.8,1.8-13.1,3.9-13.3,10.9c-0.2,6.3,6,12.3,10.2,16.5
		c9.4,9.2,21.3,16.2,28.6,27.3c2.6,4,8.2,4.1,10.8,0c16-24.7,33.9-48,53.7-69.8v6.4v49.2v133.6h-32.6v21.2h126.7v-21.2h-32.6v-182.8
		h20.5c0.2,4.2,1.1,9,2.6,14.5s4.2,10.7,8.2,15.6c4,4.9,9.6,9.1,16.9,12.6c7.2,3.5,16.8,5.3,28.8,5.3v-69.2h-138.5V-512.4z
		 M-1041.6-457.8c-5.4-6.4-10.6-12.9-15.6-19.6c13.2-3.5,26.5-6.7,39.4-11.1C-1026.1-478.5-1034-468.3-1041.6-457.8z M-1051.7-443.4
		c-3.1-5.9-6.1-11.8-8.9-17.9c3.7,4.8,7.6,9.4,11.6,14C-1049.9-446-1050.8-444.7-1051.7-443.4z M-1011.8-504
		c-17.1,7-35.3,10.9-53.2,15.8c-3.5-5.1-6.8-10.2-10.1-15.5C-1054.1-507.8-1032.7-507.9-1011.8-504z M-1082-469.1
		c-0.2-0.2-0.3-0.4-0.5-0.6c0.4-0.2,0.7-0.3,0.9-0.4c1-0.3,2-0.7,3-1c1.4,3.3,2.8,6.6,4.2,9.8c-1.6-1.5-3.2-2.9-4.7-4.5
		C-1080.1-466.9-1081.1-468-1082-469.1z"/>
	<path class="st0" d="M-418.9-508.2c-4.4-0.6-8.8-1.1-13.2-1.7c-0.6-0.1-1.3,0-1.8,0.2c-1.4,0-2.8,0.7-3.9,2.2
		c-19.9,25.4-39.7,50.7-59.6,76.1c-16.4,0.5-32.8-3.5-49.2-5.8v-87l-57.9,10.6h-21.6v18.3h21.6v188.3h-21.6v18.7H-525v-18.7h-21.6
		v-68.5h16.9l29.3,67.4c1.5,3.4,3.1,6.4,4.9,9c1.8,2.6,4.1,4.8,6.8,6.6c2.7,1.8,6,3.2,9.9,4.2c3.9,1,8.7,1.5,14.3,1.5
		c7.3,0,13.7-0.1,19-0.4c5.4-0.2,9.8-0.6,13.2-1.1c4.2-0.5,7.7-1.1,10.6-1.8v-17.6c-2.4,0.2-4.8,0.5-7,0.7c-2,0.2-3.9,0.4-5.9,0.4
		h-4.4l-35.9-81.7c-0.8-2.2-4.4-3.7-9.4-4.7c18-35.2,37.5-69.8,58-103.6c2.4,0.3,4.9,0.6,7.3,0.9c3.4,0.4,6.2-3.2,6.2-6.2
		C-412.6-505.7-415.5-507.8-418.9-508.2z M-511.5-413.6c-6.5-2.9-13-5.7-19.4-8.7c7.9,1.3,15.9,2.6,23.8,3.1
		C-508.5-417.3-510-415.4-511.5-413.6z M-519.8-403.7c6.1,2.7,12.1,5.5,17.9,8.7c-3.4-0.2-6.7-0.3-9.8-0.3
		C-514.4-398.1-517.1-400.9-519.8-403.7z M-492.6-404.1c-2.4-1.4-4.9-2.7-7.4-4c2-2.6,4-5.1,6-7.7c1.2,0.9,2.5,1.9,3.7,2.8
		c0.6,0.4,1.2,0.7,1.9,0.8C-489.8-409.5-491.2-406.8-492.6-404.1z M-484-423.8c-0.8-0.6-1.6-1.2-2.3-1.8
		c5.6-7.1,11.1-14.2,16.7-21.3c-4.5,8-8.9,16.1-13.2,24.1C-483.1-423.1-483.5-423.4-484-423.8z M-546.6-409.2
		c4.7,4.6,9.5,9.2,14.2,13.9h-14.2V-409.2z"/>
	<path class="st0" d="M-648.4-479.4c-37.1-10.7-74.3-21.3-110.6-34.7c-1.8-0.7-3.3-0.5-4.5,0.2c-3.9,0.8-7.7,1.8-11.3,2.9
		c-13.8,4.3-25.1,11.1-34,20.6c-8.9,9.5-15.5,21.7-19.7,36.5c-4.3,14.9-6.4,32.9-6.4,54.1s2.1,39.3,6.2,54.2
		c4.1,15,10.5,27.2,19.2,36.7c8.6,9.5,19.4,16.4,32.3,20.6c12.9,4.3,28.1,6.4,45.7,6.4c10.2,0,19.9-1.3,29-4
		c9.1-2.7,17.2-6.9,24.3-12.6c7.1-5.7,12.7-13,16.8-21.9c4.1-8.9,6.2-19.5,6.2-32v-10.2h-21.2v11.3c0,9-1.4,16.7-4.2,23.2
		c-2.8,6.5-6.6,11.7-11.5,15.7c-4.9,4-10.7,6.9-17.3,8.8c-6.7,1.8-14.1,2.7-22.1,2.7c-8.5,0-14.7-0.4-18.6-1.1
		c-2.4-0.5-4.4-1-5.8-1.5c-2.2-8.8-4-18.3-5.5-28.5c-1.2-8.8-2.4-18.9-3.5-30.5c-1.1-11.6-1.6-24-1.6-37.4c0-13.1,0.5-25.6,1.6-37.3
		c1.1-11.7,2.2-21.9,3.5-30.7c0.2-1.6,0.5-3.1,0.7-4.6c34.1,9.2,68.2,18.4,102.3,27.7c2.7,0.7,4.8-0.2,6.2-1.9c1.8-1.7,2.6-4.3,1-7
		c-0.1-0.3-0.3-0.6-0.5-0.9c-1.3-2.2-2.3-4.6-3.4-6.9c1.9-2.1,4-4,6.5-5.4c0.4-0.2,0.7-0.4,1-0.6
		C-643.1-469.3-642.1-477.6-648.4-479.4z M-668.8-460.4c-19.1-5.2-38.2-10.3-57.3-15.5c20.4,1.8,40.7,4.1,61,6.9
		c-0.7,0.8-1.4,1.5-2.1,2.3C-668.8-465-669.5-462.6-668.8-460.4z M-721.1-487.9c-13.5-1.2-27-2.3-40.6-3.1l-0.4-10.9
		C-748.5-496.9-734.8-492.3-721.1-487.9z"/>
</g>
<text transform="matrix(1 0 0 1 -1220.2488 73.7594)"><tspan x="0" y="0" style="font-family:'BigshotOne-Regular'; font-size:180.2604px;">Third </tspan><tspan x="0" y="216.3" style="font-family:'BigshotOne-Regular'; font-size:180.2604px;">Culture </tspan><tspan x="0" y="432.6" style="font-family:'BigshotOne-Regular'; font-size:180.2604px;">Kids</tspan></text>
<rect x="-1164.5" y="-1097.3" width="68" height="424.5"/>
<image style="overflow:visible;" width="1201" height="799" xlink:href="../../Captura de pantalla 2020-01-12 a la(s) 17.39.24.png"  transform="matrix(0.4128 0 0 0.4128 0 0)">
</image>
<g>
	<g>
		<g>
			<path d="M87.2,58.4c16.4,72.2,40.3,142.5,71.1,209.8c3.3,7.3,14.1,1,10.8-6.3c-30.3-66.3-53.7-135.7-69.8-206.8
				C97.5,47.2,85.5,50.5,87.2,58.4L87.2,58.4z"/>
		</g>
	</g>
	<g>
		<g>
			<path d="M88.6,58.8c31.7,64.4,69.7,125.2,113.3,182.2c2.1,2.7,5.4,4.1,8.6,2.2c2.7-1.5,4.3-5.9,2.2-8.6
				c-43.6-57-81.6-117.8-113.3-182.2C95.9,45.2,85.1,51.6,88.6,58.8L88.6,58.8z"/>
		</g>
	</g>
	<g>
		<g>
			<path d="M95.6,60.1c66-11.5,134.4-9.4,199.6,6.1c18.5,4.4,36.8,9.9,54.7,16.4c7.6,2.7,10.8-9.3,3.3-12.1
				c-64.6-23.4-134-33.5-202.6-29.4c-19.6,1.2-39,3.5-58.3,6.9C84.4,49.4,87.8,61.4,95.6,60.1L95.6,60.1z"/>
		</g>
	</g>
	<g>
		<g>
			<path d="M351,74.7c-52.6,49.2-101.9,101.9-147.3,157.7c-12.8,15.7-25.2,31.6-37.4,47.8c3.6,0,7.2,0,10.8,0
				c-13.1-24.1-33-43.1-52.6-61.9c-9.9-9.4-19.7-18.9-28.7-29.2c-4.3-4.9-8.3-10-11.9-15.3c-1.8-2.7-3.6-5.4-5.2-8.3
				c-1.7-2.9-4.1-6.4-0.5-8.4c2.9-1.6,6.7-2.1,9.8-3c3.9-1.1,7.8-2.2,11.8-3.2c7.6-2,15.3-3.8,22.9-5.5c15.4-3.5,30.9-6.5,46.5-9.4
				c30.8-5.7,61.7-10.9,92.3-17.9c34.4-7.9,68.2-18.3,100-33.8c5.5-2.7,2.9-12.1-3.2-11.6c-2.8,0.2-5.5-0.4-8.3-0.2
				c-8,0.6-8,13.1,0,12.5c2.8-0.2,5.5,0.4,8.3,0.2c-1.1-3.9-2.1-7.8-3.2-11.6C296,102.4,230,112,165.9,123.9
				c-16.1,3-32.2,6.1-48.2,9.8c-8,1.8-15.9,3.7-23.8,5.8c-7.2,1.9-15.2,3.4-22,6.8c-16.5,8.3-4.1,26.7,3.3,36.9
				c8.2,11.5,17.8,21.9,27.8,31.8c22.6,22.4,47.8,43.1,63.2,71.5c2.5,4.5,8.1,3.5,10.8,0c42.6-56.6,89.1-110.2,139-160.6
				c14.3-14.4,28.9-28.6,43.7-42.4C365.7,78,356.9,69.2,351,74.7L351,74.7z"/>
		</g>
	</g>
</g>
</svg>
